%TF.GenerationSoftware,KiCad,Pcbnew,9.0.6*%
%TF.CreationDate,2026-02-08T10:32:15-06:00*%
%TF.ProjectId,tube_detection_pcb,74756265-5f64-4657-9465-6374696f6e5f,rev?*%
%TF.SameCoordinates,Original*%
%TF.FileFunction,Copper,L2,Bot*%
%TF.FilePolarity,Positive*%
%FSLAX46Y46*%
G04 Gerber Fmt 4.6, Leading zero omitted, Abs format (unit mm)*
G04 Created by KiCad (PCBNEW 9.0.6) date 2026-02-08 10:32:15*
%MOMM*%
%LPD*%
G01*
G04 APERTURE LIST*
G04 Aperture macros list*
%AMRoundRect*
0 Rectangle with rounded corners*
0 $1 Rounding radius*
0 $2 $3 $4 $5 $6 $7 $8 $9 X,Y pos of 4 corners*
0 Add a 4 corners polygon primitive as box body*
4,1,4,$2,$3,$4,$5,$6,$7,$8,$9,$2,$3,0*
0 Add four circle primitives for the rounded corners*
1,1,$1+$1,$2,$3*
1,1,$1+$1,$4,$5*
1,1,$1+$1,$6,$7*
1,1,$1+$1,$8,$9*
0 Add four rect primitives between the rounded corners*
20,1,$1+$1,$2,$3,$4,$5,0*
20,1,$1+$1,$4,$5,$6,$7,0*
20,1,$1+$1,$6,$7,$8,$9,0*
20,1,$1+$1,$8,$9,$2,$3,0*%
G04 Aperture macros list end*
%TA.AperFunction,ComponentPad*%
%ADD10C,1.905000*%
%TD*%
%TA.AperFunction,ComponentPad*%
%ADD11R,1.371600X1.371600*%
%TD*%
%TA.AperFunction,ComponentPad*%
%ADD12C,1.371600*%
%TD*%
%TA.AperFunction,ComponentPad*%
%ADD13R,1.295400X1.295400*%
%TD*%
%TA.AperFunction,ComponentPad*%
%ADD14C,1.295400*%
%TD*%
%TA.AperFunction,ComponentPad*%
%ADD15RoundRect,0.250000X0.725000X-0.600000X0.725000X0.600000X-0.725000X0.600000X-0.725000X-0.600000X0*%
%TD*%
%TA.AperFunction,ComponentPad*%
%ADD16O,1.950000X1.700000*%
%TD*%
G04 APERTURE END LIST*
D10*
%TO.P,U5,1,C*%
%TO.N,Net-(U5-C)*%
X189000000Y-56500000D03*
%TO.P,U5,2,NO*%
%TO.N,Net-(U5-NO)*%
X189000000Y-51500000D03*
%TO.P,U5,3,NC*%
%TO.N,GND*%
X189000000Y-46500000D03*
%TD*%
D11*
%TO.P,R1,1*%
%TO.N,+3V3*%
X138000000Y-45158000D03*
D12*
%TO.P,R1,2*%
%TO.N,Net-(U2-C)*%
X138000000Y-56842000D03*
%TD*%
D10*
%TO.P,U2,1,C*%
%TO.N,Net-(U2-C)*%
X144000000Y-56500000D03*
%TO.P,U2,2,NO*%
%TO.N,Net-(U2-NO)*%
X144000000Y-51500000D03*
%TO.P,U2,3,NC*%
%TO.N,GND*%
X144000000Y-46500000D03*
%TD*%
D13*
%TO.P,U6,1,SH/\u002ALD*%
%TO.N,SH*%
X110380000Y-42460000D03*
D14*
%TO.P,U6,2,CLK*%
%TO.N,CLK*%
X110380000Y-45000000D03*
%TO.P,U6,3,E*%
%TO.N,Net-(U5-NO)*%
X110380000Y-47540000D03*
%TO.P,U6,4,F*%
%TO.N,GND*%
X110380000Y-50080000D03*
%TO.P,U6,5,G*%
X110380000Y-52620000D03*
%TO.P,U6,6,H*%
X110380000Y-55160000D03*
%TO.P,U6,7,\u002AQH*%
%TO.N,QH\u002A*%
X110380000Y-57700000D03*
%TO.P,U6,8,GND*%
%TO.N,GND*%
X110380000Y-60240000D03*
%TO.P,U6,9,QH*%
%TO.N,unconnected-(U6-QH-Pad9)*%
X118000000Y-60240000D03*
%TO.P,U6,10,SER*%
%TO.N,GND*%
X118000000Y-57700000D03*
%TO.P,U6,11,A*%
%TO.N,Net-(U4-NO)*%
X118000000Y-55160000D03*
%TO.P,U6,12,B*%
%TO.N,Net-(U3-NO)*%
X118000000Y-52620000D03*
%TO.P,U6,13,C*%
%TO.N,Net-(U2-NO)*%
X118000000Y-50080000D03*
%TO.P,U6,14,D*%
%TO.N,Net-(U1-NO)*%
X118000000Y-47540000D03*
%TO.P,U6,15,CLKINH*%
%TO.N,CSn*%
X118000000Y-45000000D03*
%TO.P,U6,16,VCC*%
%TO.N,+3V3*%
X118000000Y-42460000D03*
%TD*%
D11*
%TO.P,R5,1*%
%TO.N,+3V3*%
X183000000Y-45158000D03*
D12*
%TO.P,R5,2*%
%TO.N,Net-(U5-C)*%
X183000000Y-56842000D03*
%TD*%
D11*
%TO.P,R2,1*%
%TO.N,+3V3*%
X153000000Y-45158000D03*
D12*
%TO.P,R2,2*%
%TO.N,Net-(U3-C)*%
X153000000Y-56842000D03*
%TD*%
D10*
%TO.P,U4,1,C*%
%TO.N,Net-(U4-C)*%
X174000000Y-56500000D03*
%TO.P,U4,2,NO*%
%TO.N,Net-(U4-NO)*%
X174000000Y-51500000D03*
%TO.P,U4,3,NC*%
%TO.N,GND*%
X174000000Y-46500000D03*
%TD*%
D11*
%TO.P,R3,1*%
%TO.N,+3V3*%
X123000000Y-45000000D03*
D12*
%TO.P,R3,2*%
%TO.N,Net-(U1-C)*%
X123000000Y-56684000D03*
%TD*%
D11*
%TO.P,R4,1*%
%TO.N,+3V3*%
X168000000Y-45158000D03*
D12*
%TO.P,R4,2*%
%TO.N,Net-(U4-C)*%
X168000000Y-56842000D03*
%TD*%
D10*
%TO.P,U3,1,C*%
%TO.N,Net-(U3-C)*%
X159000000Y-56500000D03*
%TO.P,U3,2,NO*%
%TO.N,Net-(U3-NO)*%
X159000000Y-51500000D03*
%TO.P,U3,3,NC*%
%TO.N,GND*%
X159000000Y-46500000D03*
%TD*%
%TO.P,U1,1,C*%
%TO.N,Net-(U1-C)*%
X129000000Y-56500000D03*
%TO.P,U1,2,NO*%
%TO.N,Net-(U1-NO)*%
X129000000Y-51500000D03*
%TO.P,U1,3,NC*%
%TO.N,GND*%
X129000000Y-46500000D03*
%TD*%
D15*
%TO.P,J1,1,1*%
%TO.N,+3V3*%
X104750000Y-57750000D03*
D16*
%TO.P,J1,2,2*%
%TO.N,GND*%
X104750000Y-55250000D03*
%TO.P,J1,3,3*%
%TO.N,QH\u002A*%
X104750000Y-52750000D03*
%TO.P,J1,4,4*%
%TO.N,CLK*%
X104750000Y-50250000D03*
%TO.P,J1,5,5*%
%TO.N,SH*%
X104750000Y-47750000D03*
%TO.P,J1,6,6*%
%TO.N,CSn*%
X104750000Y-45250000D03*
%TD*%
%TA.AperFunction,Conductor*%
%TO.N,GND*%
G36*
X108308363Y-35520185D02*
G01*
X108329005Y-35536819D01*
X111099500Y-38307314D01*
X113192686Y-40400500D01*
X113306814Y-40466392D01*
X113434107Y-40500500D01*
X113434108Y-40500500D01*
X113434109Y-40500500D01*
X185315890Y-40500500D01*
X185315892Y-40500500D01*
X185443186Y-40466392D01*
X185557314Y-40400500D01*
X187579103Y-38378711D01*
X193149500Y-38378711D01*
X193149500Y-38621288D01*
X193181161Y-38861785D01*
X193243947Y-39096104D01*
X193336773Y-39320205D01*
X193336776Y-39320212D01*
X193458064Y-39530289D01*
X193458066Y-39530292D01*
X193458067Y-39530293D01*
X193605733Y-39722736D01*
X193605739Y-39722743D01*
X193777256Y-39894260D01*
X193777262Y-39894265D01*
X193969711Y-40041936D01*
X194179788Y-40163224D01*
X194403900Y-40256054D01*
X194638211Y-40318838D01*
X194818586Y-40342584D01*
X194878711Y-40350500D01*
X194878712Y-40350500D01*
X195121289Y-40350500D01*
X195169388Y-40344167D01*
X195361789Y-40318838D01*
X195596100Y-40256054D01*
X195820212Y-40163224D01*
X196030289Y-40041936D01*
X196222738Y-39894265D01*
X196394265Y-39722738D01*
X196541936Y-39530289D01*
X196663224Y-39320212D01*
X196756054Y-39096100D01*
X196818838Y-38861789D01*
X196850500Y-38621288D01*
X196850500Y-38378712D01*
X196818838Y-38138211D01*
X196756054Y-37903900D01*
X196663224Y-37679788D01*
X196541936Y-37469711D01*
X196394265Y-37277262D01*
X196394260Y-37277256D01*
X196222743Y-37105739D01*
X196222736Y-37105733D01*
X196030293Y-36958067D01*
X196030292Y-36958066D01*
X196030289Y-36958064D01*
X195820212Y-36836776D01*
X195820205Y-36836773D01*
X195596104Y-36743947D01*
X195361785Y-36681161D01*
X195121289Y-36649500D01*
X195121288Y-36649500D01*
X194878712Y-36649500D01*
X194878711Y-36649500D01*
X194638214Y-36681161D01*
X194403895Y-36743947D01*
X194179794Y-36836773D01*
X194179785Y-36836777D01*
X193969706Y-36958067D01*
X193777263Y-37105733D01*
X193777256Y-37105739D01*
X193605739Y-37277256D01*
X193605733Y-37277263D01*
X193458067Y-37469706D01*
X193336777Y-37679785D01*
X193336773Y-37679794D01*
X193243947Y-37903895D01*
X193181161Y-38138214D01*
X193149500Y-38378711D01*
X187579103Y-38378711D01*
X187650500Y-38307314D01*
X190420995Y-35536819D01*
X190482318Y-35503334D01*
X190508676Y-35500500D01*
X197433233Y-35500500D01*
X197500272Y-35520185D01*
X197546027Y-35572989D01*
X197557227Y-35623339D01*
X197657364Y-46337891D01*
X197853965Y-67374341D01*
X197834907Y-67441562D01*
X197782533Y-67487808D01*
X197729970Y-67499500D01*
X190508676Y-67499500D01*
X190441637Y-67479815D01*
X190420995Y-67463181D01*
X187086525Y-64128711D01*
X193149500Y-64128711D01*
X193149500Y-64371288D01*
X193181161Y-64611785D01*
X193243947Y-64846104D01*
X193336773Y-65070205D01*
X193336776Y-65070212D01*
X193458064Y-65280289D01*
X193458066Y-65280292D01*
X193458067Y-65280293D01*
X193605733Y-65472736D01*
X193605739Y-65472743D01*
X193777256Y-65644260D01*
X193777262Y-65644265D01*
X193969711Y-65791936D01*
X194179788Y-65913224D01*
X194403900Y-66006054D01*
X194638211Y-66068838D01*
X194818586Y-66092584D01*
X194878711Y-66100500D01*
X194878712Y-66100500D01*
X195121289Y-66100500D01*
X195169388Y-66094167D01*
X195361789Y-66068838D01*
X195596100Y-66006054D01*
X195820212Y-65913224D01*
X196030289Y-65791936D01*
X196222738Y-65644265D01*
X196394265Y-65472738D01*
X196541936Y-65280289D01*
X196663224Y-65070212D01*
X196756054Y-64846100D01*
X196818838Y-64611789D01*
X196850500Y-64371288D01*
X196850500Y-64128712D01*
X196818838Y-63888211D01*
X196756054Y-63653900D01*
X196663224Y-63429788D01*
X196541936Y-63219711D01*
X196394265Y-63027262D01*
X196394260Y-63027256D01*
X196222743Y-62855739D01*
X196222736Y-62855733D01*
X196030293Y-62708067D01*
X196030292Y-62708066D01*
X196030289Y-62708064D01*
X195820212Y-62586776D01*
X195820205Y-62586773D01*
X195596104Y-62493947D01*
X195361785Y-62431161D01*
X195121289Y-62399500D01*
X195121288Y-62399500D01*
X194878712Y-62399500D01*
X194878711Y-62399500D01*
X194638214Y-62431161D01*
X194403895Y-62493947D01*
X194179794Y-62586773D01*
X194179785Y-62586777D01*
X193969706Y-62708067D01*
X193777263Y-62855733D01*
X193777256Y-62855739D01*
X193605739Y-63027256D01*
X193605733Y-63027263D01*
X193458067Y-63219706D01*
X193336777Y-63429785D01*
X193336773Y-63429794D01*
X193243947Y-63653895D01*
X193181161Y-63888214D01*
X193149500Y-64128711D01*
X187086525Y-64128711D01*
X185557316Y-62599502D01*
X185557314Y-62599500D01*
X185500250Y-62566554D01*
X185443187Y-62533608D01*
X185379539Y-62516554D01*
X185315892Y-62499500D01*
X184565892Y-62499500D01*
X171565892Y-62499500D01*
X113565892Y-62499500D01*
X113434107Y-62499500D01*
X113306812Y-62533608D01*
X113192686Y-62599500D01*
X113192683Y-62599502D01*
X108329005Y-67463181D01*
X108267682Y-67496666D01*
X108241324Y-67499500D01*
X100624500Y-67499500D01*
X100557461Y-67479815D01*
X100511706Y-67427011D01*
X100500500Y-67375500D01*
X100500500Y-64128711D01*
X102149500Y-64128711D01*
X102149500Y-64371288D01*
X102181161Y-64611785D01*
X102243947Y-64846104D01*
X102336773Y-65070205D01*
X102336776Y-65070212D01*
X102458064Y-65280289D01*
X102458066Y-65280292D01*
X102458067Y-65280293D01*
X102605733Y-65472736D01*
X102605739Y-65472743D01*
X102777256Y-65644260D01*
X102777262Y-65644265D01*
X102969711Y-65791936D01*
X103179788Y-65913224D01*
X103403900Y-66006054D01*
X103638211Y-66068838D01*
X103818586Y-66092584D01*
X103878711Y-66100500D01*
X103878712Y-66100500D01*
X104121289Y-66100500D01*
X104169388Y-66094167D01*
X104361789Y-66068838D01*
X104596100Y-66006054D01*
X104820212Y-65913224D01*
X105030289Y-65791936D01*
X105222738Y-65644265D01*
X105394265Y-65472738D01*
X105541936Y-65280289D01*
X105663224Y-65070212D01*
X105756054Y-64846100D01*
X105818838Y-64611789D01*
X105850500Y-64371288D01*
X105850500Y-64128712D01*
X105818838Y-63888211D01*
X105756054Y-63653900D01*
X105663224Y-63429788D01*
X105541936Y-63219711D01*
X105394265Y-63027262D01*
X105394260Y-63027256D01*
X105222743Y-62855739D01*
X105222736Y-62855733D01*
X105030293Y-62708067D01*
X105030292Y-62708066D01*
X105030289Y-62708064D01*
X104820212Y-62586776D01*
X104820205Y-62586773D01*
X104596104Y-62493947D01*
X104361785Y-62431161D01*
X104121289Y-62399500D01*
X104121288Y-62399500D01*
X103878712Y-62399500D01*
X103878711Y-62399500D01*
X103638214Y-62431161D01*
X103403895Y-62493947D01*
X103179794Y-62586773D01*
X103179785Y-62586777D01*
X102969706Y-62708067D01*
X102777263Y-62855733D01*
X102777256Y-62855739D01*
X102605739Y-63027256D01*
X102605733Y-63027263D01*
X102458067Y-63219706D01*
X102336777Y-63429785D01*
X102336773Y-63429794D01*
X102243947Y-63653895D01*
X102181161Y-63888214D01*
X102149500Y-64128711D01*
X100500500Y-64128711D01*
X100500500Y-60149668D01*
X109232300Y-60149668D01*
X109232300Y-60330331D01*
X109260559Y-60508750D01*
X109316386Y-60680566D01*
X109398401Y-60841529D01*
X109409558Y-60856886D01*
X109409559Y-60856886D01*
X109986300Y-60280145D01*
X109986300Y-60291832D01*
X110013130Y-60391962D01*
X110064962Y-60481737D01*
X110138263Y-60555038D01*
X110228038Y-60606870D01*
X110328168Y-60633700D01*
X110339853Y-60633700D01*
X109763112Y-61210438D01*
X109763112Y-61210439D01*
X109778477Y-61221602D01*
X109939433Y-61303613D01*
X110111249Y-61359440D01*
X110289669Y-61387700D01*
X110470331Y-61387700D01*
X110648750Y-61359440D01*
X110820566Y-61303613D01*
X110981528Y-61221599D01*
X110981532Y-61221597D01*
X110996886Y-61210440D01*
X110996887Y-61210439D01*
X110420148Y-60633700D01*
X110431832Y-60633700D01*
X110531962Y-60606870D01*
X110621737Y-60555038D01*
X110695038Y-60481737D01*
X110746870Y-60391962D01*
X110773700Y-60291832D01*
X110773700Y-60280147D01*
X111350439Y-60856887D01*
X111350440Y-60856886D01*
X111361597Y-60841532D01*
X111361599Y-60841528D01*
X111443613Y-60680566D01*
X111499440Y-60508750D01*
X111527700Y-60330331D01*
X111527700Y-60149668D01*
X111527695Y-60149635D01*
X116851800Y-60149635D01*
X116851800Y-60330364D01*
X116880053Y-60508750D01*
X116880073Y-60508871D01*
X116935922Y-60680756D01*
X117017840Y-60841529D01*
X117017974Y-60841791D01*
X117124196Y-60987996D01*
X117252003Y-61115803D01*
X117382260Y-61210438D01*
X117398212Y-61222028D01*
X117559244Y-61304078D01*
X117731129Y-61359927D01*
X117909635Y-61388200D01*
X117909636Y-61388200D01*
X118090364Y-61388200D01*
X118090365Y-61388200D01*
X118268871Y-61359927D01*
X118440756Y-61304078D01*
X118601788Y-61222028D01*
X118683879Y-61162385D01*
X118747996Y-61115803D01*
X118747998Y-61115800D01*
X118748002Y-61115798D01*
X118875798Y-60988002D01*
X118875800Y-60987998D01*
X118875803Y-60987996D01*
X118922385Y-60923879D01*
X118982028Y-60841788D01*
X119064078Y-60680756D01*
X119119927Y-60508871D01*
X119148200Y-60330365D01*
X119148200Y-60149635D01*
X119119927Y-59971129D01*
X119064078Y-59799244D01*
X118982028Y-59638212D01*
X118971057Y-59623112D01*
X118875803Y-59492003D01*
X118747996Y-59364196D01*
X118601791Y-59257974D01*
X118601790Y-59257973D01*
X118601788Y-59257972D01*
X118440756Y-59175922D01*
X118268871Y-59120073D01*
X118268869Y-59120072D01*
X118268867Y-59120072D01*
X118102659Y-59093747D01*
X118102658Y-59093747D01*
X118090365Y-59091800D01*
X117909635Y-59091800D01*
X117897342Y-59093747D01*
X117897340Y-59093747D01*
X117731132Y-59120072D01*
X117559241Y-59175923D01*
X117398208Y-59257974D01*
X117252003Y-59364196D01*
X117124196Y-59492003D01*
X117017974Y-59638208D01*
X116935923Y-59799241D01*
X116880072Y-59971132D01*
X116851800Y-60149635D01*
X111527695Y-60149635D01*
X111499440Y-59971249D01*
X111443613Y-59799433D01*
X111361602Y-59638477D01*
X111350439Y-59623112D01*
X110773700Y-60199851D01*
X110773700Y-60188168D01*
X110746870Y-60088038D01*
X110695038Y-59998263D01*
X110621737Y-59924962D01*
X110531962Y-59873130D01*
X110431832Y-59846300D01*
X110420147Y-59846300D01*
X110996886Y-59269559D01*
X110996886Y-59269558D01*
X110981529Y-59258401D01*
X110820566Y-59176386D01*
X110648750Y-59120559D01*
X110648752Y-59120559D01*
X110482658Y-59094252D01*
X110277341Y-59094252D01*
X110111248Y-59120559D01*
X109939433Y-59176386D01*
X109778476Y-59258397D01*
X109778472Y-59258400D01*
X109763112Y-59269558D01*
X109763112Y-59269559D01*
X110339854Y-59846300D01*
X110328168Y-59846300D01*
X110228038Y-59873130D01*
X110138263Y-59924962D01*
X110064962Y-59998263D01*
X110013130Y-60088038D01*
X109986300Y-60188168D01*
X109986300Y-60199853D01*
X109409559Y-59623112D01*
X109409558Y-59623112D01*
X109398400Y-59638472D01*
X109398397Y-59638476D01*
X109316386Y-59799433D01*
X109260559Y-59971249D01*
X109232300Y-60149668D01*
X100500500Y-60149668D01*
X100500500Y-45143713D01*
X103274500Y-45143713D01*
X103274500Y-45356287D01*
X103307754Y-45566243D01*
X103366811Y-45748002D01*
X103373444Y-45768414D01*
X103469951Y-45957820D01*
X103594890Y-46129786D01*
X103745209Y-46280105D01*
X103745214Y-46280109D01*
X103909793Y-46399682D01*
X103952459Y-46455011D01*
X103958438Y-46524625D01*
X103925833Y-46586420D01*
X103909793Y-46600318D01*
X103745214Y-46719890D01*
X103745209Y-46719894D01*
X103594890Y-46870213D01*
X103469951Y-47042179D01*
X103373444Y-47231585D01*
X103307753Y-47433760D01*
X103274500Y-47643713D01*
X103274500Y-47856286D01*
X103307753Y-48066239D01*
X103373444Y-48268414D01*
X103469951Y-48457820D01*
X103594890Y-48629786D01*
X103745209Y-48780105D01*
X103745214Y-48780109D01*
X103909793Y-48899682D01*
X103952459Y-48955011D01*
X103958438Y-49024625D01*
X103925833Y-49086420D01*
X103909793Y-49100318D01*
X103745214Y-49219890D01*
X103745209Y-49219894D01*
X103594890Y-49370213D01*
X103469951Y-49542179D01*
X103373444Y-49731585D01*
X103307753Y-49933760D01*
X103289818Y-50047000D01*
X103274500Y-50143713D01*
X103274500Y-50356287D01*
X103280638Y-50395038D01*
X103305724Y-50553431D01*
X103307754Y-50566243D01*
X103363711Y-50738461D01*
X103373444Y-50768414D01*
X103469951Y-50957820D01*
X103594890Y-51129786D01*
X103745209Y-51280105D01*
X103745214Y-51280109D01*
X103909793Y-51399682D01*
X103952459Y-51455011D01*
X103958438Y-51524625D01*
X103925833Y-51586420D01*
X103909793Y-51600318D01*
X103745214Y-51719890D01*
X103745209Y-51719894D01*
X103594890Y-51870213D01*
X103469951Y-52042179D01*
X103373444Y-52231585D01*
X103307753Y-52433760D01*
X103274500Y-52643713D01*
X103274500Y-52856286D01*
X103306854Y-53060566D01*
X103307754Y-53066243D01*
X103358209Y-53221528D01*
X103373444Y-53268414D01*
X103469951Y-53457820D01*
X103594890Y-53629786D01*
X103745209Y-53780105D01*
X103745214Y-53780109D01*
X103910218Y-53899991D01*
X103952884Y-53955320D01*
X103958863Y-54024934D01*
X103926258Y-54086729D01*
X103910218Y-54100627D01*
X103745540Y-54220272D01*
X103745535Y-54220276D01*
X103595276Y-54370535D01*
X103595272Y-54370540D01*
X103470379Y-54542442D01*
X103373904Y-54731782D01*
X103308242Y-54933870D01*
X103308242Y-54933873D01*
X103297769Y-55000000D01*
X104345854Y-55000000D01*
X104307370Y-55066657D01*
X104275000Y-55187465D01*
X104275000Y-55312535D01*
X104307370Y-55433343D01*
X104345854Y-55500000D01*
X103297769Y-55500000D01*
X103308242Y-55566126D01*
X103308242Y-55566129D01*
X103373904Y-55768217D01*
X103470379Y-55957557D01*
X103595272Y-56129459D01*
X103595276Y-56129464D01*
X103734143Y-56268331D01*
X103767628Y-56329654D01*
X103762644Y-56399346D01*
X103720772Y-56455279D01*
X103711559Y-56461551D01*
X103556342Y-56557289D01*
X103432289Y-56681342D01*
X103340187Y-56830663D01*
X103340185Y-56830668D01*
X103312349Y-56914670D01*
X103285001Y-56997203D01*
X103285001Y-56997204D01*
X103285000Y-56997204D01*
X103274500Y-57099983D01*
X103274500Y-58400001D01*
X103274501Y-58400018D01*
X103285000Y-58502796D01*
X103285001Y-58502799D01*
X103340185Y-58669331D01*
X103340187Y-58669336D01*
X103375069Y-58725888D01*
X103432288Y-58818656D01*
X103556344Y-58942712D01*
X103705666Y-59034814D01*
X103872203Y-59089999D01*
X103974991Y-59100500D01*
X105525008Y-59100499D01*
X105627797Y-59089999D01*
X105794334Y-59034814D01*
X105943656Y-58942712D01*
X106067712Y-58818656D01*
X106159814Y-58669334D01*
X106214999Y-58502797D01*
X106225500Y-58400009D01*
X106225499Y-57609635D01*
X109231800Y-57609635D01*
X109231800Y-57790364D01*
X109260053Y-57968750D01*
X109260073Y-57968871D01*
X109315922Y-58140756D01*
X109397840Y-58301529D01*
X109397974Y-58301791D01*
X109504196Y-58447996D01*
X109632003Y-58575803D01*
X109760736Y-58669331D01*
X109778212Y-58682028D01*
X109939244Y-58764078D01*
X110111129Y-58819927D01*
X110289635Y-58848200D01*
X110470365Y-58848200D01*
X110648871Y-58819927D01*
X110820756Y-58764078D01*
X110981788Y-58682028D01*
X111063879Y-58622385D01*
X111127996Y-58575803D01*
X111127998Y-58575800D01*
X111128002Y-58575798D01*
X111255798Y-58448002D01*
X111255800Y-58447998D01*
X111255803Y-58447996D01*
X111302385Y-58383879D01*
X111362028Y-58301788D01*
X111444078Y-58140756D01*
X111499927Y-57968871D01*
X111528200Y-57790365D01*
X111528200Y-57609668D01*
X116852300Y-57609668D01*
X116852300Y-57790331D01*
X116880559Y-57968750D01*
X116936386Y-58140566D01*
X117018401Y-58301529D01*
X117029558Y-58316886D01*
X117029559Y-58316886D01*
X117606300Y-57740145D01*
X117606300Y-57751832D01*
X117633130Y-57851962D01*
X117684962Y-57941737D01*
X117758263Y-58015038D01*
X117848038Y-58066870D01*
X117948168Y-58093700D01*
X117959853Y-58093700D01*
X117383112Y-58670438D01*
X117383112Y-58670439D01*
X117398477Y-58681602D01*
X117559433Y-58763613D01*
X117731249Y-58819440D01*
X117897340Y-58845747D01*
X118102659Y-58845747D01*
X118268750Y-58819440D01*
X118440566Y-58763613D01*
X118601528Y-58681599D01*
X118601532Y-58681597D01*
X118616886Y-58670440D01*
X118616887Y-58670439D01*
X118040148Y-58093700D01*
X118051832Y-58093700D01*
X118151962Y-58066870D01*
X118241737Y-58015038D01*
X118315038Y-57941737D01*
X118366870Y-57851962D01*
X118393700Y-57751832D01*
X118393700Y-57740147D01*
X118970440Y-58316887D01*
X118970440Y-58316886D01*
X118981597Y-58301532D01*
X118981599Y-58301528D01*
X119063613Y-58140566D01*
X119119440Y-57968750D01*
X119147700Y-57790331D01*
X119147700Y-57609668D01*
X119119440Y-57431249D01*
X119063613Y-57259433D01*
X118981602Y-57098477D01*
X118970439Y-57083112D01*
X118393700Y-57659851D01*
X118393700Y-57648168D01*
X118366870Y-57548038D01*
X118315038Y-57458263D01*
X118241737Y-57384962D01*
X118151962Y-57333130D01*
X118051832Y-57306300D01*
X118040147Y-57306300D01*
X118616886Y-56729559D01*
X118616886Y-56729558D01*
X118601529Y-56718401D01*
X118558053Y-56696249D01*
X118440566Y-56636386D01*
X118299763Y-56590636D01*
X121813700Y-56590636D01*
X121813700Y-56777364D01*
X121822142Y-56830663D01*
X121841359Y-56951998D01*
X121842911Y-56961793D01*
X121900613Y-57139381D01*
X121985385Y-57305757D01*
X122095141Y-57456822D01*
X122227178Y-57588859D01*
X122378243Y-57698615D01*
X122544619Y-57783387D01*
X122722207Y-57841089D01*
X122906636Y-57870300D01*
X122906637Y-57870300D01*
X123093363Y-57870300D01*
X123093364Y-57870300D01*
X123277793Y-57841089D01*
X123455381Y-57783387D01*
X123621757Y-57698615D01*
X123772822Y-57588859D01*
X123904859Y-57456822D01*
X124014615Y-57305757D01*
X124099387Y-57139381D01*
X124157089Y-56961793D01*
X124186300Y-56777364D01*
X124186300Y-56590636D01*
X124157089Y-56406207D01*
X124150408Y-56385646D01*
X127547000Y-56385646D01*
X127547000Y-56614353D01*
X127582778Y-56840246D01*
X127582778Y-56840249D01*
X127653450Y-57057755D01*
X127674971Y-57099992D01*
X127757283Y-57261538D01*
X127891714Y-57446566D01*
X128053434Y-57608286D01*
X128238462Y-57742717D01*
X128331910Y-57790331D01*
X128442244Y-57846549D01*
X128659751Y-57917221D01*
X128659752Y-57917221D01*
X128659755Y-57917222D01*
X128885646Y-57953000D01*
X128885647Y-57953000D01*
X129114353Y-57953000D01*
X129114354Y-57953000D01*
X129340245Y-57917222D01*
X129340248Y-57917221D01*
X129340249Y-57917221D01*
X129557755Y-57846549D01*
X129557755Y-57846548D01*
X129557758Y-57846548D01*
X129761538Y-57742717D01*
X129946566Y-57608286D01*
X130108286Y-57446566D01*
X130242717Y-57261538D01*
X130346548Y-57057758D01*
X130366223Y-56997204D01*
X130417221Y-56840249D01*
X130417221Y-56840248D01*
X130417222Y-56840245D01*
X130431731Y-56748636D01*
X136813700Y-56748636D01*
X136813700Y-56935363D01*
X136839775Y-57099998D01*
X136842911Y-57119793D01*
X136900613Y-57297381D01*
X136985385Y-57463757D01*
X137095141Y-57614822D01*
X137227178Y-57746859D01*
X137378243Y-57856615D01*
X137544619Y-57941387D01*
X137722207Y-57999089D01*
X137906636Y-58028300D01*
X137906637Y-58028300D01*
X138093363Y-58028300D01*
X138093364Y-58028300D01*
X138277793Y-57999089D01*
X138455381Y-57941387D01*
X138621757Y-57856615D01*
X138772822Y-57746859D01*
X138904859Y-57614822D01*
X139014615Y-57463757D01*
X139099387Y-57297381D01*
X139157089Y-57119793D01*
X139186300Y-56935364D01*
X139186300Y-56748636D01*
X139157089Y-56564207D01*
X139099387Y-56386619D01*
X139098891Y-56385646D01*
X142547000Y-56385646D01*
X142547000Y-56614353D01*
X142582778Y-56840246D01*
X142582778Y-56840249D01*
X142653450Y-57057755D01*
X142674971Y-57099992D01*
X142757283Y-57261538D01*
X142891714Y-57446566D01*
X143053434Y-57608286D01*
X143238462Y-57742717D01*
X143331910Y-57790331D01*
X143442244Y-57846549D01*
X143659751Y-57917221D01*
X143659752Y-57917221D01*
X143659755Y-57917222D01*
X143885646Y-57953000D01*
X143885647Y-57953000D01*
X144114353Y-57953000D01*
X144114354Y-57953000D01*
X144340245Y-57917222D01*
X144340248Y-57917221D01*
X144340249Y-57917221D01*
X144557755Y-57846549D01*
X144557755Y-57846548D01*
X144557758Y-57846548D01*
X144761538Y-57742717D01*
X144946566Y-57608286D01*
X145108286Y-57446566D01*
X145242717Y-57261538D01*
X145346548Y-57057758D01*
X145366223Y-56997204D01*
X145417221Y-56840249D01*
X145417221Y-56840248D01*
X145417222Y-56840245D01*
X145431731Y-56748636D01*
X151813700Y-56748636D01*
X151813700Y-56935363D01*
X151839775Y-57099998D01*
X151842911Y-57119793D01*
X151900613Y-57297381D01*
X151985385Y-57463757D01*
X152095141Y-57614822D01*
X152227178Y-57746859D01*
X152378243Y-57856615D01*
X152544619Y-57941387D01*
X152722207Y-57999089D01*
X152906636Y-58028300D01*
X152906637Y-58028300D01*
X153093363Y-58028300D01*
X153093364Y-58028300D01*
X153277793Y-57999089D01*
X153455381Y-57941387D01*
X153621757Y-57856615D01*
X153772822Y-57746859D01*
X153904859Y-57614822D01*
X154014615Y-57463757D01*
X154099387Y-57297381D01*
X154157089Y-57119793D01*
X154186300Y-56935364D01*
X154186300Y-56748636D01*
X154157089Y-56564207D01*
X154099387Y-56386619D01*
X154098891Y-56385646D01*
X157547000Y-56385646D01*
X157547000Y-56614353D01*
X157582778Y-56840246D01*
X157582778Y-56840249D01*
X157653450Y-57057755D01*
X157674971Y-57099992D01*
X157757283Y-57261538D01*
X157891714Y-57446566D01*
X158053434Y-57608286D01*
X158238462Y-57742717D01*
X158331910Y-57790331D01*
X158442244Y-57846549D01*
X158659751Y-57917221D01*
X158659752Y-57917221D01*
X158659755Y-57917222D01*
X158885646Y-57953000D01*
X158885647Y-57953000D01*
X159114353Y-57953000D01*
X159114354Y-57953000D01*
X159340245Y-57917222D01*
X159340248Y-57917221D01*
X159340249Y-57917221D01*
X159557755Y-57846549D01*
X159557755Y-57846548D01*
X159557758Y-57846548D01*
X159761538Y-57742717D01*
X159946566Y-57608286D01*
X160108286Y-57446566D01*
X160242717Y-57261538D01*
X160346548Y-57057758D01*
X160366223Y-56997204D01*
X160417221Y-56840249D01*
X160417221Y-56840248D01*
X160417222Y-56840245D01*
X160431731Y-56748636D01*
X166813700Y-56748636D01*
X166813700Y-56935363D01*
X166839775Y-57099998D01*
X166842911Y-57119793D01*
X166900613Y-57297381D01*
X166985385Y-57463757D01*
X167095141Y-57614822D01*
X167227178Y-57746859D01*
X167378243Y-57856615D01*
X167544619Y-57941387D01*
X167722207Y-57999089D01*
X167906636Y-58028300D01*
X167906637Y-58028300D01*
X168093363Y-58028300D01*
X168093364Y-58028300D01*
X168277793Y-57999089D01*
X168455381Y-57941387D01*
X168621757Y-57856615D01*
X168772822Y-57746859D01*
X168904859Y-57614822D01*
X169014615Y-57463757D01*
X169099387Y-57297381D01*
X169157089Y-57119793D01*
X169186300Y-56935364D01*
X169186300Y-56748636D01*
X169157089Y-56564207D01*
X169099387Y-56386619D01*
X169098891Y-56385646D01*
X172547000Y-56385646D01*
X172547000Y-56614353D01*
X172582778Y-56840246D01*
X172582778Y-56840249D01*
X172653450Y-57057755D01*
X172674971Y-57099992D01*
X172757283Y-57261538D01*
X172891714Y-57446566D01*
X173053434Y-57608286D01*
X173238462Y-57742717D01*
X173331910Y-57790331D01*
X173442244Y-57846549D01*
X173659751Y-57917221D01*
X173659752Y-57917221D01*
X173659755Y-57917222D01*
X173885646Y-57953000D01*
X173885647Y-57953000D01*
X174114353Y-57953000D01*
X174114354Y-57953000D01*
X174340245Y-57917222D01*
X174340248Y-57917221D01*
X174340249Y-57917221D01*
X174557755Y-57846549D01*
X174557755Y-57846548D01*
X174557758Y-57846548D01*
X174761538Y-57742717D01*
X174946566Y-57608286D01*
X175108286Y-57446566D01*
X175242717Y-57261538D01*
X175346548Y-57057758D01*
X175366223Y-56997204D01*
X175417221Y-56840249D01*
X175417221Y-56840248D01*
X175417222Y-56840245D01*
X175431731Y-56748636D01*
X181813700Y-56748636D01*
X181813700Y-56935363D01*
X181839775Y-57099998D01*
X181842911Y-57119793D01*
X181900613Y-57297381D01*
X181985385Y-57463757D01*
X182095141Y-57614822D01*
X182227178Y-57746859D01*
X182378243Y-57856615D01*
X182544619Y-57941387D01*
X182722207Y-57999089D01*
X182906636Y-58028300D01*
X182906637Y-58028300D01*
X183093363Y-58028300D01*
X183093364Y-58028300D01*
X183277793Y-57999089D01*
X183455381Y-57941387D01*
X183621757Y-57856615D01*
X183772822Y-57746859D01*
X183904859Y-57614822D01*
X184014615Y-57463757D01*
X184099387Y-57297381D01*
X184157089Y-57119793D01*
X184186300Y-56935364D01*
X184186300Y-56748636D01*
X184157089Y-56564207D01*
X184099387Y-56386619D01*
X184098891Y-56385646D01*
X187547000Y-56385646D01*
X187547000Y-56614353D01*
X187582778Y-56840246D01*
X187582778Y-56840249D01*
X187653450Y-57057755D01*
X187674971Y-57099992D01*
X187757283Y-57261538D01*
X187891714Y-57446566D01*
X188053434Y-57608286D01*
X188238462Y-57742717D01*
X188331910Y-57790331D01*
X188442244Y-57846549D01*
X188659751Y-57917221D01*
X188659752Y-57917221D01*
X188659755Y-57917222D01*
X188885646Y-57953000D01*
X188885647Y-57953000D01*
X189114353Y-57953000D01*
X189114354Y-57953000D01*
X189340245Y-57917222D01*
X189340248Y-57917221D01*
X189340249Y-57917221D01*
X189557755Y-57846549D01*
X189557755Y-57846548D01*
X189557758Y-57846548D01*
X189761538Y-57742717D01*
X189946566Y-57608286D01*
X190108286Y-57446566D01*
X190242717Y-57261538D01*
X190346548Y-57057758D01*
X190366223Y-56997204D01*
X190417221Y-56840249D01*
X190417221Y-56840248D01*
X190417222Y-56840245D01*
X190453000Y-56614354D01*
X190453000Y-56385646D01*
X190417222Y-56159755D01*
X190417221Y-56159751D01*
X190417221Y-56159750D01*
X190346549Y-55942244D01*
X190262295Y-55776886D01*
X190242717Y-55738462D01*
X190108286Y-55553434D01*
X189946566Y-55391714D01*
X189761538Y-55257283D01*
X189747894Y-55250331D01*
X189557755Y-55153450D01*
X189340248Y-55082778D01*
X189170826Y-55055944D01*
X189114354Y-55047000D01*
X188885646Y-55047000D01*
X188810349Y-55058926D01*
X188659753Y-55082778D01*
X188659750Y-55082778D01*
X188442244Y-55153450D01*
X188238461Y-55257283D01*
X188163203Y-55311962D01*
X188053434Y-55391714D01*
X188053432Y-55391716D01*
X188053431Y-55391716D01*
X187891716Y-55553431D01*
X187891716Y-55553432D01*
X187891714Y-55553434D01*
X187857331Y-55600758D01*
X187757283Y-55738461D01*
X187653450Y-55942244D01*
X187582778Y-56159750D01*
X187582778Y-56159753D01*
X187547000Y-56385646D01*
X184098891Y-56385646D01*
X184014615Y-56220243D01*
X183904859Y-56069178D01*
X183772822Y-55937141D01*
X183621757Y-55827385D01*
X183455381Y-55742613D01*
X183277793Y-55684911D01*
X183277791Y-55684910D01*
X183277789Y-55684910D01*
X183149018Y-55664514D01*
X183093364Y-55655700D01*
X182906636Y-55655700D01*
X182863883Y-55662471D01*
X182722210Y-55684910D01*
X182544616Y-55742614D01*
X182378242Y-55827385D01*
X182227176Y-55937142D01*
X182095142Y-56069176D01*
X181985385Y-56220242D01*
X181900614Y-56386616D01*
X181900613Y-56386618D01*
X181900613Y-56386619D01*
X181893145Y-56409603D01*
X181842910Y-56564210D01*
X181813700Y-56748636D01*
X175431731Y-56748636D01*
X175434753Y-56729559D01*
X175435576Y-56724366D01*
X175453000Y-56614353D01*
X175453000Y-56385646D01*
X175445872Y-56340641D01*
X175417222Y-56159755D01*
X175417221Y-56159751D01*
X175417221Y-56159750D01*
X175346549Y-55942244D01*
X175262295Y-55776886D01*
X175242717Y-55738462D01*
X175108286Y-55553434D01*
X174946566Y-55391714D01*
X174761538Y-55257283D01*
X174747894Y-55250331D01*
X174557755Y-55153450D01*
X174340248Y-55082778D01*
X174170826Y-55055944D01*
X174114354Y-55047000D01*
X173885646Y-55047000D01*
X173810349Y-55058926D01*
X173659753Y-55082778D01*
X173659750Y-55082778D01*
X173442244Y-55153450D01*
X173238461Y-55257283D01*
X173163203Y-55311962D01*
X173053434Y-55391714D01*
X173053432Y-55391716D01*
X173053431Y-55391716D01*
X172891716Y-55553431D01*
X172891716Y-55553432D01*
X172891714Y-55553434D01*
X172857331Y-55600758D01*
X172757283Y-55738461D01*
X172653450Y-55942244D01*
X172582778Y-56159750D01*
X172582778Y-56159753D01*
X172547000Y-56385646D01*
X169098891Y-56385646D01*
X169014615Y-56220243D01*
X168904859Y-56069178D01*
X168772822Y-55937141D01*
X168621757Y-55827385D01*
X168455381Y-55742613D01*
X168277793Y-55684911D01*
X168277791Y-55684910D01*
X168277789Y-55684910D01*
X168149018Y-55664514D01*
X168093364Y-55655700D01*
X167906636Y-55655700D01*
X167863883Y-55662471D01*
X167722210Y-55684910D01*
X167544616Y-55742614D01*
X167378242Y-55827385D01*
X167227176Y-55937142D01*
X167095142Y-56069176D01*
X166985385Y-56220242D01*
X166900614Y-56386616D01*
X166900613Y-56386618D01*
X166900613Y-56386619D01*
X166893145Y-56409603D01*
X166842910Y-56564210D01*
X166813700Y-56748636D01*
X160431731Y-56748636D01*
X160434753Y-56729559D01*
X160435576Y-56724366D01*
X160453000Y-56614353D01*
X160453000Y-56385646D01*
X160445872Y-56340641D01*
X160417222Y-56159755D01*
X160417221Y-56159751D01*
X160417221Y-56159750D01*
X160346549Y-55942244D01*
X160262295Y-55776886D01*
X160242717Y-55738462D01*
X160108286Y-55553434D01*
X159946566Y-55391714D01*
X159761538Y-55257283D01*
X159747894Y-55250331D01*
X159557755Y-55153450D01*
X159340248Y-55082778D01*
X159170826Y-55055944D01*
X159114354Y-55047000D01*
X158885646Y-55047000D01*
X158810349Y-55058926D01*
X158659753Y-55082778D01*
X158659750Y-55082778D01*
X158442244Y-55153450D01*
X158238461Y-55257283D01*
X158163203Y-55311962D01*
X158053434Y-55391714D01*
X158053432Y-55391716D01*
X158053431Y-55391716D01*
X157891716Y-55553431D01*
X157891716Y-55553432D01*
X157891714Y-55553434D01*
X157857331Y-55600758D01*
X157757283Y-55738461D01*
X157653450Y-55942244D01*
X157582778Y-56159750D01*
X157582778Y-56159753D01*
X157547000Y-56385646D01*
X154098891Y-56385646D01*
X154014615Y-56220243D01*
X153904859Y-56069178D01*
X153772822Y-55937141D01*
X153621757Y-55827385D01*
X153455381Y-55742613D01*
X153277793Y-55684911D01*
X153277791Y-55684910D01*
X153277789Y-55684910D01*
X153149018Y-55664514D01*
X153093364Y-55655700D01*
X152906636Y-55655700D01*
X152863883Y-55662471D01*
X152722210Y-55684910D01*
X152544616Y-55742614D01*
X152378242Y-55827385D01*
X152227176Y-55937142D01*
X152095142Y-56069176D01*
X151985385Y-56220242D01*
X151900614Y-56386616D01*
X151900613Y-56386618D01*
X151900613Y-56386619D01*
X151893145Y-56409603D01*
X151842910Y-56564210D01*
X151813700Y-56748636D01*
X145431731Y-56748636D01*
X145434753Y-56729559D01*
X145435576Y-56724366D01*
X145453000Y-56614353D01*
X145453000Y-56385646D01*
X145445872Y-56340641D01*
X145417222Y-56159755D01*
X145417221Y-56159751D01*
X145417221Y-56159750D01*
X145346549Y-55942244D01*
X145262295Y-55776886D01*
X145242717Y-55738462D01*
X145108286Y-55553434D01*
X144946566Y-55391714D01*
X144761538Y-55257283D01*
X144747894Y-55250331D01*
X144557755Y-55153450D01*
X144340248Y-55082778D01*
X144170826Y-55055944D01*
X144114354Y-55047000D01*
X143885646Y-55047000D01*
X143810349Y-55058926D01*
X143659753Y-55082778D01*
X143659750Y-55082778D01*
X143442244Y-55153450D01*
X143238461Y-55257283D01*
X143163203Y-55311962D01*
X143053434Y-55391714D01*
X143053432Y-55391716D01*
X143053431Y-55391716D01*
X142891716Y-55553431D01*
X142891716Y-55553432D01*
X142891714Y-55553434D01*
X142857331Y-55600758D01*
X142757283Y-55738461D01*
X142653450Y-55942244D01*
X142582778Y-56159750D01*
X142582778Y-56159753D01*
X142547000Y-56385646D01*
X139098891Y-56385646D01*
X139014615Y-56220243D01*
X138904859Y-56069178D01*
X138772822Y-55937141D01*
X138621757Y-55827385D01*
X138455381Y-55742613D01*
X138277793Y-55684911D01*
X138277791Y-55684910D01*
X138277789Y-55684910D01*
X138149018Y-55664514D01*
X138093364Y-55655700D01*
X137906636Y-55655700D01*
X137863883Y-55662471D01*
X137722210Y-55684910D01*
X137544616Y-55742614D01*
X137378242Y-55827385D01*
X137227176Y-55937142D01*
X137095142Y-56069176D01*
X136985385Y-56220242D01*
X136900614Y-56386616D01*
X136900613Y-56386618D01*
X136900613Y-56386619D01*
X136893145Y-56409603D01*
X136842910Y-56564210D01*
X136813700Y-56748636D01*
X130431731Y-56748636D01*
X130434753Y-56729559D01*
X130435576Y-56724366D01*
X130453000Y-56614353D01*
X130453000Y-56385646D01*
X130445872Y-56340641D01*
X130417222Y-56159755D01*
X130417221Y-56159751D01*
X130417221Y-56159750D01*
X130346549Y-55942244D01*
X130262295Y-55776886D01*
X130242717Y-55738462D01*
X130108286Y-55553434D01*
X129946566Y-55391714D01*
X129761538Y-55257283D01*
X129747894Y-55250331D01*
X129557755Y-55153450D01*
X129340248Y-55082778D01*
X129170826Y-55055944D01*
X129114354Y-55047000D01*
X128885646Y-55047000D01*
X128810349Y-55058926D01*
X128659753Y-55082778D01*
X128659750Y-55082778D01*
X128442244Y-55153450D01*
X128238461Y-55257283D01*
X128163203Y-55311962D01*
X128053434Y-55391714D01*
X128053432Y-55391716D01*
X128053431Y-55391716D01*
X127891716Y-55553431D01*
X127891716Y-55553432D01*
X127891714Y-55553434D01*
X127857331Y-55600758D01*
X127757283Y-55738461D01*
X127653450Y-55942244D01*
X127582778Y-56159750D01*
X127582778Y-56159753D01*
X127547000Y-56385646D01*
X124150408Y-56385646D01*
X124099387Y-56228619D01*
X124014615Y-56062243D01*
X123904859Y-55911178D01*
X123772822Y-55779141D01*
X123621757Y-55669385D01*
X123455381Y-55584613D01*
X123277793Y-55526911D01*
X123277791Y-55526910D01*
X123277789Y-55526910D01*
X123107885Y-55500000D01*
X123093364Y-55497700D01*
X122906636Y-55497700D01*
X122892115Y-55500000D01*
X122722210Y-55526910D01*
X122544616Y-55584614D01*
X122378242Y-55669385D01*
X122227176Y-55779142D01*
X122095142Y-55911176D01*
X121985385Y-56062242D01*
X121900614Y-56228616D01*
X121842910Y-56406210D01*
X121815373Y-56580072D01*
X121813700Y-56590636D01*
X118299763Y-56590636D01*
X118268750Y-56580559D01*
X118268752Y-56580559D01*
X118102658Y-56554252D01*
X117897341Y-56554252D01*
X117731248Y-56580559D01*
X117559433Y-56636386D01*
X117398476Y-56718397D01*
X117398472Y-56718400D01*
X117383112Y-56729558D01*
X117383112Y-56729559D01*
X117959854Y-57306300D01*
X117948168Y-57306300D01*
X117848038Y-57333130D01*
X117758263Y-57384962D01*
X117684962Y-57458263D01*
X117633130Y-57548038D01*
X117606300Y-57648168D01*
X117606300Y-57659853D01*
X117029559Y-57083112D01*
X117029558Y-57083112D01*
X117018400Y-57098472D01*
X117018397Y-57098476D01*
X116936386Y-57259433D01*
X116880559Y-57431249D01*
X116852300Y-57609668D01*
X111528200Y-57609668D01*
X111528200Y-57609635D01*
X111499927Y-57431129D01*
X111444078Y-57259244D01*
X111362028Y-57098212D01*
X111332637Y-57057758D01*
X111255803Y-56952003D01*
X111127996Y-56824196D01*
X110981791Y-56717974D01*
X110981790Y-56717973D01*
X110981788Y-56717972D01*
X110820756Y-56635922D01*
X110648871Y-56580073D01*
X110648869Y-56580072D01*
X110648867Y-56580072D01*
X110482659Y-56553747D01*
X110482658Y-56553747D01*
X110470365Y-56551800D01*
X110289635Y-56551800D01*
X110277342Y-56553747D01*
X110277340Y-56553747D01*
X110111132Y-56580072D01*
X109939241Y-56635923D01*
X109778208Y-56717974D01*
X109632003Y-56824196D01*
X109504196Y-56952003D01*
X109397974Y-57098208D01*
X109315923Y-57259241D01*
X109315922Y-57259243D01*
X109315922Y-57259244D01*
X109303530Y-57297383D01*
X109260072Y-57431132D01*
X109231800Y-57609635D01*
X106225499Y-57609635D01*
X106225499Y-57099992D01*
X106221184Y-57057755D01*
X106214999Y-56997203D01*
X106214998Y-56997200D01*
X106200021Y-56952003D01*
X106159814Y-56830666D01*
X106067712Y-56681344D01*
X105943656Y-56557288D01*
X105794334Y-56465186D01*
X105794332Y-56465185D01*
X105788440Y-56461551D01*
X105741716Y-56409603D01*
X105730493Y-56340641D01*
X105758337Y-56276558D01*
X105765856Y-56268330D01*
X105904728Y-56129458D01*
X106029620Y-55957557D01*
X106126095Y-55768217D01*
X106191757Y-55566129D01*
X106191757Y-55566126D01*
X106202231Y-55500000D01*
X105154146Y-55500000D01*
X105192630Y-55433343D01*
X105225000Y-55312535D01*
X105225000Y-55187465D01*
X105193437Y-55069668D01*
X109232300Y-55069668D01*
X109232300Y-55250331D01*
X109260559Y-55428750D01*
X109316386Y-55600566D01*
X109398401Y-55761529D01*
X109409558Y-55776886D01*
X109409559Y-55776886D01*
X109986300Y-55200145D01*
X109986300Y-55211832D01*
X110013130Y-55311962D01*
X110064962Y-55401737D01*
X110138263Y-55475038D01*
X110228038Y-55526870D01*
X110328168Y-55553700D01*
X110339853Y-55553700D01*
X109763112Y-56130438D01*
X109763112Y-56130439D01*
X109778477Y-56141602D01*
X109939433Y-56223613D01*
X110111249Y-56279440D01*
X110277340Y-56305747D01*
X110482659Y-56305747D01*
X110648750Y-56279440D01*
X110820566Y-56223613D01*
X110981528Y-56141599D01*
X110981532Y-56141597D01*
X110996886Y-56130440D01*
X110996887Y-56130439D01*
X110420148Y-55553700D01*
X110431832Y-55553700D01*
X110531962Y-55526870D01*
X110621737Y-55475038D01*
X110695038Y-55401737D01*
X110746870Y-55311962D01*
X110773700Y-55211832D01*
X110773700Y-55200147D01*
X111350439Y-55776887D01*
X111350440Y-55776886D01*
X111361597Y-55761532D01*
X111361599Y-55761528D01*
X111443613Y-55600566D01*
X111499440Y-55428750D01*
X111527700Y-55250331D01*
X111527700Y-55069668D01*
X111527695Y-55069635D01*
X116851800Y-55069635D01*
X116851800Y-55250364D01*
X116880053Y-55428750D01*
X116880073Y-55428871D01*
X116935922Y-55600756D01*
X117017840Y-55761529D01*
X117017974Y-55761791D01*
X117124196Y-55907996D01*
X117252003Y-56035803D01*
X117380911Y-56129458D01*
X117398212Y-56142028D01*
X117559244Y-56224078D01*
X117731129Y-56279927D01*
X117909635Y-56308200D01*
X118090365Y-56308200D01*
X118268871Y-56279927D01*
X118440756Y-56224078D01*
X118601788Y-56142028D01*
X118702061Y-56069176D01*
X118747996Y-56035803D01*
X118747998Y-56035800D01*
X118748002Y-56035798D01*
X118875798Y-55908002D01*
X118875800Y-55907998D01*
X118875803Y-55907996D01*
X118934369Y-55827385D01*
X118982028Y-55761788D01*
X119064078Y-55600756D01*
X119119927Y-55428871D01*
X119148200Y-55250365D01*
X119148200Y-55069635D01*
X119119927Y-54891129D01*
X119064078Y-54719244D01*
X118982028Y-54558212D01*
X118971057Y-54543112D01*
X118875803Y-54412003D01*
X118747996Y-54284196D01*
X118601791Y-54177974D01*
X118601790Y-54177973D01*
X118601788Y-54177972D01*
X118440756Y-54095922D01*
X118268871Y-54040073D01*
X118268869Y-54040072D01*
X118268867Y-54040072D01*
X118155420Y-54022103D01*
X118090365Y-54011800D01*
X117909635Y-54011800D01*
X117895745Y-54014000D01*
X117731132Y-54040072D01*
X117559241Y-54095923D01*
X117398208Y-54177974D01*
X117252003Y-54284196D01*
X117124196Y-54412003D01*
X117017974Y-54558208D01*
X116935923Y-54719241D01*
X116880072Y-54891132D01*
X116851800Y-55069635D01*
X111527695Y-55069635D01*
X111499440Y-54891249D01*
X111443613Y-54719433D01*
X111361602Y-54558477D01*
X111350439Y-54543112D01*
X110773700Y-55119851D01*
X110773700Y-55108168D01*
X110746870Y-55008038D01*
X110695038Y-54918263D01*
X110621737Y-54844962D01*
X110531962Y-54793130D01*
X110431832Y-54766300D01*
X110420147Y-54766300D01*
X110996886Y-54189559D01*
X110996886Y-54189558D01*
X110981529Y-54178401D01*
X110820566Y-54096386D01*
X110648750Y-54040559D01*
X110481064Y-54014000D01*
X110278935Y-54014000D01*
X110111249Y-54040559D01*
X109939433Y-54096386D01*
X109778476Y-54178397D01*
X109778472Y-54178400D01*
X109763112Y-54189558D01*
X109763112Y-54189559D01*
X110339854Y-54766300D01*
X110328168Y-54766300D01*
X110228038Y-54793130D01*
X110138263Y-54844962D01*
X110064962Y-54918263D01*
X110013130Y-55008038D01*
X109986300Y-55108168D01*
X109986300Y-55119853D01*
X109409559Y-54543112D01*
X109409558Y-54543112D01*
X109398400Y-54558472D01*
X109398397Y-54558476D01*
X109316386Y-54719433D01*
X109260559Y-54891249D01*
X109232300Y-55069668D01*
X105193437Y-55069668D01*
X105192630Y-55066657D01*
X105154146Y-55000000D01*
X106202231Y-55000000D01*
X106202231Y-54999999D01*
X106191757Y-54933873D01*
X106191757Y-54933870D01*
X106126095Y-54731782D01*
X106029620Y-54542442D01*
X105904727Y-54370540D01*
X105904723Y-54370535D01*
X105754464Y-54220276D01*
X105754459Y-54220272D01*
X105589781Y-54100627D01*
X105547115Y-54045297D01*
X105541136Y-53975684D01*
X105573741Y-53913889D01*
X105589776Y-53899994D01*
X105754792Y-53780104D01*
X105905104Y-53629792D01*
X105905106Y-53629788D01*
X105905109Y-53629786D01*
X106030048Y-53457820D01*
X106030047Y-53457820D01*
X106030051Y-53457816D01*
X106126557Y-53268412D01*
X106192246Y-53066243D01*
X106225500Y-52856287D01*
X106225500Y-52643713D01*
X106219889Y-52608286D01*
X106209739Y-52544199D01*
X106207437Y-52529668D01*
X109232300Y-52529668D01*
X109232300Y-52710331D01*
X109260559Y-52888750D01*
X109316386Y-53060566D01*
X109398401Y-53221529D01*
X109409558Y-53236886D01*
X109409559Y-53236886D01*
X109986300Y-52660145D01*
X109986300Y-52671832D01*
X110013130Y-52771962D01*
X110064962Y-52861737D01*
X110138263Y-52935038D01*
X110228038Y-52986870D01*
X110328168Y-53013700D01*
X110339853Y-53013700D01*
X109763112Y-53590438D01*
X109763112Y-53590439D01*
X109778477Y-53601602D01*
X109939433Y-53683613D01*
X110111249Y-53739440D01*
X110278935Y-53766000D01*
X110481064Y-53766000D01*
X110648750Y-53739440D01*
X110820566Y-53683613D01*
X110981528Y-53601599D01*
X110981532Y-53601597D01*
X110996886Y-53590440D01*
X110996887Y-53590439D01*
X110420148Y-53013700D01*
X110431832Y-53013700D01*
X110531962Y-52986870D01*
X110621737Y-52935038D01*
X110695038Y-52861737D01*
X110746870Y-52771962D01*
X110773700Y-52671832D01*
X110773700Y-52660147D01*
X111350439Y-53236887D01*
X111350440Y-53236886D01*
X111361597Y-53221532D01*
X111361599Y-53221528D01*
X111443613Y-53060566D01*
X111499440Y-52888750D01*
X111527700Y-52710331D01*
X111527700Y-52529668D01*
X111527695Y-52529635D01*
X116851800Y-52529635D01*
X116851800Y-52710364D01*
X116880053Y-52888750D01*
X116880073Y-52888871D01*
X116935922Y-53060756D01*
X117017840Y-53221529D01*
X117017974Y-53221791D01*
X117124196Y-53367996D01*
X117252003Y-53495803D01*
X117382260Y-53590438D01*
X117398212Y-53602028D01*
X117559244Y-53684078D01*
X117731129Y-53739927D01*
X117909635Y-53768200D01*
X118090365Y-53768200D01*
X118268871Y-53739927D01*
X118440756Y-53684078D01*
X118601788Y-53602028D01*
X118683879Y-53542385D01*
X118747996Y-53495803D01*
X118747998Y-53495800D01*
X118748002Y-53495798D01*
X118875798Y-53368002D01*
X118875800Y-53367998D01*
X118875803Y-53367996D01*
X118948154Y-53268412D01*
X118982028Y-53221788D01*
X119064078Y-53060756D01*
X119119927Y-52888871D01*
X119148200Y-52710365D01*
X119148200Y-52529635D01*
X119119927Y-52351129D01*
X119064078Y-52179244D01*
X118982028Y-52018212D01*
X118971057Y-52003112D01*
X118875803Y-51872003D01*
X118747996Y-51744196D01*
X118601791Y-51637974D01*
X118601790Y-51637973D01*
X118601788Y-51637972D01*
X118440756Y-51555922D01*
X118268871Y-51500073D01*
X118268868Y-51500072D01*
X118143677Y-51480244D01*
X118090365Y-51471800D01*
X117909635Y-51471800D01*
X117895745Y-51474000D01*
X117731132Y-51500072D01*
X117559241Y-51555923D01*
X117398208Y-51637974D01*
X117252003Y-51744196D01*
X117124196Y-51872003D01*
X117017974Y-52018208D01*
X116935923Y-52179241D01*
X116880072Y-52351132D01*
X116851800Y-52529635D01*
X111527695Y-52529635D01*
X111499440Y-52351249D01*
X111443613Y-52179433D01*
X111361602Y-52018477D01*
X111350439Y-52003112D01*
X110773700Y-52579851D01*
X110773700Y-52568168D01*
X110746870Y-52468038D01*
X110695038Y-52378263D01*
X110621737Y-52304962D01*
X110531962Y-52253130D01*
X110431832Y-52226300D01*
X110420147Y-52226300D01*
X110996886Y-51649559D01*
X110996886Y-51649558D01*
X110981529Y-51638401D01*
X110820566Y-51556386D01*
X110648750Y-51500559D01*
X110481064Y-51474000D01*
X110278935Y-51474000D01*
X110111249Y-51500559D01*
X109939433Y-51556386D01*
X109778476Y-51638397D01*
X109778472Y-51638400D01*
X109763112Y-51649558D01*
X109763112Y-51649559D01*
X110339854Y-52226300D01*
X110328168Y-52226300D01*
X110228038Y-52253130D01*
X110138263Y-52304962D01*
X110064962Y-52378263D01*
X110013130Y-52468038D01*
X109986300Y-52568168D01*
X109986300Y-52579853D01*
X109409559Y-52003112D01*
X109409558Y-52003112D01*
X109398400Y-52018472D01*
X109398397Y-52018476D01*
X109316386Y-52179433D01*
X109260559Y-52351249D01*
X109232300Y-52529668D01*
X106207437Y-52529668D01*
X106200113Y-52483433D01*
X106192246Y-52433757D01*
X106126557Y-52231588D01*
X106030051Y-52042184D01*
X106030049Y-52042181D01*
X106030048Y-52042179D01*
X105905109Y-51870213D01*
X105754792Y-51719896D01*
X105754784Y-51719890D01*
X105590204Y-51600316D01*
X105547540Y-51544989D01*
X105541561Y-51475376D01*
X105574166Y-51413580D01*
X105590199Y-51399686D01*
X105609524Y-51385646D01*
X127547000Y-51385646D01*
X127547000Y-51614353D01*
X127582778Y-51840246D01*
X127582778Y-51840249D01*
X127653450Y-52057755D01*
X127715352Y-52179244D01*
X127757283Y-52261538D01*
X127891714Y-52446566D01*
X128053434Y-52608286D01*
X128238462Y-52742717D01*
X128295859Y-52771962D01*
X128442244Y-52846549D01*
X128659751Y-52917221D01*
X128659752Y-52917221D01*
X128659755Y-52917222D01*
X128885646Y-52953000D01*
X128885647Y-52953000D01*
X129114353Y-52953000D01*
X129114354Y-52953000D01*
X129340245Y-52917222D01*
X129340248Y-52917221D01*
X129340249Y-52917221D01*
X129557755Y-52846549D01*
X129557755Y-52846548D01*
X129557758Y-52846548D01*
X129761538Y-52742717D01*
X129946566Y-52608286D01*
X130108286Y-52446566D01*
X130242717Y-52261538D01*
X130346548Y-52057758D01*
X130359311Y-52018477D01*
X130417221Y-51840249D01*
X130417221Y-51840248D01*
X130417222Y-51840245D01*
X130453000Y-51614354D01*
X130453000Y-51385646D01*
X142547000Y-51385646D01*
X142547000Y-51614353D01*
X142582778Y-51840246D01*
X142582778Y-51840249D01*
X142653450Y-52057755D01*
X142715352Y-52179244D01*
X142757283Y-52261538D01*
X142891714Y-52446566D01*
X143053434Y-52608286D01*
X143238462Y-52742717D01*
X143295859Y-52771962D01*
X143442244Y-52846549D01*
X143659751Y-52917221D01*
X143659752Y-52917221D01*
X143659755Y-52917222D01*
X143885646Y-52953000D01*
X143885647Y-52953000D01*
X144114353Y-52953000D01*
X144114354Y-52953000D01*
X144340245Y-52917222D01*
X144340248Y-52917221D01*
X144340249Y-52917221D01*
X144557755Y-52846549D01*
X144557755Y-52846548D01*
X144557758Y-52846548D01*
X144761538Y-52742717D01*
X144946566Y-52608286D01*
X145108286Y-52446566D01*
X145242717Y-52261538D01*
X145346548Y-52057758D01*
X145359311Y-52018477D01*
X145417221Y-51840249D01*
X145417221Y-51840248D01*
X145417222Y-51840245D01*
X145453000Y-51614354D01*
X145453000Y-51385646D01*
X157547000Y-51385646D01*
X157547000Y-51614353D01*
X157582778Y-51840246D01*
X157582778Y-51840249D01*
X157653450Y-52057755D01*
X157715352Y-52179244D01*
X157757283Y-52261538D01*
X157891714Y-52446566D01*
X158053434Y-52608286D01*
X158238462Y-52742717D01*
X158295859Y-52771962D01*
X158442244Y-52846549D01*
X158659751Y-52917221D01*
X158659752Y-52917221D01*
X158659755Y-52917222D01*
X158885646Y-52953000D01*
X158885647Y-52953000D01*
X159114353Y-52953000D01*
X159114354Y-52953000D01*
X159340245Y-52917222D01*
X159340248Y-52917221D01*
X159340249Y-52917221D01*
X159557755Y-52846549D01*
X159557755Y-52846548D01*
X159557758Y-52846548D01*
X159761538Y-52742717D01*
X159946566Y-52608286D01*
X160108286Y-52446566D01*
X160242717Y-52261538D01*
X160346548Y-52057758D01*
X160359311Y-52018477D01*
X160417221Y-51840249D01*
X160417221Y-51840248D01*
X160417222Y-51840245D01*
X160453000Y-51614354D01*
X160453000Y-51385646D01*
X172547000Y-51385646D01*
X172547000Y-51614353D01*
X172582778Y-51840246D01*
X172582778Y-51840249D01*
X172653450Y-52057755D01*
X172715352Y-52179244D01*
X172757283Y-52261538D01*
X172891714Y-52446566D01*
X173053434Y-52608286D01*
X173238462Y-52742717D01*
X173295859Y-52771962D01*
X173442244Y-52846549D01*
X173659751Y-52917221D01*
X173659752Y-52917221D01*
X173659755Y-52917222D01*
X173885646Y-52953000D01*
X173885647Y-52953000D01*
X174114353Y-52953000D01*
X174114354Y-52953000D01*
X174340245Y-52917222D01*
X174340248Y-52917221D01*
X174340249Y-52917221D01*
X174557755Y-52846549D01*
X174557755Y-52846548D01*
X174557758Y-52846548D01*
X174761538Y-52742717D01*
X174946566Y-52608286D01*
X175108286Y-52446566D01*
X175242717Y-52261538D01*
X175346548Y-52057758D01*
X175359311Y-52018477D01*
X175417221Y-51840249D01*
X175417221Y-51840248D01*
X175417222Y-51840245D01*
X175453000Y-51614354D01*
X175453000Y-51385646D01*
X187547000Y-51385646D01*
X187547000Y-51614353D01*
X187582778Y-51840246D01*
X187582778Y-51840249D01*
X187653450Y-52057755D01*
X187715352Y-52179244D01*
X187757283Y-52261538D01*
X187891714Y-52446566D01*
X188053434Y-52608286D01*
X188238462Y-52742717D01*
X188295859Y-52771962D01*
X188442244Y-52846549D01*
X188659751Y-52917221D01*
X188659752Y-52917221D01*
X188659755Y-52917222D01*
X188885646Y-52953000D01*
X188885647Y-52953000D01*
X189114353Y-52953000D01*
X189114354Y-52953000D01*
X189340245Y-52917222D01*
X189340248Y-52917221D01*
X189340249Y-52917221D01*
X189557755Y-52846549D01*
X189557755Y-52846548D01*
X189557758Y-52846548D01*
X189761538Y-52742717D01*
X189946566Y-52608286D01*
X190108286Y-52446566D01*
X190242717Y-52261538D01*
X190346548Y-52057758D01*
X190359311Y-52018477D01*
X190417221Y-51840249D01*
X190417221Y-51840248D01*
X190417222Y-51840245D01*
X190453000Y-51614354D01*
X190453000Y-51385646D01*
X190417222Y-51159755D01*
X190417221Y-51159751D01*
X190417221Y-51159750D01*
X190346549Y-50942244D01*
X190242716Y-50738461D01*
X190108286Y-50553434D01*
X189946566Y-50391714D01*
X189761538Y-50257283D01*
X189590950Y-50170364D01*
X189557755Y-50153450D01*
X189340248Y-50082778D01*
X189170826Y-50055944D01*
X189114354Y-50047000D01*
X188885646Y-50047000D01*
X188810349Y-50058926D01*
X188659753Y-50082778D01*
X188659750Y-50082778D01*
X188442244Y-50153450D01*
X188238461Y-50257283D01*
X188149749Y-50321737D01*
X188053434Y-50391714D01*
X188053432Y-50391716D01*
X188053431Y-50391716D01*
X187891716Y-50553431D01*
X187891716Y-50553432D01*
X187891714Y-50553434D01*
X187882411Y-50566239D01*
X187757283Y-50738461D01*
X187653450Y-50942244D01*
X187582778Y-51159750D01*
X187582778Y-51159753D01*
X187547000Y-51385646D01*
X175453000Y-51385646D01*
X175417222Y-51159755D01*
X175417221Y-51159751D01*
X175417221Y-51159750D01*
X175346549Y-50942244D01*
X175242716Y-50738461D01*
X175108286Y-50553434D01*
X174946566Y-50391714D01*
X174761538Y-50257283D01*
X174590950Y-50170364D01*
X174557755Y-50153450D01*
X174340248Y-50082778D01*
X174170826Y-50055944D01*
X174114354Y-50047000D01*
X173885646Y-50047000D01*
X173810349Y-50058926D01*
X173659753Y-50082778D01*
X173659750Y-50082778D01*
X173442244Y-50153450D01*
X173238461Y-50257283D01*
X173149749Y-50321737D01*
X173053434Y-50391714D01*
X173053432Y-50391716D01*
X173053431Y-50391716D01*
X172891716Y-50553431D01*
X172891716Y-50553432D01*
X172891714Y-50553434D01*
X172882411Y-50566239D01*
X172757283Y-50738461D01*
X172653450Y-50942244D01*
X172582778Y-51159750D01*
X172582778Y-51159753D01*
X172547000Y-51385646D01*
X160453000Y-51385646D01*
X160417222Y-51159755D01*
X160417221Y-51159751D01*
X160417221Y-51159750D01*
X160346549Y-50942244D01*
X160242716Y-50738461D01*
X160108286Y-50553434D01*
X159946566Y-50391714D01*
X159761538Y-50257283D01*
X159590950Y-50170364D01*
X159557755Y-50153450D01*
X159340248Y-50082778D01*
X159170826Y-50055944D01*
X159114354Y-50047000D01*
X158885646Y-50047000D01*
X158810349Y-50058926D01*
X158659753Y-50082778D01*
X158659750Y-50082778D01*
X158442244Y-50153450D01*
X158238461Y-50257283D01*
X158149749Y-50321737D01*
X158053434Y-50391714D01*
X158053432Y-50391716D01*
X158053431Y-50391716D01*
X157891716Y-50553431D01*
X157891716Y-50553432D01*
X157891714Y-50553434D01*
X157882411Y-50566239D01*
X157757283Y-50738461D01*
X157653450Y-50942244D01*
X157582778Y-51159750D01*
X157582778Y-51159753D01*
X157547000Y-51385646D01*
X145453000Y-51385646D01*
X145417222Y-51159755D01*
X145417221Y-51159751D01*
X145417221Y-51159750D01*
X145346549Y-50942244D01*
X145242716Y-50738461D01*
X145108286Y-50553434D01*
X144946566Y-50391714D01*
X144761538Y-50257283D01*
X144590950Y-50170364D01*
X144557755Y-50153450D01*
X144340248Y-50082778D01*
X144170826Y-50055944D01*
X144114354Y-50047000D01*
X143885646Y-50047000D01*
X143810349Y-50058926D01*
X143659753Y-50082778D01*
X143659750Y-50082778D01*
X143442244Y-50153450D01*
X143238461Y-50257283D01*
X143149749Y-50321737D01*
X143053434Y-50391714D01*
X143053432Y-50391716D01*
X143053431Y-50391716D01*
X142891716Y-50553431D01*
X142891716Y-50553432D01*
X142891714Y-50553434D01*
X142882411Y-50566239D01*
X142757283Y-50738461D01*
X142653450Y-50942244D01*
X142582778Y-51159750D01*
X142582778Y-51159753D01*
X142547000Y-51385646D01*
X130453000Y-51385646D01*
X130417222Y-51159755D01*
X130417221Y-51159751D01*
X130417221Y-51159750D01*
X130346549Y-50942244D01*
X130242716Y-50738461D01*
X130108286Y-50553434D01*
X129946566Y-50391714D01*
X129761538Y-50257283D01*
X129590950Y-50170364D01*
X129557755Y-50153450D01*
X129340248Y-50082778D01*
X129170826Y-50055944D01*
X129114354Y-50047000D01*
X128885646Y-50047000D01*
X128810349Y-50058926D01*
X128659753Y-50082778D01*
X128659750Y-50082778D01*
X128442244Y-50153450D01*
X128238461Y-50257283D01*
X128149749Y-50321737D01*
X128053434Y-50391714D01*
X128053432Y-50391716D01*
X128053431Y-50391716D01*
X127891716Y-50553431D01*
X127891716Y-50553432D01*
X127891714Y-50553434D01*
X127882411Y-50566239D01*
X127757283Y-50738461D01*
X127653450Y-50942244D01*
X127582778Y-51159750D01*
X127582778Y-51159753D01*
X127547000Y-51385646D01*
X105609524Y-51385646D01*
X105754792Y-51280104D01*
X105905104Y-51129792D01*
X105905106Y-51129788D01*
X105905109Y-51129786D01*
X106030048Y-50957820D01*
X106030047Y-50957820D01*
X106030051Y-50957816D01*
X106126557Y-50768412D01*
X106192246Y-50566243D01*
X106225500Y-50356287D01*
X106225500Y-50143713D01*
X106201101Y-49989668D01*
X109232300Y-49989668D01*
X109232300Y-50170331D01*
X109260559Y-50348750D01*
X109316386Y-50520566D01*
X109398401Y-50681529D01*
X109409558Y-50696886D01*
X109409559Y-50696886D01*
X109986300Y-50120145D01*
X109986300Y-50131832D01*
X110013130Y-50231962D01*
X110064962Y-50321737D01*
X110138263Y-50395038D01*
X110228038Y-50446870D01*
X110328168Y-50473700D01*
X110339853Y-50473700D01*
X109763112Y-51050438D01*
X109763112Y-51050439D01*
X109778477Y-51061602D01*
X109939433Y-51143613D01*
X110111249Y-51199440D01*
X110278935Y-51226000D01*
X110481064Y-51226000D01*
X110648750Y-51199440D01*
X110820566Y-51143613D01*
X110981528Y-51061599D01*
X110981532Y-51061597D01*
X110996886Y-51050440D01*
X110996887Y-51050439D01*
X110420148Y-50473700D01*
X110431832Y-50473700D01*
X110531962Y-50446870D01*
X110621737Y-50395038D01*
X110695038Y-50321737D01*
X110746870Y-50231962D01*
X110773700Y-50131832D01*
X110773700Y-50120147D01*
X111350439Y-50696887D01*
X111350440Y-50696886D01*
X111361597Y-50681532D01*
X111361599Y-50681528D01*
X111443613Y-50520566D01*
X111499440Y-50348750D01*
X111527700Y-50170331D01*
X111527700Y-49989668D01*
X111527695Y-49989635D01*
X116851800Y-49989635D01*
X116851800Y-50170364D01*
X116880053Y-50348750D01*
X116880073Y-50348871D01*
X116935922Y-50520756D01*
X117017840Y-50681529D01*
X117017974Y-50681791D01*
X117124196Y-50827996D01*
X117252003Y-50955803D01*
X117382260Y-51050438D01*
X117398212Y-51062028D01*
X117559244Y-51144078D01*
X117731129Y-51199927D01*
X117909635Y-51228200D01*
X118090365Y-51228200D01*
X118268871Y-51199927D01*
X118440756Y-51144078D01*
X118601788Y-51062028D01*
X118683879Y-51002385D01*
X118747996Y-50955803D01*
X118747998Y-50955800D01*
X118748002Y-50955798D01*
X118875798Y-50828002D01*
X118875800Y-50827998D01*
X118875803Y-50827996D01*
X118940853Y-50738461D01*
X118982028Y-50681788D01*
X119064078Y-50520756D01*
X119119927Y-50348871D01*
X119148200Y-50170365D01*
X119148200Y-49989635D01*
X119119927Y-49811129D01*
X119064078Y-49639244D01*
X118982028Y-49478212D01*
X118971057Y-49463112D01*
X118875803Y-49332003D01*
X118747996Y-49204196D01*
X118601791Y-49097974D01*
X118601790Y-49097973D01*
X118601788Y-49097972D01*
X118440756Y-49015922D01*
X118268871Y-48960073D01*
X118268869Y-48960072D01*
X118268867Y-48960072D01*
X118155420Y-48942103D01*
X118090365Y-48931800D01*
X117909635Y-48931800D01*
X117895745Y-48934000D01*
X117731132Y-48960072D01*
X117559241Y-49015923D01*
X117398208Y-49097974D01*
X117252003Y-49204196D01*
X117124196Y-49332003D01*
X117017974Y-49478208D01*
X116935923Y-49639241D01*
X116880072Y-49811132D01*
X116851800Y-49989635D01*
X111527695Y-49989635D01*
X111499440Y-49811249D01*
X111443613Y-49639433D01*
X111361602Y-49478477D01*
X111350439Y-49463112D01*
X110773700Y-50039851D01*
X110773700Y-50028168D01*
X110746870Y-49928038D01*
X110695038Y-49838263D01*
X110621737Y-49764962D01*
X110531962Y-49713130D01*
X110431832Y-49686300D01*
X110420147Y-49686300D01*
X110996886Y-49109559D01*
X110996886Y-49109558D01*
X110981529Y-49098401D01*
X110820566Y-49016386D01*
X110648750Y-48960559D01*
X110648752Y-48960559D01*
X110482658Y-48934252D01*
X110277341Y-48934252D01*
X110111248Y-48960559D01*
X109939433Y-49016386D01*
X109778476Y-49098397D01*
X109778472Y-49098400D01*
X109763112Y-49109558D01*
X109763112Y-49109559D01*
X110339854Y-49686300D01*
X110328168Y-49686300D01*
X110228038Y-49713130D01*
X110138263Y-49764962D01*
X110064962Y-49838263D01*
X110013130Y-49928038D01*
X109986300Y-50028168D01*
X109986300Y-50039853D01*
X109409559Y-49463112D01*
X109409558Y-49463112D01*
X109398400Y-49478472D01*
X109398397Y-49478476D01*
X109316386Y-49639433D01*
X109260559Y-49811249D01*
X109232300Y-49989668D01*
X106201101Y-49989668D01*
X106192246Y-49933757D01*
X106126557Y-49731588D01*
X106030051Y-49542184D01*
X106030049Y-49542181D01*
X106030048Y-49542179D01*
X105905109Y-49370213D01*
X105754792Y-49219896D01*
X105733191Y-49204202D01*
X105590204Y-49100316D01*
X105547540Y-49044989D01*
X105541561Y-48975376D01*
X105574166Y-48913580D01*
X105590199Y-48899686D01*
X105754792Y-48780104D01*
X105905104Y-48629792D01*
X105905106Y-48629788D01*
X105905109Y-48629786D01*
X106030048Y-48457820D01*
X106030047Y-48457820D01*
X106030051Y-48457816D01*
X106126557Y-48268412D01*
X106192246Y-48066243D01*
X106225500Y-47856287D01*
X106225500Y-47643713D01*
X106194761Y-47449635D01*
X109231800Y-47449635D01*
X109231800Y-47630365D01*
X109260073Y-47808871D01*
X109275479Y-47856287D01*
X109315923Y-47980758D01*
X109397974Y-48141791D01*
X109504196Y-48287996D01*
X109632003Y-48415803D01*
X109768817Y-48515202D01*
X109778212Y-48522028D01*
X109939244Y-48604078D01*
X110111129Y-48659927D01*
X110289635Y-48688200D01*
X110470365Y-48688200D01*
X110648871Y-48659927D01*
X110820756Y-48604078D01*
X110981788Y-48522028D01*
X111070169Y-48457816D01*
X111127996Y-48415803D01*
X111127998Y-48415800D01*
X111128002Y-48415798D01*
X111255798Y-48288002D01*
X111255800Y-48287998D01*
X111255803Y-48287996D01*
X111302385Y-48223879D01*
X111362028Y-48141788D01*
X111444078Y-47980756D01*
X111499927Y-47808871D01*
X111528200Y-47630365D01*
X111528200Y-47449635D01*
X116851800Y-47449635D01*
X116851800Y-47630365D01*
X116880073Y-47808871D01*
X116895479Y-47856287D01*
X116935923Y-47980758D01*
X117017974Y-48141791D01*
X117124196Y-48287996D01*
X117252003Y-48415803D01*
X117388817Y-48515202D01*
X117398212Y-48522028D01*
X117559244Y-48604078D01*
X117731129Y-48659927D01*
X117909635Y-48688200D01*
X118090365Y-48688200D01*
X118268871Y-48659927D01*
X118440756Y-48604078D01*
X118601788Y-48522028D01*
X118690169Y-48457816D01*
X118747996Y-48415803D01*
X118747998Y-48415800D01*
X118748002Y-48415798D01*
X118875798Y-48288002D01*
X118875800Y-48287998D01*
X118875803Y-48287996D01*
X118922385Y-48223879D01*
X118982028Y-48141788D01*
X119064078Y-47980756D01*
X119119927Y-47808871D01*
X119148200Y-47630365D01*
X119148200Y-47449635D01*
X119119927Y-47271129D01*
X119064078Y-47099244D01*
X118982028Y-46938212D01*
X118968312Y-46919333D01*
X118875803Y-46792003D01*
X118747996Y-46664196D01*
X118601791Y-46557974D01*
X118601790Y-46557973D01*
X118601788Y-46557972D01*
X118440756Y-46475922D01*
X118268871Y-46420073D01*
X118268869Y-46420072D01*
X118268867Y-46420072D01*
X118140123Y-46399681D01*
X118090365Y-46391800D01*
X117909635Y-46391800D01*
X117895745Y-46394000D01*
X117731132Y-46420072D01*
X117559241Y-46475923D01*
X117398208Y-46557974D01*
X117252003Y-46664196D01*
X117124196Y-46792003D01*
X117017974Y-46938208D01*
X116935923Y-47099241D01*
X116880072Y-47271132D01*
X116869941Y-47335098D01*
X116851800Y-47449635D01*
X111528200Y-47449635D01*
X111499927Y-47271129D01*
X111444078Y-47099244D01*
X111362028Y-46938212D01*
X111348312Y-46919333D01*
X111255803Y-46792003D01*
X111127996Y-46664196D01*
X110981791Y-46557974D01*
X110981790Y-46557973D01*
X110981788Y-46557972D01*
X110820756Y-46475922D01*
X110648871Y-46420073D01*
X110648869Y-46420072D01*
X110648867Y-46420072D01*
X110520123Y-46399681D01*
X110470365Y-46391800D01*
X110289635Y-46391800D01*
X110275745Y-46394000D01*
X110111132Y-46420072D01*
X109939241Y-46475923D01*
X109778208Y-46557974D01*
X109632003Y-46664196D01*
X109504196Y-46792003D01*
X109397974Y-46938208D01*
X109315923Y-47099241D01*
X109260072Y-47271132D01*
X109249941Y-47335098D01*
X109231800Y-47449635D01*
X106194761Y-47449635D01*
X106192246Y-47433757D01*
X106126557Y-47231588D01*
X106030051Y-47042184D01*
X106030049Y-47042181D01*
X106030048Y-47042179D01*
X105905109Y-46870213D01*
X105754792Y-46719896D01*
X105754784Y-46719890D01*
X105590204Y-46600316D01*
X105547540Y-46544989D01*
X105541561Y-46475376D01*
X105574166Y-46413580D01*
X105590199Y-46399686D01*
X105609469Y-46385686D01*
X127547500Y-46385686D01*
X127547500Y-46614313D01*
X127583265Y-46840124D01*
X127583265Y-46840125D01*
X127653917Y-47057568D01*
X127757711Y-47261276D01*
X127811347Y-47335098D01*
X127811347Y-47335099D01*
X128557861Y-46588584D01*
X128580667Y-46673694D01*
X128639910Y-46776306D01*
X128723694Y-46860090D01*
X128826306Y-46919333D01*
X128911414Y-46942137D01*
X128164899Y-47688651D01*
X128238725Y-47742288D01*
X128238731Y-47742292D01*
X128442431Y-47846082D01*
X128659875Y-47916734D01*
X128885687Y-47952500D01*
X129114313Y-47952500D01*
X129340124Y-47916734D01*
X129340125Y-47916734D01*
X129557568Y-47846082D01*
X129761276Y-47742288D01*
X129835098Y-47688651D01*
X129088585Y-46942138D01*
X129173694Y-46919333D01*
X129276306Y-46860090D01*
X129360090Y-46776306D01*
X129419333Y-46673694D01*
X129442137Y-46588585D01*
X130188651Y-47335099D01*
X130188651Y-47335098D01*
X130242288Y-47261276D01*
X130346082Y-47057568D01*
X130416734Y-46840125D01*
X130416734Y-46840124D01*
X130452500Y-46614313D01*
X130452500Y-46385686D01*
X142547500Y-46385686D01*
X142547500Y-46614313D01*
X142583265Y-46840124D01*
X142583265Y-46840125D01*
X142653917Y-47057568D01*
X142757711Y-47261276D01*
X142811347Y-47335098D01*
X142811347Y-47335099D01*
X143557861Y-46588584D01*
X143580667Y-46673694D01*
X143639910Y-46776306D01*
X143723694Y-46860090D01*
X143826306Y-46919333D01*
X143911414Y-46942137D01*
X143164899Y-47688651D01*
X143238725Y-47742288D01*
X143238731Y-47742292D01*
X143442431Y-47846082D01*
X143659875Y-47916734D01*
X143885687Y-47952500D01*
X144114313Y-47952500D01*
X144340124Y-47916734D01*
X144340125Y-47916734D01*
X144557568Y-47846082D01*
X144761276Y-47742288D01*
X144835098Y-47688651D01*
X144088585Y-46942138D01*
X144173694Y-46919333D01*
X144276306Y-46860090D01*
X144360090Y-46776306D01*
X144419333Y-46673694D01*
X144442137Y-46588585D01*
X145188651Y-47335099D01*
X145188651Y-47335098D01*
X145242288Y-47261276D01*
X145346082Y-47057568D01*
X145416734Y-46840125D01*
X145416734Y-46840124D01*
X145452500Y-46614313D01*
X145452500Y-46385686D01*
X157547500Y-46385686D01*
X157547500Y-46614313D01*
X157583265Y-46840124D01*
X157583265Y-46840125D01*
X157653917Y-47057568D01*
X157757711Y-47261276D01*
X157811347Y-47335098D01*
X157811347Y-47335099D01*
X158557861Y-46588584D01*
X158580667Y-46673694D01*
X158639910Y-46776306D01*
X158723694Y-46860090D01*
X158826306Y-46919333D01*
X158911414Y-46942137D01*
X158164899Y-47688651D01*
X158238725Y-47742288D01*
X158238731Y-47742292D01*
X158442431Y-47846082D01*
X158659875Y-47916734D01*
X158885687Y-47952500D01*
X159114313Y-47952500D01*
X159340124Y-47916734D01*
X159340125Y-47916734D01*
X159557568Y-47846082D01*
X159761276Y-47742288D01*
X159835098Y-47688651D01*
X159088585Y-46942138D01*
X159173694Y-46919333D01*
X159276306Y-46860090D01*
X159360090Y-46776306D01*
X159419333Y-46673694D01*
X159442137Y-46588585D01*
X160188651Y-47335099D01*
X160188651Y-47335098D01*
X160242288Y-47261276D01*
X160346082Y-47057568D01*
X160416734Y-46840125D01*
X160416734Y-46840124D01*
X160452500Y-46614313D01*
X160452500Y-46385686D01*
X172547500Y-46385686D01*
X172547500Y-46614313D01*
X172583265Y-46840124D01*
X172583265Y-46840125D01*
X172653917Y-47057568D01*
X172757711Y-47261276D01*
X172811347Y-47335098D01*
X172811347Y-47335099D01*
X173557861Y-46588584D01*
X173580667Y-46673694D01*
X173639910Y-46776306D01*
X173723694Y-46860090D01*
X173826306Y-46919333D01*
X173911414Y-46942137D01*
X173164899Y-47688651D01*
X173238725Y-47742288D01*
X173238731Y-47742292D01*
X173442431Y-47846082D01*
X173659875Y-47916734D01*
X173885687Y-47952500D01*
X174114313Y-47952500D01*
X174340124Y-47916734D01*
X174340125Y-47916734D01*
X174557568Y-47846082D01*
X174761276Y-47742288D01*
X174835098Y-47688651D01*
X174088585Y-46942138D01*
X174173694Y-46919333D01*
X174276306Y-46860090D01*
X174360090Y-46776306D01*
X174419333Y-46673694D01*
X174442138Y-46588585D01*
X175188651Y-47335098D01*
X175242288Y-47261276D01*
X175346082Y-47057568D01*
X175416734Y-46840125D01*
X175416734Y-46840124D01*
X175452500Y-46614313D01*
X175452500Y-46385686D01*
X187547500Y-46385686D01*
X187547500Y-46614313D01*
X187583265Y-46840124D01*
X187583265Y-46840125D01*
X187653917Y-47057568D01*
X187757711Y-47261276D01*
X187811347Y-47335098D01*
X187811347Y-47335099D01*
X188557861Y-46588584D01*
X188580667Y-46673694D01*
X188639910Y-46776306D01*
X188723694Y-46860090D01*
X188826306Y-46919333D01*
X188911414Y-46942137D01*
X188164899Y-47688651D01*
X188238725Y-47742288D01*
X188238731Y-47742292D01*
X188442431Y-47846082D01*
X188659875Y-47916734D01*
X188885687Y-47952500D01*
X189114313Y-47952500D01*
X189340124Y-47916734D01*
X189340125Y-47916734D01*
X189557568Y-47846082D01*
X189761276Y-47742288D01*
X189835098Y-47688651D01*
X189088585Y-46942138D01*
X189173694Y-46919333D01*
X189276306Y-46860090D01*
X189360090Y-46776306D01*
X189419333Y-46673694D01*
X189442137Y-46588585D01*
X190188651Y-47335099D01*
X190188651Y-47335098D01*
X190242288Y-47261276D01*
X190346082Y-47057568D01*
X190416734Y-46840125D01*
X190416734Y-46840124D01*
X190452500Y-46614313D01*
X190452500Y-46385686D01*
X190416734Y-46159875D01*
X190416734Y-46159874D01*
X190346082Y-45942431D01*
X190242292Y-45738731D01*
X190242288Y-45738725D01*
X190188651Y-45664900D01*
X190188651Y-45664899D01*
X189442137Y-46411414D01*
X189419333Y-46326306D01*
X189360090Y-46223694D01*
X189276306Y-46139910D01*
X189173694Y-46080667D01*
X189088583Y-46057861D01*
X189835099Y-45311347D01*
X189761276Y-45257711D01*
X189557568Y-45153917D01*
X189340124Y-45083265D01*
X189114313Y-45047500D01*
X188885687Y-45047500D01*
X188659875Y-45083265D01*
X188659874Y-45083265D01*
X188442431Y-45153917D01*
X188238719Y-45257713D01*
X188164900Y-45311346D01*
X188164899Y-45311347D01*
X188911414Y-46057861D01*
X188826306Y-46080667D01*
X188723694Y-46139910D01*
X188639910Y-46223694D01*
X188580667Y-46326306D01*
X188557861Y-46411414D01*
X187811347Y-45664899D01*
X187811346Y-45664900D01*
X187757713Y-45738719D01*
X187653917Y-45942431D01*
X187583265Y-46159874D01*
X187583265Y-46159875D01*
X187547500Y-46385686D01*
X175452500Y-46385686D01*
X175416734Y-46159875D01*
X175416734Y-46159874D01*
X175346082Y-45942431D01*
X175242292Y-45738731D01*
X175242288Y-45738725D01*
X175188651Y-45664900D01*
X175188651Y-45664899D01*
X174442137Y-46411414D01*
X174419333Y-46326306D01*
X174360090Y-46223694D01*
X174276306Y-46139910D01*
X174173694Y-46080667D01*
X174088583Y-46057861D01*
X174835099Y-45311347D01*
X174761276Y-45257711D01*
X174557568Y-45153917D01*
X174340124Y-45083265D01*
X174114313Y-45047500D01*
X173885687Y-45047500D01*
X173659875Y-45083265D01*
X173659874Y-45083265D01*
X173442431Y-45153917D01*
X173238719Y-45257713D01*
X173164900Y-45311346D01*
X173164899Y-45311347D01*
X173911414Y-46057861D01*
X173826306Y-46080667D01*
X173723694Y-46139910D01*
X173639910Y-46223694D01*
X173580667Y-46326306D01*
X173557861Y-46411414D01*
X172811347Y-45664899D01*
X172811346Y-45664900D01*
X172757713Y-45738719D01*
X172653917Y-45942431D01*
X172583265Y-46159874D01*
X172583265Y-46159875D01*
X172547500Y-46385686D01*
X160452500Y-46385686D01*
X160416734Y-46159875D01*
X160416734Y-46159874D01*
X160346082Y-45942431D01*
X160242292Y-45738731D01*
X160242288Y-45738725D01*
X160188651Y-45664900D01*
X160188651Y-45664899D01*
X159442137Y-46411414D01*
X159419333Y-46326306D01*
X159360090Y-46223694D01*
X159276306Y-46139910D01*
X159173694Y-46080667D01*
X159088583Y-46057861D01*
X159835099Y-45311347D01*
X159761276Y-45257711D01*
X159557568Y-45153917D01*
X159340124Y-45083265D01*
X159114313Y-45047500D01*
X158885687Y-45047500D01*
X158659875Y-45083265D01*
X158659874Y-45083265D01*
X158442431Y-45153917D01*
X158238719Y-45257713D01*
X158164900Y-45311346D01*
X158164899Y-45311347D01*
X158911414Y-46057861D01*
X158826306Y-46080667D01*
X158723694Y-46139910D01*
X158639910Y-46223694D01*
X158580667Y-46326306D01*
X158557861Y-46411414D01*
X157811347Y-45664899D01*
X157811346Y-45664900D01*
X157757713Y-45738719D01*
X157653917Y-45942431D01*
X157583265Y-46159874D01*
X157583265Y-46159875D01*
X157547500Y-46385686D01*
X145452500Y-46385686D01*
X145416734Y-46159875D01*
X145416734Y-46159874D01*
X145346082Y-45942431D01*
X145242292Y-45738731D01*
X145242288Y-45738725D01*
X145188651Y-45664900D01*
X145188651Y-45664899D01*
X144442137Y-46411414D01*
X144419333Y-46326306D01*
X144360090Y-46223694D01*
X144276306Y-46139910D01*
X144173694Y-46080667D01*
X144088583Y-46057861D01*
X144835099Y-45311347D01*
X144761276Y-45257711D01*
X144557568Y-45153917D01*
X144340124Y-45083265D01*
X144114313Y-45047500D01*
X143885687Y-45047500D01*
X143659875Y-45083265D01*
X143659874Y-45083265D01*
X143442431Y-45153917D01*
X143238719Y-45257713D01*
X143164900Y-45311346D01*
X143164899Y-45311347D01*
X143911414Y-46057861D01*
X143826306Y-46080667D01*
X143723694Y-46139910D01*
X143639910Y-46223694D01*
X143580667Y-46326306D01*
X143557861Y-46411414D01*
X142811347Y-45664899D01*
X142811346Y-45664900D01*
X142757713Y-45738719D01*
X142653917Y-45942431D01*
X142583265Y-46159874D01*
X142583265Y-46159875D01*
X142547500Y-46385686D01*
X130452500Y-46385686D01*
X130416734Y-46159875D01*
X130416734Y-46159874D01*
X130346082Y-45942431D01*
X130242292Y-45738731D01*
X130242288Y-45738725D01*
X130188651Y-45664900D01*
X130188651Y-45664899D01*
X129442137Y-46411414D01*
X129419333Y-46326306D01*
X129360090Y-46223694D01*
X129276306Y-46139910D01*
X129173694Y-46080667D01*
X129088583Y-46057861D01*
X129835099Y-45311347D01*
X129761276Y-45257711D01*
X129557568Y-45153917D01*
X129340124Y-45083265D01*
X129114313Y-45047500D01*
X128885687Y-45047500D01*
X128659875Y-45083265D01*
X128659874Y-45083265D01*
X128442431Y-45153917D01*
X128238719Y-45257713D01*
X128164900Y-45311346D01*
X128164899Y-45311347D01*
X128911414Y-46057861D01*
X128826306Y-46080667D01*
X128723694Y-46139910D01*
X128639910Y-46223694D01*
X128580667Y-46326306D01*
X128557861Y-46411414D01*
X127811347Y-45664899D01*
X127811346Y-45664900D01*
X127757713Y-45738719D01*
X127653917Y-45942431D01*
X127583265Y-46159874D01*
X127583265Y-46159875D01*
X127547500Y-46385686D01*
X105609469Y-46385686D01*
X105754792Y-46280104D01*
X105905104Y-46129792D01*
X105905106Y-46129788D01*
X105905109Y-46129786D01*
X106030048Y-45957820D01*
X106030047Y-45957820D01*
X106030051Y-45957816D01*
X106126557Y-45768412D01*
X106192246Y-45566243D01*
X106225500Y-45356287D01*
X106225500Y-45143713D01*
X106192246Y-44933757D01*
X106126557Y-44731588D01*
X106030051Y-44542184D01*
X106030049Y-44542181D01*
X106030048Y-44542179D01*
X105905109Y-44370213D01*
X105754786Y-44219890D01*
X105582820Y-44094951D01*
X105393414Y-43998444D01*
X105393413Y-43998443D01*
X105393412Y-43998443D01*
X105191243Y-43932754D01*
X105191241Y-43932753D01*
X105191240Y-43932753D01*
X105029957Y-43907208D01*
X104981287Y-43899500D01*
X104518713Y-43899500D01*
X104470042Y-43907208D01*
X104308760Y-43932753D01*
X104106585Y-43998444D01*
X103917179Y-44094951D01*
X103745213Y-44219890D01*
X103594890Y-44370213D01*
X103469951Y-44542179D01*
X103373444Y-44731585D01*
X103307753Y-44933760D01*
X103274500Y-45143713D01*
X100500500Y-45143713D01*
X100500500Y-41764435D01*
X109231800Y-41764435D01*
X109231800Y-43155570D01*
X109231801Y-43155576D01*
X109238208Y-43215183D01*
X109288502Y-43350028D01*
X109288506Y-43350035D01*
X109374752Y-43465244D01*
X109374755Y-43465247D01*
X109489964Y-43551493D01*
X109489971Y-43551497D01*
X109624817Y-43601791D01*
X109624816Y-43601791D01*
X109631744Y-43602535D01*
X109684427Y-43608200D01*
X110252103Y-43608199D01*
X110319140Y-43627883D01*
X110364895Y-43680687D01*
X110374839Y-43749846D01*
X110345814Y-43813402D01*
X110287036Y-43851176D01*
X110271499Y-43854672D01*
X110111132Y-43880072D01*
X109939241Y-43935923D01*
X109778208Y-44017974D01*
X109632003Y-44124196D01*
X109504196Y-44252003D01*
X109397974Y-44398208D01*
X109315923Y-44559241D01*
X109260072Y-44731132D01*
X109231800Y-44909635D01*
X109231800Y-45090364D01*
X109258305Y-45257713D01*
X109260073Y-45268871D01*
X109288476Y-45356287D01*
X109315923Y-45440758D01*
X109397974Y-45601791D01*
X109504196Y-45747996D01*
X109632003Y-45875803D01*
X109744892Y-45957820D01*
X109778212Y-45982028D01*
X109939244Y-46064078D01*
X110111129Y-46119927D01*
X110289635Y-46148200D01*
X110470365Y-46148200D01*
X110648871Y-46119927D01*
X110820756Y-46064078D01*
X110981788Y-45982028D01*
X111063879Y-45922385D01*
X111127996Y-45875803D01*
X111127998Y-45875800D01*
X111128002Y-45875798D01*
X111255798Y-45748002D01*
X111255800Y-45747998D01*
X111255803Y-45747996D01*
X111316175Y-45664899D01*
X111362028Y-45601788D01*
X111444078Y-45440756D01*
X111499927Y-45268871D01*
X111528200Y-45090365D01*
X111528200Y-44909635D01*
X116851800Y-44909635D01*
X116851800Y-45090364D01*
X116878305Y-45257713D01*
X116880073Y-45268871D01*
X116908476Y-45356287D01*
X116935923Y-45440758D01*
X117017974Y-45601791D01*
X117124196Y-45747996D01*
X117252003Y-45875803D01*
X117364892Y-45957820D01*
X117398212Y-45982028D01*
X117559244Y-46064078D01*
X117731129Y-46119927D01*
X117909635Y-46148200D01*
X118090365Y-46148200D01*
X118268871Y-46119927D01*
X118440756Y-46064078D01*
X118601788Y-45982028D01*
X118683879Y-45922385D01*
X118747996Y-45875803D01*
X118747998Y-45875800D01*
X118748002Y-45875798D01*
X118875798Y-45748002D01*
X118875800Y-45747998D01*
X118875803Y-45747996D01*
X118936175Y-45664899D01*
X118982028Y-45601788D01*
X119064078Y-45440756D01*
X119119927Y-45268871D01*
X119148200Y-45090365D01*
X119148200Y-44909635D01*
X119119927Y-44731129D01*
X119064078Y-44559244D01*
X118982028Y-44398212D01*
X118886214Y-44266335D01*
X121813700Y-44266335D01*
X121813700Y-45733670D01*
X121813701Y-45733676D01*
X121820108Y-45793283D01*
X121870402Y-45928128D01*
X121870406Y-45928135D01*
X121956652Y-46043344D01*
X121956655Y-46043347D01*
X122071864Y-46129593D01*
X122071871Y-46129597D01*
X122206717Y-46179891D01*
X122206716Y-46179891D01*
X122213644Y-46180635D01*
X122266327Y-46186300D01*
X123733672Y-46186299D01*
X123793283Y-46179891D01*
X123928131Y-46129596D01*
X124043346Y-46043346D01*
X124129596Y-45928131D01*
X124179891Y-45793283D01*
X124186300Y-45733673D01*
X124186299Y-44933760D01*
X124186299Y-44424335D01*
X136813700Y-44424335D01*
X136813700Y-45891670D01*
X136813701Y-45891676D01*
X136820108Y-45951283D01*
X136870402Y-46086128D01*
X136870406Y-46086135D01*
X136956652Y-46201344D01*
X136956655Y-46201347D01*
X137071864Y-46287593D01*
X137071871Y-46287597D01*
X137206717Y-46337891D01*
X137206716Y-46337891D01*
X137213644Y-46338635D01*
X137266327Y-46344300D01*
X138733672Y-46344299D01*
X138793283Y-46337891D01*
X138928131Y-46287596D01*
X139043346Y-46201346D01*
X139129596Y-46086131D01*
X139179891Y-45951283D01*
X139186300Y-45891673D01*
X139186299Y-45153917D01*
X139186299Y-44424335D01*
X151813700Y-44424335D01*
X151813700Y-45891670D01*
X151813701Y-45891676D01*
X151820108Y-45951283D01*
X151870402Y-46086128D01*
X151870406Y-46086135D01*
X151956652Y-46201344D01*
X151956655Y-46201347D01*
X152071864Y-46287593D01*
X152071871Y-46287597D01*
X152206717Y-46337891D01*
X152206716Y-46337891D01*
X152213644Y-46338635D01*
X152266327Y-46344300D01*
X153733672Y-46344299D01*
X153793283Y-46337891D01*
X153928131Y-46287596D01*
X154043346Y-46201346D01*
X154129596Y-46086131D01*
X154179891Y-45951283D01*
X154186300Y-45891673D01*
X154186299Y-45153917D01*
X154186299Y-44424335D01*
X166813700Y-44424335D01*
X166813700Y-45891670D01*
X166813701Y-45891676D01*
X166820108Y-45951283D01*
X166870402Y-46086128D01*
X166870406Y-46086135D01*
X166956652Y-46201344D01*
X166956655Y-46201347D01*
X167071864Y-46287593D01*
X167071871Y-46287597D01*
X167206717Y-46337891D01*
X167206716Y-46337891D01*
X167213644Y-46338635D01*
X167266327Y-46344300D01*
X168733672Y-46344299D01*
X168793283Y-46337891D01*
X168928131Y-46287596D01*
X169043346Y-46201346D01*
X169129596Y-46086131D01*
X169179891Y-45951283D01*
X169186300Y-45891673D01*
X169186299Y-45153917D01*
X169186299Y-44424335D01*
X181813700Y-44424335D01*
X181813700Y-45891670D01*
X181813701Y-45891676D01*
X181820108Y-45951283D01*
X181870402Y-46086128D01*
X181870406Y-46086135D01*
X181956652Y-46201344D01*
X181956655Y-46201347D01*
X182071864Y-46287593D01*
X182071871Y-46287597D01*
X182206717Y-46337891D01*
X182206716Y-46337891D01*
X182213644Y-46338635D01*
X182266327Y-46344300D01*
X183733672Y-46344299D01*
X183793283Y-46337891D01*
X183928131Y-46287596D01*
X184043346Y-46201346D01*
X184129596Y-46086131D01*
X184179891Y-45951283D01*
X184186300Y-45891673D01*
X184186299Y-45153917D01*
X184186299Y-44424329D01*
X184186298Y-44424323D01*
X184186297Y-44424316D01*
X184179891Y-44364717D01*
X184143194Y-44266328D01*
X184129597Y-44229871D01*
X184129593Y-44229864D01*
X184043347Y-44114655D01*
X184043344Y-44114652D01*
X183928135Y-44028406D01*
X183928128Y-44028402D01*
X183793282Y-43978108D01*
X183793283Y-43978108D01*
X183733683Y-43971701D01*
X183733681Y-43971700D01*
X183733673Y-43971700D01*
X183733664Y-43971700D01*
X182266329Y-43971700D01*
X182266323Y-43971701D01*
X182206716Y-43978108D01*
X182071871Y-44028402D01*
X182071864Y-44028406D01*
X181956655Y-44114652D01*
X181956652Y-44114655D01*
X181870406Y-44229864D01*
X181870402Y-44229871D01*
X181820108Y-44364717D01*
X181814057Y-44421006D01*
X181813701Y-44424323D01*
X181813700Y-44424335D01*
X169186299Y-44424335D01*
X169186299Y-44424330D01*
X169186298Y-44424322D01*
X169186297Y-44424316D01*
X169179891Y-44364717D01*
X169143194Y-44266328D01*
X169129597Y-44229871D01*
X169129593Y-44229864D01*
X169043347Y-44114655D01*
X169043344Y-44114652D01*
X168928135Y-44028406D01*
X168928128Y-44028402D01*
X168793282Y-43978108D01*
X168793283Y-43978108D01*
X168733683Y-43971701D01*
X168733681Y-43971700D01*
X168733673Y-43971700D01*
X168733664Y-43971700D01*
X167266329Y-43971700D01*
X167266323Y-43971701D01*
X167206716Y-43978108D01*
X167071871Y-44028402D01*
X167071864Y-44028406D01*
X166956655Y-44114652D01*
X166956652Y-44114655D01*
X166870406Y-44229864D01*
X166870402Y-44229871D01*
X166820108Y-44364717D01*
X166814057Y-44421006D01*
X166813701Y-44424323D01*
X166813700Y-44424335D01*
X154186299Y-44424335D01*
X154186299Y-44424330D01*
X154186298Y-44424322D01*
X154186297Y-44424316D01*
X154179891Y-44364717D01*
X154143194Y-44266328D01*
X154129597Y-44229871D01*
X154129593Y-44229864D01*
X154043347Y-44114655D01*
X154043344Y-44114652D01*
X153928135Y-44028406D01*
X153928128Y-44028402D01*
X153793282Y-43978108D01*
X153793283Y-43978108D01*
X153733683Y-43971701D01*
X153733681Y-43971700D01*
X153733673Y-43971700D01*
X153733664Y-43971700D01*
X152266329Y-43971700D01*
X152266323Y-43971701D01*
X152206716Y-43978108D01*
X152071871Y-44028402D01*
X152071864Y-44028406D01*
X151956655Y-44114652D01*
X151956652Y-44114655D01*
X151870406Y-44229864D01*
X151870402Y-44229871D01*
X151820108Y-44364717D01*
X151814057Y-44421006D01*
X151813701Y-44424323D01*
X151813700Y-44424335D01*
X139186299Y-44424335D01*
X139186299Y-44424330D01*
X139186298Y-44424322D01*
X139186297Y-44424316D01*
X139179891Y-44364717D01*
X139143194Y-44266328D01*
X139129597Y-44229871D01*
X139129593Y-44229864D01*
X139043347Y-44114655D01*
X139043344Y-44114652D01*
X138928135Y-44028406D01*
X138928128Y-44028402D01*
X138793282Y-43978108D01*
X138793283Y-43978108D01*
X138733683Y-43971701D01*
X138733681Y-43971700D01*
X138733673Y-43971700D01*
X138733664Y-43971700D01*
X137266329Y-43971700D01*
X137266323Y-43971701D01*
X137206716Y-43978108D01*
X137071871Y-44028402D01*
X137071864Y-44028406D01*
X136956655Y-44114652D01*
X136956652Y-44114655D01*
X136870406Y-44229864D01*
X136870402Y-44229871D01*
X136820108Y-44364717D01*
X136814057Y-44421006D01*
X136813701Y-44424323D01*
X136813700Y-44424335D01*
X124186299Y-44424335D01*
X124186299Y-44421006D01*
X124186299Y-44266329D01*
X124186298Y-44266323D01*
X124186297Y-44266316D01*
X124179891Y-44206717D01*
X124138204Y-44094949D01*
X124129597Y-44071871D01*
X124129593Y-44071864D01*
X124043347Y-43956655D01*
X124043344Y-43956652D01*
X123928135Y-43870406D01*
X123928128Y-43870402D01*
X123793282Y-43820108D01*
X123793283Y-43820108D01*
X123733683Y-43813701D01*
X123733681Y-43813700D01*
X123733673Y-43813700D01*
X123733664Y-43813700D01*
X122266329Y-43813700D01*
X122266323Y-43813701D01*
X122206716Y-43820108D01*
X122071871Y-43870402D01*
X122071864Y-43870406D01*
X121956655Y-43956652D01*
X121956652Y-43956655D01*
X121870406Y-44071864D01*
X121870402Y-44071871D01*
X121820108Y-44206717D01*
X121815240Y-44252003D01*
X121813701Y-44266323D01*
X121813700Y-44266335D01*
X118886214Y-44266335D01*
X118875798Y-44251998D01*
X118748002Y-44124202D01*
X118747996Y-44124196D01*
X118601791Y-44017974D01*
X118601790Y-44017973D01*
X118601788Y-44017972D01*
X118440756Y-43935922D01*
X118268871Y-43880073D01*
X118268869Y-43880072D01*
X118268867Y-43880072D01*
X118155420Y-43862103D01*
X118090365Y-43851800D01*
X117909635Y-43851800D01*
X117895745Y-43854000D01*
X117731132Y-43880072D01*
X117559241Y-43935923D01*
X117398208Y-44017974D01*
X117252003Y-44124196D01*
X117124196Y-44252003D01*
X117017974Y-44398208D01*
X116935923Y-44559241D01*
X116880072Y-44731132D01*
X116851800Y-44909635D01*
X111528200Y-44909635D01*
X111499927Y-44731129D01*
X111444078Y-44559244D01*
X111362028Y-44398212D01*
X111316752Y-44335894D01*
X111255803Y-44252003D01*
X111127996Y-44124196D01*
X110981791Y-44017974D01*
X110981790Y-44017973D01*
X110981788Y-44017972D01*
X110820756Y-43935922D01*
X110648871Y-43880073D01*
X110648869Y-43880072D01*
X110648867Y-43880072D01*
X110488499Y-43854672D01*
X110425364Y-43824743D01*
X110388433Y-43765431D01*
X110389431Y-43695568D01*
X110428041Y-43637336D01*
X110492005Y-43609222D01*
X110507890Y-43608199D01*
X111075572Y-43608199D01*
X111135183Y-43601791D01*
X111270031Y-43551496D01*
X111385246Y-43465246D01*
X111471496Y-43350031D01*
X111521791Y-43215183D01*
X111528200Y-43155573D01*
X111528199Y-42369635D01*
X116851800Y-42369635D01*
X116851800Y-42550364D01*
X116880072Y-42728867D01*
X116935923Y-42900758D01*
X117017974Y-43061791D01*
X117124196Y-43207996D01*
X117252003Y-43335803D01*
X117388817Y-43435202D01*
X117398212Y-43442028D01*
X117559244Y-43524078D01*
X117731129Y-43579927D01*
X117909635Y-43608200D01*
X118090365Y-43608200D01*
X118268871Y-43579927D01*
X118440756Y-43524078D01*
X118601788Y-43442028D01*
X118683879Y-43382385D01*
X118747996Y-43335803D01*
X118747998Y-43335800D01*
X118748002Y-43335798D01*
X118875798Y-43208002D01*
X118875800Y-43207998D01*
X118875803Y-43207996D01*
X118922385Y-43143879D01*
X118982028Y-43061788D01*
X119064078Y-42900756D01*
X119119927Y-42728871D01*
X119148200Y-42550365D01*
X119148200Y-42369635D01*
X119119927Y-42191129D01*
X119064078Y-42019244D01*
X118982028Y-41858212D01*
X118975202Y-41848817D01*
X118875803Y-41712003D01*
X118747996Y-41584196D01*
X118601791Y-41477974D01*
X118601790Y-41477973D01*
X118601788Y-41477972D01*
X118440756Y-41395922D01*
X118268871Y-41340073D01*
X118268869Y-41340072D01*
X118268867Y-41340072D01*
X118130823Y-41318208D01*
X118090365Y-41311800D01*
X117909635Y-41311800D01*
X117869177Y-41318208D01*
X117731132Y-41340072D01*
X117559241Y-41395923D01*
X117398208Y-41477974D01*
X117252003Y-41584196D01*
X117124196Y-41712003D01*
X117017974Y-41858208D01*
X116935923Y-42019241D01*
X116880072Y-42191132D01*
X116851800Y-42369635D01*
X111528199Y-42369635D01*
X111528199Y-41764428D01*
X111522999Y-41716057D01*
X111521791Y-41704816D01*
X111471497Y-41569971D01*
X111471493Y-41569964D01*
X111385247Y-41454755D01*
X111385244Y-41454752D01*
X111270035Y-41368506D01*
X111270028Y-41368502D01*
X111135182Y-41318208D01*
X111135183Y-41318208D01*
X111075583Y-41311801D01*
X111075581Y-41311800D01*
X111075573Y-41311800D01*
X111075564Y-41311800D01*
X109684429Y-41311800D01*
X109684423Y-41311801D01*
X109624816Y-41318208D01*
X109489971Y-41368502D01*
X109489964Y-41368506D01*
X109374755Y-41454752D01*
X109374752Y-41454755D01*
X109288506Y-41569964D01*
X109288502Y-41569971D01*
X109238208Y-41704817D01*
X109231801Y-41764416D01*
X109231801Y-41764423D01*
X109231800Y-41764435D01*
X100500500Y-41764435D01*
X100500500Y-38378711D01*
X102149500Y-38378711D01*
X102149500Y-38621288D01*
X102181161Y-38861785D01*
X102243947Y-39096104D01*
X102336773Y-39320205D01*
X102336776Y-39320212D01*
X102458064Y-39530289D01*
X102458066Y-39530292D01*
X102458067Y-39530293D01*
X102605733Y-39722736D01*
X102605739Y-39722743D01*
X102777256Y-39894260D01*
X102777262Y-39894265D01*
X102969711Y-40041936D01*
X103179788Y-40163224D01*
X103403900Y-40256054D01*
X103638211Y-40318838D01*
X103818586Y-40342584D01*
X103878711Y-40350500D01*
X103878712Y-40350500D01*
X104121289Y-40350500D01*
X104169388Y-40344167D01*
X104361789Y-40318838D01*
X104596100Y-40256054D01*
X104820212Y-40163224D01*
X105030289Y-40041936D01*
X105222738Y-39894265D01*
X105394265Y-39722738D01*
X105541936Y-39530289D01*
X105663224Y-39320212D01*
X105756054Y-39096100D01*
X105818838Y-38861789D01*
X105850500Y-38621288D01*
X105850500Y-38378712D01*
X105818838Y-38138211D01*
X105756054Y-37903900D01*
X105663224Y-37679788D01*
X105541936Y-37469711D01*
X105394265Y-37277262D01*
X105394260Y-37277256D01*
X105222743Y-37105739D01*
X105222736Y-37105733D01*
X105030293Y-36958067D01*
X105030292Y-36958066D01*
X105030289Y-36958064D01*
X104820212Y-36836776D01*
X104820205Y-36836773D01*
X104596104Y-36743947D01*
X104361785Y-36681161D01*
X104121289Y-36649500D01*
X104121288Y-36649500D01*
X103878712Y-36649500D01*
X103878711Y-36649500D01*
X103638214Y-36681161D01*
X103403895Y-36743947D01*
X103179794Y-36836773D01*
X103179785Y-36836777D01*
X102969706Y-36958067D01*
X102777263Y-37105733D01*
X102777256Y-37105739D01*
X102605739Y-37277256D01*
X102605733Y-37277263D01*
X102458067Y-37469706D01*
X102336777Y-37679785D01*
X102336773Y-37679794D01*
X102243947Y-37903895D01*
X102181161Y-38138214D01*
X102149500Y-38378711D01*
X100500500Y-38378711D01*
X100500500Y-35624500D01*
X100520185Y-35557461D01*
X100572989Y-35511706D01*
X100624500Y-35500500D01*
X108241324Y-35500500D01*
X108308363Y-35520185D01*
G37*
%TD.AperFunction*%
%TD*%
M02*
