%TF.GenerationSoftware,KiCad,Pcbnew,9.0.6*%
%TF.CreationDate,2026-02-08T10:32:15-06:00*%
%TF.ProjectId,tube_detection_pcb,74756265-5f64-4657-9465-6374696f6e5f,rev?*%
%TF.SameCoordinates,Original*%
%TF.FileFunction,Legend,Bot*%
%TF.FilePolarity,Positive*%
%FSLAX46Y46*%
G04 Gerber Fmt 4.6, Leading zero omitted, Abs format (unit mm)*
G04 Created by KiCad (PCBNEW 9.0.6) date 2026-02-08 10:32:15*
%MOMM*%
%LPD*%
G01*
G04 APERTURE LIST*
G04 Aperture macros list*
%AMRoundRect*
0 Rectangle with rounded corners*
0 $1 Rounding radius*
0 $2 $3 $4 $5 $6 $7 $8 $9 X,Y pos of 4 corners*
0 Add a 4 corners polygon primitive as box body*
4,1,4,$2,$3,$4,$5,$6,$7,$8,$9,$2,$3,0*
0 Add four circle primitives for the rounded corners*
1,1,$1+$1,$2,$3*
1,1,$1+$1,$4,$5*
1,1,$1+$1,$6,$7*
1,1,$1+$1,$8,$9*
0 Add four rect primitives between the rounded corners*
20,1,$1+$1,$2,$3,$4,$5,0*
20,1,$1+$1,$4,$5,$6,$7,0*
20,1,$1+$1,$6,$7,$8,$9,0*
20,1,$1+$1,$8,$9,$2,$3,0*%
G04 Aperture macros list end*
%ADD10C,0.150000*%
%ADD11C,0.120000*%
%ADD12C,3.200000*%
%ADD13C,1.905000*%
%ADD14R,1.371600X1.371600*%
%ADD15C,1.371600*%
%ADD16R,1.295400X1.295400*%
%ADD17C,1.295400*%
%ADD18RoundRect,0.250000X0.725000X-0.600000X0.725000X0.600000X-0.725000X0.600000X-0.725000X-0.600000X0*%
%ADD19O,1.950000X1.700000*%
G04 APERTURE END LIST*
D10*
X107754819Y-51166666D02*
X108469104Y-51166666D01*
X108469104Y-51166666D02*
X108611961Y-51119047D01*
X108611961Y-51119047D02*
X108707200Y-51023809D01*
X108707200Y-51023809D02*
X108754819Y-50880952D01*
X108754819Y-50880952D02*
X108754819Y-50785714D01*
X108754819Y-52166666D02*
X108754819Y-51595238D01*
X108754819Y-51880952D02*
X107754819Y-51880952D01*
X107754819Y-51880952D02*
X107897676Y-51785714D01*
X107897676Y-51785714D02*
X107992914Y-51690476D01*
X107992914Y-51690476D02*
X108040533Y-51595238D01*
D11*
%TO.C,J1*%
X101240000Y-42690000D02*
X107210000Y-42690000D01*
X101240000Y-60310000D02*
X101240000Y-42690000D01*
X102000000Y-43450000D02*
X102000000Y-51500000D01*
X102000000Y-59550000D02*
X102000000Y-51500000D01*
X104950000Y-42700000D02*
X104950000Y-43450000D01*
X104950000Y-43450000D02*
X102000000Y-43450000D01*
X104950000Y-59550000D02*
X102000000Y-59550000D01*
X104950000Y-60300000D02*
X104950000Y-59550000D01*
X106450000Y-42700000D02*
X107200000Y-42700000D01*
X106450000Y-44500000D02*
X106450000Y-42700000D01*
X106450000Y-46000000D02*
X107200000Y-46000000D01*
X106450000Y-57000000D02*
X106450000Y-46000000D01*
X106450000Y-58500000D02*
X107200000Y-58500000D01*
X106450000Y-60300000D02*
X106450000Y-58500000D01*
X107200000Y-42700000D02*
X107200000Y-44500000D01*
X107200000Y-44500000D02*
X106450000Y-44500000D01*
X107200000Y-46000000D02*
X107200000Y-57000000D01*
X107200000Y-57000000D02*
X106450000Y-57000000D01*
X107200000Y-58500000D02*
X107200000Y-60300000D01*
X107200000Y-60300000D02*
X106450000Y-60300000D01*
X107210000Y-42690000D02*
X107210000Y-60310000D01*
X107210000Y-60310000D02*
X101240000Y-60310000D01*
X107500000Y-59350000D02*
X107500000Y-60600000D01*
X107500000Y-60600000D02*
X106250000Y-60600000D01*
%TD*%
%LPC*%
D12*
%TO.C,REF\u002A\u002A*%
X104000000Y-64250000D03*
%TD*%
%TO.C,REF\u002A\u002A*%
X195000000Y-38500000D03*
%TD*%
D13*
%TO.C,U5*%
X189000000Y-56500000D03*
X189000000Y-51500000D03*
X189000000Y-46500000D03*
%TD*%
D14*
%TO.C,R1*%
X138000000Y-45158000D03*
D15*
X138000000Y-56842000D03*
%TD*%
D13*
%TO.C,U2*%
X144000000Y-56500000D03*
X144000000Y-51500000D03*
X144000000Y-46500000D03*
%TD*%
D16*
%TO.C,U6*%
X110380000Y-42460000D03*
D17*
X110380000Y-45000000D03*
X110380000Y-47540000D03*
X110380000Y-50080000D03*
X110380000Y-52620000D03*
X110380000Y-55160000D03*
X110380000Y-57700000D03*
X110380000Y-60240000D03*
X118000000Y-60240000D03*
X118000000Y-57700000D03*
X118000000Y-55160000D03*
X118000000Y-52620000D03*
X118000000Y-50080000D03*
X118000000Y-47540000D03*
X118000000Y-45000000D03*
X118000000Y-42460000D03*
%TD*%
D14*
%TO.C,R5*%
X183000000Y-45158000D03*
D15*
X183000000Y-56842000D03*
%TD*%
D12*
%TO.C,REF\u002A\u002A*%
X104000000Y-38500000D03*
%TD*%
D14*
%TO.C,R2*%
X153000000Y-45158000D03*
D15*
X153000000Y-56842000D03*
%TD*%
D13*
%TO.C,U4*%
X174000000Y-56500000D03*
X174000000Y-51500000D03*
X174000000Y-46500000D03*
%TD*%
D14*
%TO.C,R3*%
X123000000Y-45000000D03*
D15*
X123000000Y-56684000D03*
%TD*%
D14*
%TO.C,R4*%
X168000000Y-45158000D03*
D15*
X168000000Y-56842000D03*
%TD*%
D12*
%TO.C,REF\u002A\u002A*%
X195000000Y-64250000D03*
%TD*%
D13*
%TO.C,U3*%
X159000000Y-56500000D03*
X159000000Y-51500000D03*
X159000000Y-46500000D03*
%TD*%
%TO.C,U1*%
X129000000Y-56500000D03*
X129000000Y-51500000D03*
X129000000Y-46500000D03*
%TD*%
D18*
%TO.C,J1*%
X104750000Y-57750000D03*
D19*
X104750000Y-55250000D03*
X104750000Y-52750000D03*
X104750000Y-50250000D03*
X104750000Y-47750000D03*
X104750000Y-45250000D03*
%TD*%
%LPD*%
M02*
