%TF.GenerationSoftware,KiCad,Pcbnew,9.0.6*%
%TF.CreationDate,2026-02-08T10:32:15-06:00*%
%TF.ProjectId,tube_detection_pcb,74756265-5f64-4657-9465-6374696f6e5f,rev?*%
%TF.SameCoordinates,Original*%
%TF.FileFunction,Copper,L1,Top*%
%TF.FilePolarity,Positive*%
%FSLAX46Y46*%
G04 Gerber Fmt 4.6, Leading zero omitted, Abs format (unit mm)*
G04 Created by KiCad (PCBNEW 9.0.6) date 2026-02-08 10:32:15*
%MOMM*%
%LPD*%
G01*
G04 APERTURE LIST*
G04 Aperture macros list*
%AMRoundRect*
0 Rectangle with rounded corners*
0 $1 Rounding radius*
0 $2 $3 $4 $5 $6 $7 $8 $9 X,Y pos of 4 corners*
0 Add a 4 corners polygon primitive as box body*
4,1,4,$2,$3,$4,$5,$6,$7,$8,$9,$2,$3,0*
0 Add four circle primitives for the rounded corners*
1,1,$1+$1,$2,$3*
1,1,$1+$1,$4,$5*
1,1,$1+$1,$6,$7*
1,1,$1+$1,$8,$9*
0 Add four rect primitives between the rounded corners*
20,1,$1+$1,$2,$3,$4,$5,0*
20,1,$1+$1,$4,$5,$6,$7,0*
20,1,$1+$1,$6,$7,$8,$9,0*
20,1,$1+$1,$8,$9,$2,$3,0*%
G04 Aperture macros list end*
%TA.AperFunction,ComponentPad*%
%ADD10C,1.905000*%
%TD*%
%TA.AperFunction,ComponentPad*%
%ADD11R,1.371600X1.371600*%
%TD*%
%TA.AperFunction,ComponentPad*%
%ADD12C,1.371600*%
%TD*%
%TA.AperFunction,ComponentPad*%
%ADD13R,1.295400X1.295400*%
%TD*%
%TA.AperFunction,ComponentPad*%
%ADD14C,1.295400*%
%TD*%
%TA.AperFunction,ComponentPad*%
%ADD15RoundRect,0.250000X0.725000X-0.600000X0.725000X0.600000X-0.725000X0.600000X-0.725000X-0.600000X0*%
%TD*%
%TA.AperFunction,ComponentPad*%
%ADD16O,1.950000X1.700000*%
%TD*%
%TA.AperFunction,Conductor*%
%ADD17C,0.200000*%
%TD*%
G04 APERTURE END LIST*
D10*
%TO.P,U5,1,C*%
%TO.N,Net-(U5-C)*%
X189000000Y-56500000D03*
%TO.P,U5,2,NO*%
%TO.N,Net-(U5-NO)*%
X189000000Y-51500000D03*
%TO.P,U5,3,NC*%
%TO.N,GND*%
X189000000Y-46500000D03*
%TD*%
D11*
%TO.P,R1,1*%
%TO.N,+3V3*%
X138000000Y-45158000D03*
D12*
%TO.P,R1,2*%
%TO.N,Net-(U2-C)*%
X138000000Y-56842000D03*
%TD*%
D10*
%TO.P,U2,1,C*%
%TO.N,Net-(U2-C)*%
X144000000Y-56500000D03*
%TO.P,U2,2,NO*%
%TO.N,Net-(U2-NO)*%
X144000000Y-51500000D03*
%TO.P,U2,3,NC*%
%TO.N,GND*%
X144000000Y-46500000D03*
%TD*%
D13*
%TO.P,U6,1,SH/\u002ALD*%
%TO.N,SH*%
X110380000Y-42460000D03*
D14*
%TO.P,U6,2,CLK*%
%TO.N,CLK*%
X110380000Y-45000000D03*
%TO.P,U6,3,E*%
%TO.N,Net-(U5-NO)*%
X110380000Y-47540000D03*
%TO.P,U6,4,F*%
%TO.N,GND*%
X110380000Y-50080000D03*
%TO.P,U6,5,G*%
X110380000Y-52620000D03*
%TO.P,U6,6,H*%
X110380000Y-55160000D03*
%TO.P,U6,7,\u002AQH*%
%TO.N,QH\u002A*%
X110380000Y-57700000D03*
%TO.P,U6,8,GND*%
%TO.N,GND*%
X110380000Y-60240000D03*
%TO.P,U6,9,QH*%
%TO.N,unconnected-(U6-QH-Pad9)*%
X118000000Y-60240000D03*
%TO.P,U6,10,SER*%
%TO.N,GND*%
X118000000Y-57700000D03*
%TO.P,U6,11,A*%
%TO.N,Net-(U4-NO)*%
X118000000Y-55160000D03*
%TO.P,U6,12,B*%
%TO.N,Net-(U3-NO)*%
X118000000Y-52620000D03*
%TO.P,U6,13,C*%
%TO.N,Net-(U2-NO)*%
X118000000Y-50080000D03*
%TO.P,U6,14,D*%
%TO.N,Net-(U1-NO)*%
X118000000Y-47540000D03*
%TO.P,U6,15,CLKINH*%
%TO.N,CSn*%
X118000000Y-45000000D03*
%TO.P,U6,16,VCC*%
%TO.N,+3V3*%
X118000000Y-42460000D03*
%TD*%
D11*
%TO.P,R5,1*%
%TO.N,+3V3*%
X183000000Y-45158000D03*
D12*
%TO.P,R5,2*%
%TO.N,Net-(U5-C)*%
X183000000Y-56842000D03*
%TD*%
D11*
%TO.P,R2,1*%
%TO.N,+3V3*%
X153000000Y-45158000D03*
D12*
%TO.P,R2,2*%
%TO.N,Net-(U3-C)*%
X153000000Y-56842000D03*
%TD*%
D10*
%TO.P,U4,1,C*%
%TO.N,Net-(U4-C)*%
X174000000Y-56500000D03*
%TO.P,U4,2,NO*%
%TO.N,Net-(U4-NO)*%
X174000000Y-51500000D03*
%TO.P,U4,3,NC*%
%TO.N,GND*%
X174000000Y-46500000D03*
%TD*%
D11*
%TO.P,R3,1*%
%TO.N,+3V3*%
X123000000Y-45000000D03*
D12*
%TO.P,R3,2*%
%TO.N,Net-(U1-C)*%
X123000000Y-56684000D03*
%TD*%
D11*
%TO.P,R4,1*%
%TO.N,+3V3*%
X168000000Y-45158000D03*
D12*
%TO.P,R4,2*%
%TO.N,Net-(U4-C)*%
X168000000Y-56842000D03*
%TD*%
D10*
%TO.P,U3,1,C*%
%TO.N,Net-(U3-C)*%
X159000000Y-56500000D03*
%TO.P,U3,2,NO*%
%TO.N,Net-(U3-NO)*%
X159000000Y-51500000D03*
%TO.P,U3,3,NC*%
%TO.N,GND*%
X159000000Y-46500000D03*
%TD*%
%TO.P,U1,1,C*%
%TO.N,Net-(U1-C)*%
X129000000Y-56500000D03*
%TO.P,U1,2,NO*%
%TO.N,Net-(U1-NO)*%
X129000000Y-51500000D03*
%TO.P,U1,3,NC*%
%TO.N,GND*%
X129000000Y-46500000D03*
%TD*%
D15*
%TO.P,J1,1,1*%
%TO.N,+3V3*%
X104750000Y-57750000D03*
D16*
%TO.P,J1,2,2*%
%TO.N,GND*%
X104750000Y-55250000D03*
%TO.P,J1,3,3*%
%TO.N,QH\u002A*%
X104750000Y-52750000D03*
%TO.P,J1,4,4*%
%TO.N,CLK*%
X104750000Y-50250000D03*
%TO.P,J1,5,5*%
%TO.N,SH*%
X104750000Y-47750000D03*
%TO.P,J1,6,6*%
%TO.N,CSn*%
X104750000Y-45250000D03*
%TD*%
D17*
%TO.N,Net-(U1-C)*%
X129000000Y-56500000D02*
X123184000Y-56500000D01*
X123184000Y-56500000D02*
X123000000Y-56684000D01*
%TO.N,CSn*%
X108488700Y-41511300D02*
X114511300Y-41511300D01*
X104750000Y-45250000D02*
X108488700Y-41511300D01*
X114511300Y-41511300D02*
X118000000Y-45000000D01*
%TO.N,Net-(U2-C)*%
X138342000Y-56500000D02*
X138000000Y-56842000D01*
X144000000Y-56500000D02*
X138342000Y-56500000D01*
%TO.N,Net-(U3-C)*%
X153000000Y-56842000D02*
X158658000Y-56842000D01*
X158658000Y-56842000D02*
X159000000Y-56500000D01*
%TO.N,Net-(U4-C)*%
X168000000Y-56842000D02*
X173658000Y-56842000D01*
X173658000Y-56842000D02*
X174000000Y-56500000D01*
%TO.N,Net-(U5-C)*%
X188658000Y-56842000D02*
X189000000Y-56500000D01*
X183000000Y-56842000D02*
X188658000Y-56842000D01*
%TO.N,QH\u002A*%
X105430000Y-52750000D02*
X110380000Y-57700000D01*
X104750000Y-52750000D02*
X105430000Y-52750000D01*
%TO.N,+3V3*%
X104750000Y-57750000D02*
X102250000Y-55250000D01*
X102250000Y-44000000D02*
X105250000Y-41000000D01*
X105250000Y-41000000D02*
X116540000Y-41000000D01*
X123000000Y-45000000D02*
X124250000Y-43750000D01*
X102250000Y-55250000D02*
X102250000Y-44000000D01*
X138000000Y-45158000D02*
X138000000Y-45000000D01*
X116540000Y-41000000D02*
X118000000Y-42460000D01*
X153000000Y-45158000D02*
X154408000Y-43750000D01*
X124250000Y-43750000D02*
X136592000Y-43750000D01*
X168000000Y-45158000D02*
X169408000Y-43750000D01*
X166592000Y-43750000D02*
X168000000Y-45158000D01*
X169408000Y-43750000D02*
X181250000Y-43750000D01*
X120460000Y-42460000D02*
X123000000Y-45000000D01*
X118000000Y-42460000D02*
X120460000Y-42460000D01*
X181250000Y-43750000D02*
X182658000Y-45158000D01*
X151592000Y-43750000D02*
X153000000Y-45158000D01*
X138000000Y-45000000D02*
X139250000Y-43750000D01*
X182658000Y-45158000D02*
X183000000Y-45158000D01*
X154408000Y-43750000D02*
X166592000Y-43750000D01*
X136592000Y-43750000D02*
X138000000Y-45158000D01*
X139250000Y-43750000D02*
X151592000Y-43750000D01*
%TO.N,SH*%
X104750000Y-47750000D02*
X110040000Y-42460000D01*
X110040000Y-42460000D02*
X110380000Y-42460000D01*
%TO.N,CLK*%
X104750000Y-50250000D02*
X105130000Y-50250000D01*
X105130000Y-50250000D02*
X110380000Y-45000000D01*
%TO.N,Net-(U1-NO)*%
X121960000Y-51500000D02*
X118000000Y-47540000D01*
X129000000Y-51500000D02*
X121960000Y-51500000D01*
%TO.N,Net-(U2-NO)*%
X120673500Y-52753500D02*
X118000000Y-50080000D01*
X144000000Y-51500000D02*
X142746500Y-52753500D01*
X142746500Y-52753500D02*
X120673500Y-52753500D01*
%TO.N,Net-(U3-NO)*%
X159000000Y-51500000D02*
X156750000Y-53750000D01*
X119130000Y-53750000D02*
X118000000Y-52620000D01*
X156750000Y-53750000D02*
X119130000Y-53750000D01*
%TO.N,Net-(U4-NO)*%
X174000000Y-51500000D02*
X170340000Y-55160000D01*
X170340000Y-55160000D02*
X118000000Y-55160000D01*
%TO.N,Net-(U5-NO)*%
X111328700Y-49830365D02*
X111328700Y-48488700D01*
X111328700Y-48488700D02*
X110380000Y-47540000D01*
X181500000Y-51500000D02*
X173500000Y-59500000D01*
X120608700Y-56108700D02*
X117607035Y-56108700D01*
X124000000Y-59500000D02*
X120608700Y-56108700D01*
X173500000Y-59500000D02*
X124000000Y-59500000D01*
X189000000Y-51500000D02*
X181500000Y-51500000D01*
X117607035Y-56108700D02*
X111328700Y-49830365D01*
%TD*%
M02*
