%TF.GenerationSoftware,KiCad,Pcbnew,9.0.6*%
%TF.CreationDate,2026-02-08T10:16:36-06:00*%
%TF.ProjectId,display-pcb,64697370-6c61-4792-9d70-63622e6b6963,rev?*%
%TF.SameCoordinates,Original*%
%TF.FileFunction,Legend,Bot*%
%TF.FilePolarity,Positive*%
%FSLAX46Y46*%
G04 Gerber Fmt 4.6, Leading zero omitted, Abs format (unit mm)*
G04 Created by KiCad (PCBNEW 9.0.6) date 2026-02-08 10:16:36*
%MOMM*%
%LPD*%
G01*
G04 APERTURE LIST*
G04 Aperture macros list*
%AMRoundRect*
0 Rectangle with rounded corners*
0 $1 Rounding radius*
0 $2 $3 $4 $5 $6 $7 $8 $9 X,Y pos of 4 corners*
0 Add a 4 corners polygon primitive as box body*
4,1,4,$2,$3,$4,$5,$6,$7,$8,$9,$2,$3,0*
0 Add four circle primitives for the rounded corners*
1,1,$1+$1,$2,$3*
1,1,$1+$1,$4,$5*
1,1,$1+$1,$6,$7*
1,1,$1+$1,$8,$9*
0 Add four rect primitives between the rounded corners*
20,1,$1+$1,$2,$3,$4,$5,0*
20,1,$1+$1,$4,$5,$6,$7,0*
20,1,$1+$1,$6,$7,$8,$9,0*
20,1,$1+$1,$8,$9,$2,$3,0*%
G04 Aperture macros list end*
%ADD10C,0.150000*%
%ADD11C,0.120000*%
%ADD12R,1.498600X1.498600*%
%ADD13C,1.498600*%
%ADD14C,3.200000*%
%ADD15R,1.800000X1.800000*%
%ADD16C,1.800000*%
%ADD17RoundRect,0.250000X0.702500X0.702500X-0.702500X0.702500X-0.702500X-0.702500X0.702500X-0.702500X0*%
%ADD18C,1.905000*%
%ADD19R,1.371600X1.371600*%
%ADD20C,1.371600*%
%ADD21RoundRect,0.250000X0.725000X-0.600000X0.725000X0.600000X-0.725000X0.600000X-0.725000X-0.600000X0*%
%ADD22O,1.950000X1.700000*%
%ADD23RoundRect,0.250000X-0.725000X0.600000X-0.725000X-0.600000X0.725000X-0.600000X0.725000X0.600000X0*%
G04 APERTURE END LIST*
D10*
X158529819Y-112166666D02*
X159244104Y-112166666D01*
X159244104Y-112166666D02*
X159386961Y-112119047D01*
X159386961Y-112119047D02*
X159482200Y-112023809D01*
X159482200Y-112023809D02*
X159529819Y-111880952D01*
X159529819Y-111880952D02*
X159529819Y-111785714D01*
X158625057Y-112595238D02*
X158577438Y-112642857D01*
X158577438Y-112642857D02*
X158529819Y-112738095D01*
X158529819Y-112738095D02*
X158529819Y-112976190D01*
X158529819Y-112976190D02*
X158577438Y-113071428D01*
X158577438Y-113071428D02*
X158625057Y-113119047D01*
X158625057Y-113119047D02*
X158720295Y-113166666D01*
X158720295Y-113166666D02*
X158815533Y-113166666D01*
X158815533Y-113166666D02*
X158958390Y-113119047D01*
X158958390Y-113119047D02*
X159529819Y-112547619D01*
X159529819Y-112547619D02*
X159529819Y-113166666D01*
X151379819Y-107071428D02*
X150379819Y-107071428D01*
X150379819Y-107071428D02*
X150379819Y-107309523D01*
X150379819Y-107309523D02*
X150427438Y-107452380D01*
X150427438Y-107452380D02*
X150522676Y-107547618D01*
X150522676Y-107547618D02*
X150617914Y-107595237D01*
X150617914Y-107595237D02*
X150808390Y-107642856D01*
X150808390Y-107642856D02*
X150951247Y-107642856D01*
X150951247Y-107642856D02*
X151141723Y-107595237D01*
X151141723Y-107595237D02*
X151236961Y-107547618D01*
X151236961Y-107547618D02*
X151332200Y-107452380D01*
X151332200Y-107452380D02*
X151379819Y-107309523D01*
X151379819Y-107309523D02*
X151379819Y-107071428D01*
X151379819Y-108071428D02*
X150713152Y-108071428D01*
X150379819Y-108071428D02*
X150427438Y-108023809D01*
X150427438Y-108023809D02*
X150475057Y-108071428D01*
X150475057Y-108071428D02*
X150427438Y-108119047D01*
X150427438Y-108119047D02*
X150379819Y-108071428D01*
X150379819Y-108071428D02*
X150475057Y-108071428D01*
X151332200Y-108499999D02*
X151379819Y-108595237D01*
X151379819Y-108595237D02*
X151379819Y-108785713D01*
X151379819Y-108785713D02*
X151332200Y-108880951D01*
X151332200Y-108880951D02*
X151236961Y-108928570D01*
X151236961Y-108928570D02*
X151189342Y-108928570D01*
X151189342Y-108928570D02*
X151094104Y-108880951D01*
X151094104Y-108880951D02*
X151046485Y-108785713D01*
X151046485Y-108785713D02*
X151046485Y-108642856D01*
X151046485Y-108642856D02*
X150998866Y-108547618D01*
X150998866Y-108547618D02*
X150903628Y-108499999D01*
X150903628Y-108499999D02*
X150856009Y-108499999D01*
X150856009Y-108499999D02*
X150760771Y-108547618D01*
X150760771Y-108547618D02*
X150713152Y-108642856D01*
X150713152Y-108642856D02*
X150713152Y-108785713D01*
X150713152Y-108785713D02*
X150760771Y-108880951D01*
X150713152Y-109357142D02*
X151713152Y-109357142D01*
X150760771Y-109357142D02*
X150713152Y-109452380D01*
X150713152Y-109452380D02*
X150713152Y-109642856D01*
X150713152Y-109642856D02*
X150760771Y-109738094D01*
X150760771Y-109738094D02*
X150808390Y-109785713D01*
X150808390Y-109785713D02*
X150903628Y-109833332D01*
X150903628Y-109833332D02*
X151189342Y-109833332D01*
X151189342Y-109833332D02*
X151284580Y-109785713D01*
X151284580Y-109785713D02*
X151332200Y-109738094D01*
X151332200Y-109738094D02*
X151379819Y-109642856D01*
X151379819Y-109642856D02*
X151379819Y-109452380D01*
X151379819Y-109452380D02*
X151332200Y-109357142D01*
X151379819Y-110404761D02*
X151332200Y-110309523D01*
X151332200Y-110309523D02*
X151236961Y-110261904D01*
X151236961Y-110261904D02*
X150379819Y-110261904D01*
X151379819Y-111214285D02*
X150856009Y-111214285D01*
X150856009Y-111214285D02*
X150760771Y-111166666D01*
X150760771Y-111166666D02*
X150713152Y-111071428D01*
X150713152Y-111071428D02*
X150713152Y-110880952D01*
X150713152Y-110880952D02*
X150760771Y-110785714D01*
X151332200Y-111214285D02*
X151379819Y-111119047D01*
X151379819Y-111119047D02*
X151379819Y-110880952D01*
X151379819Y-110880952D02*
X151332200Y-110785714D01*
X151332200Y-110785714D02*
X151236961Y-110738095D01*
X151236961Y-110738095D02*
X151141723Y-110738095D01*
X151141723Y-110738095D02*
X151046485Y-110785714D01*
X151046485Y-110785714D02*
X150998866Y-110880952D01*
X150998866Y-110880952D02*
X150998866Y-111119047D01*
X150998866Y-111119047D02*
X150951247Y-111214285D01*
X150713152Y-111595238D02*
X151379819Y-111833333D01*
X150713152Y-112071428D02*
X151379819Y-111833333D01*
X151379819Y-111833333D02*
X151617914Y-111738095D01*
X151617914Y-111738095D02*
X151665533Y-111690476D01*
X151665533Y-111690476D02*
X151713152Y-111595238D01*
X151475057Y-112214286D02*
X151475057Y-112976190D01*
X151379819Y-113214286D02*
X150379819Y-113214286D01*
X150856009Y-113214286D02*
X150856009Y-113785714D01*
X151379819Y-113785714D02*
X150379819Y-113785714D01*
X151332200Y-114642857D02*
X151379819Y-114547619D01*
X151379819Y-114547619D02*
X151379819Y-114357143D01*
X151379819Y-114357143D02*
X151332200Y-114261905D01*
X151332200Y-114261905D02*
X151236961Y-114214286D01*
X151236961Y-114214286D02*
X150856009Y-114214286D01*
X150856009Y-114214286D02*
X150760771Y-114261905D01*
X150760771Y-114261905D02*
X150713152Y-114357143D01*
X150713152Y-114357143D02*
X150713152Y-114547619D01*
X150713152Y-114547619D02*
X150760771Y-114642857D01*
X150760771Y-114642857D02*
X150856009Y-114690476D01*
X150856009Y-114690476D02*
X150951247Y-114690476D01*
X150951247Y-114690476D02*
X151046485Y-114214286D01*
X151379819Y-115547619D02*
X150856009Y-115547619D01*
X150856009Y-115547619D02*
X150760771Y-115500000D01*
X150760771Y-115500000D02*
X150713152Y-115404762D01*
X150713152Y-115404762D02*
X150713152Y-115214286D01*
X150713152Y-115214286D02*
X150760771Y-115119048D01*
X151332200Y-115547619D02*
X151379819Y-115452381D01*
X151379819Y-115452381D02*
X151379819Y-115214286D01*
X151379819Y-115214286D02*
X151332200Y-115119048D01*
X151332200Y-115119048D02*
X151236961Y-115071429D01*
X151236961Y-115071429D02*
X151141723Y-115071429D01*
X151141723Y-115071429D02*
X151046485Y-115119048D01*
X151046485Y-115119048D02*
X150998866Y-115214286D01*
X150998866Y-115214286D02*
X150998866Y-115452381D01*
X150998866Y-115452381D02*
X150951247Y-115547619D01*
X151379819Y-116452381D02*
X150379819Y-116452381D01*
X151332200Y-116452381D02*
X151379819Y-116357143D01*
X151379819Y-116357143D02*
X151379819Y-116166667D01*
X151379819Y-116166667D02*
X151332200Y-116071429D01*
X151332200Y-116071429D02*
X151284580Y-116023810D01*
X151284580Y-116023810D02*
X151189342Y-115976191D01*
X151189342Y-115976191D02*
X150903628Y-115976191D01*
X150903628Y-115976191D02*
X150808390Y-116023810D01*
X150808390Y-116023810D02*
X150760771Y-116071429D01*
X150760771Y-116071429D02*
X150713152Y-116166667D01*
X150713152Y-116166667D02*
X150713152Y-116357143D01*
X150713152Y-116357143D02*
X150760771Y-116452381D01*
X151332200Y-117309524D02*
X151379819Y-117214286D01*
X151379819Y-117214286D02*
X151379819Y-117023810D01*
X151379819Y-117023810D02*
X151332200Y-116928572D01*
X151332200Y-116928572D02*
X151236961Y-116880953D01*
X151236961Y-116880953D02*
X150856009Y-116880953D01*
X150856009Y-116880953D02*
X150760771Y-116928572D01*
X150760771Y-116928572D02*
X150713152Y-117023810D01*
X150713152Y-117023810D02*
X150713152Y-117214286D01*
X150713152Y-117214286D02*
X150760771Y-117309524D01*
X150760771Y-117309524D02*
X150856009Y-117357143D01*
X150856009Y-117357143D02*
X150951247Y-117357143D01*
X150951247Y-117357143D02*
X151046485Y-116880953D01*
X151379819Y-117785715D02*
X150713152Y-117785715D01*
X150903628Y-117785715D02*
X150808390Y-117833334D01*
X150808390Y-117833334D02*
X150760771Y-117880953D01*
X150760771Y-117880953D02*
X150713152Y-117976191D01*
X150713152Y-117976191D02*
X150713152Y-118071429D01*
X130504819Y-81416665D02*
X131219104Y-81416665D01*
X131219104Y-81416665D02*
X131361961Y-81369046D01*
X131361961Y-81369046D02*
X131457200Y-81273808D01*
X131457200Y-81273808D02*
X131504819Y-81130951D01*
X131504819Y-81130951D02*
X131504819Y-81035713D01*
X131504819Y-82416665D02*
X131504819Y-81845237D01*
X131504819Y-82130951D02*
X130504819Y-82130951D01*
X130504819Y-82130951D02*
X130647676Y-82035713D01*
X130647676Y-82035713D02*
X130742914Y-81940475D01*
X130742914Y-81940475D02*
X130790533Y-81845237D01*
X128931009Y-76928571D02*
X128978628Y-77071428D01*
X128978628Y-77071428D02*
X129026247Y-77119047D01*
X129026247Y-77119047D02*
X129121485Y-77166666D01*
X129121485Y-77166666D02*
X129264342Y-77166666D01*
X129264342Y-77166666D02*
X129359580Y-77119047D01*
X129359580Y-77119047D02*
X129407200Y-77071428D01*
X129407200Y-77071428D02*
X129454819Y-76976190D01*
X129454819Y-76976190D02*
X129454819Y-76595238D01*
X129454819Y-76595238D02*
X128454819Y-76595238D01*
X128454819Y-76595238D02*
X128454819Y-76928571D01*
X128454819Y-76928571D02*
X128502438Y-77023809D01*
X128502438Y-77023809D02*
X128550057Y-77071428D01*
X128550057Y-77071428D02*
X128645295Y-77119047D01*
X128645295Y-77119047D02*
X128740533Y-77119047D01*
X128740533Y-77119047D02*
X128835771Y-77071428D01*
X128835771Y-77071428D02*
X128883390Y-77023809D01*
X128883390Y-77023809D02*
X128931009Y-76928571D01*
X128931009Y-76928571D02*
X128931009Y-76595238D01*
X128454819Y-78023809D02*
X128454819Y-77833333D01*
X128454819Y-77833333D02*
X128502438Y-77738095D01*
X128502438Y-77738095D02*
X128550057Y-77690476D01*
X128550057Y-77690476D02*
X128692914Y-77595238D01*
X128692914Y-77595238D02*
X128883390Y-77547619D01*
X128883390Y-77547619D02*
X129264342Y-77547619D01*
X129264342Y-77547619D02*
X129359580Y-77595238D01*
X129359580Y-77595238D02*
X129407200Y-77642857D01*
X129407200Y-77642857D02*
X129454819Y-77738095D01*
X129454819Y-77738095D02*
X129454819Y-77928571D01*
X129454819Y-77928571D02*
X129407200Y-78023809D01*
X129407200Y-78023809D02*
X129359580Y-78071428D01*
X129359580Y-78071428D02*
X129264342Y-78119047D01*
X129264342Y-78119047D02*
X129026247Y-78119047D01*
X129026247Y-78119047D02*
X128931009Y-78071428D01*
X128931009Y-78071428D02*
X128883390Y-78023809D01*
X128883390Y-78023809D02*
X128835771Y-77928571D01*
X128835771Y-77928571D02*
X128835771Y-77738095D01*
X128835771Y-77738095D02*
X128883390Y-77642857D01*
X128883390Y-77642857D02*
X128931009Y-77595238D01*
X128931009Y-77595238D02*
X129026247Y-77547619D01*
X128931009Y-78880952D02*
X128978628Y-79023809D01*
X128978628Y-79023809D02*
X129026247Y-79071428D01*
X129026247Y-79071428D02*
X129121485Y-79119047D01*
X129121485Y-79119047D02*
X129264342Y-79119047D01*
X129264342Y-79119047D02*
X129359580Y-79071428D01*
X129359580Y-79071428D02*
X129407200Y-79023809D01*
X129407200Y-79023809D02*
X129454819Y-78928571D01*
X129454819Y-78928571D02*
X129454819Y-78547619D01*
X129454819Y-78547619D02*
X128454819Y-78547619D01*
X128454819Y-78547619D02*
X128454819Y-78880952D01*
X128454819Y-78880952D02*
X128502438Y-78976190D01*
X128502438Y-78976190D02*
X128550057Y-79023809D01*
X128550057Y-79023809D02*
X128645295Y-79071428D01*
X128645295Y-79071428D02*
X128740533Y-79071428D01*
X128740533Y-79071428D02*
X128835771Y-79023809D01*
X128835771Y-79023809D02*
X128883390Y-78976190D01*
X128883390Y-78976190D02*
X128931009Y-78880952D01*
X128931009Y-78880952D02*
X128931009Y-78547619D01*
X129073866Y-79547619D02*
X129073866Y-80309524D01*
X128454819Y-80690476D02*
X129454819Y-81357142D01*
X128454819Y-81357142D02*
X129454819Y-80690476D01*
X129454819Y-81738095D02*
X128454819Y-81738095D01*
X128931009Y-81738095D02*
X128931009Y-82309523D01*
X129454819Y-82309523D02*
X128454819Y-82309523D01*
X129073866Y-82785714D02*
X129073866Y-83547619D01*
X129169104Y-83976190D02*
X129169104Y-84452380D01*
X129454819Y-83880952D02*
X128454819Y-84214285D01*
X128454819Y-84214285D02*
X129454819Y-84547618D01*
X121431009Y-102678571D02*
X121478628Y-102821428D01*
X121478628Y-102821428D02*
X121526247Y-102869047D01*
X121526247Y-102869047D02*
X121621485Y-102916666D01*
X121621485Y-102916666D02*
X121764342Y-102916666D01*
X121764342Y-102916666D02*
X121859580Y-102869047D01*
X121859580Y-102869047D02*
X121907200Y-102821428D01*
X121907200Y-102821428D02*
X121954819Y-102726190D01*
X121954819Y-102726190D02*
X121954819Y-102345238D01*
X121954819Y-102345238D02*
X120954819Y-102345238D01*
X120954819Y-102345238D02*
X120954819Y-102678571D01*
X120954819Y-102678571D02*
X121002438Y-102773809D01*
X121002438Y-102773809D02*
X121050057Y-102821428D01*
X121050057Y-102821428D02*
X121145295Y-102869047D01*
X121145295Y-102869047D02*
X121240533Y-102869047D01*
X121240533Y-102869047D02*
X121335771Y-102821428D01*
X121335771Y-102821428D02*
X121383390Y-102773809D01*
X121383390Y-102773809D02*
X121431009Y-102678571D01*
X121431009Y-102678571D02*
X121431009Y-102345238D01*
X121383390Y-103488095D02*
X121335771Y-103392857D01*
X121335771Y-103392857D02*
X121288152Y-103345238D01*
X121288152Y-103345238D02*
X121192914Y-103297619D01*
X121192914Y-103297619D02*
X121145295Y-103297619D01*
X121145295Y-103297619D02*
X121050057Y-103345238D01*
X121050057Y-103345238D02*
X121002438Y-103392857D01*
X121002438Y-103392857D02*
X120954819Y-103488095D01*
X120954819Y-103488095D02*
X120954819Y-103678571D01*
X120954819Y-103678571D02*
X121002438Y-103773809D01*
X121002438Y-103773809D02*
X121050057Y-103821428D01*
X121050057Y-103821428D02*
X121145295Y-103869047D01*
X121145295Y-103869047D02*
X121192914Y-103869047D01*
X121192914Y-103869047D02*
X121288152Y-103821428D01*
X121288152Y-103821428D02*
X121335771Y-103773809D01*
X121335771Y-103773809D02*
X121383390Y-103678571D01*
X121383390Y-103678571D02*
X121383390Y-103488095D01*
X121383390Y-103488095D02*
X121431009Y-103392857D01*
X121431009Y-103392857D02*
X121478628Y-103345238D01*
X121478628Y-103345238D02*
X121573866Y-103297619D01*
X121573866Y-103297619D02*
X121764342Y-103297619D01*
X121764342Y-103297619D02*
X121859580Y-103345238D01*
X121859580Y-103345238D02*
X121907200Y-103392857D01*
X121907200Y-103392857D02*
X121954819Y-103488095D01*
X121954819Y-103488095D02*
X121954819Y-103678571D01*
X121954819Y-103678571D02*
X121907200Y-103773809D01*
X121907200Y-103773809D02*
X121859580Y-103821428D01*
X121859580Y-103821428D02*
X121764342Y-103869047D01*
X121764342Y-103869047D02*
X121573866Y-103869047D01*
X121573866Y-103869047D02*
X121478628Y-103821428D01*
X121478628Y-103821428D02*
X121431009Y-103773809D01*
X121431009Y-103773809D02*
X121383390Y-103678571D01*
X121431009Y-104630952D02*
X121478628Y-104773809D01*
X121478628Y-104773809D02*
X121526247Y-104821428D01*
X121526247Y-104821428D02*
X121621485Y-104869047D01*
X121621485Y-104869047D02*
X121764342Y-104869047D01*
X121764342Y-104869047D02*
X121859580Y-104821428D01*
X121859580Y-104821428D02*
X121907200Y-104773809D01*
X121907200Y-104773809D02*
X121954819Y-104678571D01*
X121954819Y-104678571D02*
X121954819Y-104297619D01*
X121954819Y-104297619D02*
X120954819Y-104297619D01*
X120954819Y-104297619D02*
X120954819Y-104630952D01*
X120954819Y-104630952D02*
X121002438Y-104726190D01*
X121002438Y-104726190D02*
X121050057Y-104773809D01*
X121050057Y-104773809D02*
X121145295Y-104821428D01*
X121145295Y-104821428D02*
X121240533Y-104821428D01*
X121240533Y-104821428D02*
X121335771Y-104773809D01*
X121335771Y-104773809D02*
X121383390Y-104726190D01*
X121383390Y-104726190D02*
X121431009Y-104630952D01*
X121431009Y-104630952D02*
X121431009Y-104297619D01*
X121573866Y-105297619D02*
X121573866Y-106059524D01*
X120954819Y-106440476D02*
X121954819Y-107107142D01*
X120954819Y-107107142D02*
X121954819Y-106440476D01*
X121954819Y-107488095D02*
X120954819Y-107488095D01*
X121431009Y-107488095D02*
X121431009Y-108059523D01*
X121954819Y-108059523D02*
X120954819Y-108059523D01*
X121573866Y-108535714D02*
X121573866Y-109297619D01*
X121669104Y-109726190D02*
X121669104Y-110202380D01*
X121954819Y-109630952D02*
X120954819Y-109964285D01*
X120954819Y-109964285D02*
X121954819Y-110297618D01*
D11*
%TO.C,J2*%
X152015000Y-101190000D02*
X157985000Y-101190000D01*
X152015000Y-123810000D02*
X152015000Y-101190000D01*
X152775000Y-101950000D02*
X152775000Y-112500000D01*
X152775000Y-123050000D02*
X152775000Y-112500000D01*
X155725000Y-101200000D02*
X155725000Y-101950000D01*
X155725000Y-101950000D02*
X152775000Y-101950000D01*
X155725000Y-123050000D02*
X152775000Y-123050000D01*
X155725000Y-123800000D02*
X155725000Y-123050000D01*
X157225000Y-101200000D02*
X157975000Y-101200000D01*
X157225000Y-103000000D02*
X157225000Y-101200000D01*
X157225000Y-104500000D02*
X157975000Y-104500000D01*
X157225000Y-120500000D02*
X157225000Y-104500000D01*
X157225000Y-122000000D02*
X157975000Y-122000000D01*
X157225000Y-123800000D02*
X157225000Y-122000000D01*
X157975000Y-101200000D02*
X157975000Y-103000000D01*
X157975000Y-103000000D02*
X157225000Y-103000000D01*
X157975000Y-104500000D02*
X157975000Y-120500000D01*
X157975000Y-120500000D02*
X157225000Y-120500000D01*
X157975000Y-122000000D02*
X157975000Y-123800000D01*
X157975000Y-123800000D02*
X157225000Y-123800000D01*
X157985000Y-101190000D02*
X157985000Y-123810000D01*
X157985000Y-123810000D02*
X152015000Y-123810000D01*
X158275000Y-122850000D02*
X158275000Y-124100000D01*
X158275000Y-124100000D02*
X157025000Y-124100000D01*
%TO.C,J1*%
X121990000Y-71940000D02*
X127960000Y-71940000D01*
X121990000Y-89560000D02*
X121990000Y-71940000D01*
X122750000Y-72700000D02*
X122750000Y-80750000D01*
X122750000Y-88800000D02*
X122750000Y-80750000D01*
X125700000Y-71950000D02*
X125700000Y-72700000D01*
X125700000Y-72700000D02*
X122750000Y-72700000D01*
X125700000Y-88800000D02*
X122750000Y-88800000D01*
X125700000Y-89550000D02*
X125700000Y-88800000D01*
X127200000Y-71950000D02*
X127950000Y-71950000D01*
X127200000Y-73750000D02*
X127200000Y-71950000D01*
X127200000Y-75250000D02*
X127950000Y-75250000D01*
X127200000Y-86250000D02*
X127200000Y-75250000D01*
X127200000Y-87750000D02*
X127950000Y-87750000D01*
X127200000Y-89550000D02*
X127200000Y-87750000D01*
X127950000Y-71950000D02*
X127950000Y-73750000D01*
X127950000Y-73750000D02*
X127200000Y-73750000D01*
X127950000Y-75250000D02*
X127950000Y-86250000D01*
X127950000Y-86250000D02*
X127200000Y-86250000D01*
X127950000Y-87750000D02*
X127950000Y-89550000D01*
X127950000Y-89550000D02*
X127200000Y-89550000D01*
X127960000Y-71940000D02*
X127960000Y-89560000D01*
X127960000Y-89560000D02*
X121990000Y-89560000D01*
X128250000Y-88600000D02*
X128250000Y-89850000D01*
X128250000Y-89850000D02*
X127000000Y-89850000D01*
%TO.C,J3*%
X122750000Y-101150000D02*
X124000000Y-101150000D01*
X122750000Y-102400000D02*
X122750000Y-101150000D01*
X123040000Y-101440000D02*
X129010000Y-101440000D01*
X123040000Y-124060000D02*
X123040000Y-101440000D01*
X123050000Y-101450000D02*
X123800000Y-101450000D01*
X123050000Y-103250000D02*
X123050000Y-101450000D01*
X123050000Y-104750000D02*
X123800000Y-104750000D01*
X123050000Y-120750000D02*
X123050000Y-104750000D01*
X123050000Y-122250000D02*
X123800000Y-122250000D01*
X123050000Y-124050000D02*
X123050000Y-122250000D01*
X123800000Y-101450000D02*
X123800000Y-103250000D01*
X123800000Y-103250000D02*
X123050000Y-103250000D01*
X123800000Y-104750000D02*
X123800000Y-120750000D01*
X123800000Y-120750000D02*
X123050000Y-120750000D01*
X123800000Y-122250000D02*
X123800000Y-124050000D01*
X123800000Y-124050000D02*
X123050000Y-124050000D01*
X125300000Y-101450000D02*
X125300000Y-102200000D01*
X125300000Y-102200000D02*
X128250000Y-102200000D01*
X125300000Y-123300000D02*
X128250000Y-123300000D01*
X125300000Y-124050000D02*
X125300000Y-123300000D01*
X128250000Y-102200000D02*
X128250000Y-112750000D01*
X128250000Y-123300000D02*
X128250000Y-112750000D01*
X129010000Y-101440000D02*
X129010000Y-124060000D01*
X129010000Y-124060000D02*
X123040000Y-124060000D01*
%TD*%
%LPC*%
D12*
%TO.C,SW4*%
X140674250Y-73619950D03*
D13*
X140674250Y-78119951D03*
X147176650Y-78119951D03*
X147176650Y-73619950D03*
%TD*%
D12*
%TO.C,SW3*%
X148674250Y-81619950D03*
D13*
X148674250Y-86119951D03*
X155176650Y-86119951D03*
X155176650Y-81619950D03*
%TD*%
D12*
%TO.C,SW2*%
X133174250Y-81619950D03*
D13*
X133174250Y-86119951D03*
X139676650Y-86119951D03*
X139676650Y-81619950D03*
%TD*%
D12*
%TO.C,SW1*%
X140674250Y-89619950D03*
D13*
X140674250Y-94119951D03*
X147176650Y-94119951D03*
X147176650Y-89619950D03*
%TD*%
D14*
%TO.C,REF\u002A\u002A*%
X237000000Y-128500000D03*
%TD*%
D15*
%TO.C,D1*%
X126770000Y-98000000D03*
D16*
X124230000Y-98000000D03*
%TD*%
D17*
%TO.C,U2*%
X146160000Y-105540000D03*
D18*
X143620000Y-105540000D03*
X141080000Y-105540000D03*
X138540000Y-105540000D03*
X136000000Y-105540000D03*
X133460000Y-105540000D03*
X146160000Y-103000000D03*
X143620000Y-103000000D03*
X141080000Y-103000000D03*
X138540000Y-103000000D03*
X136000000Y-103000000D03*
X133460000Y-103000000D03*
%TD*%
D14*
%TO.C,REF\u002A\u002A*%
X237000000Y-67000000D03*
%TD*%
D19*
%TO.C,R1*%
X134500000Y-92500000D03*
D20*
X122816000Y-92500000D03*
%TD*%
D15*
%TO.C,U1*%
X168906650Y-122619950D03*
D16*
X171446650Y-122619950D03*
X173986650Y-122619950D03*
X176526650Y-122619950D03*
X179066650Y-122619950D03*
X181606650Y-122619950D03*
X184146650Y-122619950D03*
X218436650Y-122819950D03*
X220976650Y-122819950D03*
X223516650Y-122819950D03*
X226056650Y-122819950D03*
X228596650Y-122819950D03*
X231136650Y-122819950D03*
X233676650Y-122819950D03*
%TD*%
D14*
%TO.C,REF\u002A\u002A*%
X125000000Y-128500000D03*
%TD*%
%TO.C,REF\u002A\u002A*%
X125000000Y-67000000D03*
%TD*%
D21*
%TO.C,J2*%
X155525000Y-121250000D03*
D22*
X155525000Y-118750000D03*
X155525000Y-116250000D03*
X155525000Y-113750000D03*
X155525000Y-111250000D03*
X155525000Y-108750000D03*
X155525000Y-106250000D03*
X155525000Y-103750000D03*
%TD*%
D21*
%TO.C,J1*%
X125500000Y-87000000D03*
D22*
X125500000Y-84500000D03*
X125500000Y-82000000D03*
X125500000Y-79500000D03*
X125500000Y-77000000D03*
X125500000Y-74500000D03*
%TD*%
D23*
%TO.C,J3*%
X125500000Y-104000000D03*
D22*
X125500000Y-106500000D03*
X125500000Y-109000000D03*
X125500000Y-111500000D03*
X125500000Y-114000000D03*
X125500000Y-116500000D03*
X125500000Y-119000000D03*
X125500000Y-121500000D03*
%TD*%
%LPD*%
M02*
