%TF.GenerationSoftware,KiCad,Pcbnew,9.0.6*%
%TF.CreationDate,2026-02-08T10:16:36-06:00*%
%TF.ProjectId,display-pcb,64697370-6c61-4792-9d70-63622e6b6963,rev?*%
%TF.SameCoordinates,Original*%
%TF.FileFunction,Copper,L1,Top*%
%TF.FilePolarity,Positive*%
%FSLAX46Y46*%
G04 Gerber Fmt 4.6, Leading zero omitted, Abs format (unit mm)*
G04 Created by KiCad (PCBNEW 9.0.6) date 2026-02-08 10:16:36*
%MOMM*%
%LPD*%
G01*
G04 APERTURE LIST*
G04 Aperture macros list*
%AMRoundRect*
0 Rectangle with rounded corners*
0 $1 Rounding radius*
0 $2 $3 $4 $5 $6 $7 $8 $9 X,Y pos of 4 corners*
0 Add a 4 corners polygon primitive as box body*
4,1,4,$2,$3,$4,$5,$6,$7,$8,$9,$2,$3,0*
0 Add four circle primitives for the rounded corners*
1,1,$1+$1,$2,$3*
1,1,$1+$1,$4,$5*
1,1,$1+$1,$6,$7*
1,1,$1+$1,$8,$9*
0 Add four rect primitives between the rounded corners*
20,1,$1+$1,$2,$3,$4,$5,0*
20,1,$1+$1,$4,$5,$6,$7,0*
20,1,$1+$1,$6,$7,$8,$9,0*
20,1,$1+$1,$8,$9,$2,$3,0*%
G04 Aperture macros list end*
%TA.AperFunction,ComponentPad*%
%ADD10R,1.498600X1.498600*%
%TD*%
%TA.AperFunction,ComponentPad*%
%ADD11C,1.498600*%
%TD*%
%TA.AperFunction,ComponentPad*%
%ADD12R,1.800000X1.800000*%
%TD*%
%TA.AperFunction,ComponentPad*%
%ADD13C,1.800000*%
%TD*%
%TA.AperFunction,ComponentPad*%
%ADD14RoundRect,0.250000X0.702500X0.702500X-0.702500X0.702500X-0.702500X-0.702500X0.702500X-0.702500X0*%
%TD*%
%TA.AperFunction,ComponentPad*%
%ADD15C,1.905000*%
%TD*%
%TA.AperFunction,ComponentPad*%
%ADD16R,1.371600X1.371600*%
%TD*%
%TA.AperFunction,ComponentPad*%
%ADD17C,1.371600*%
%TD*%
%TA.AperFunction,SMDPad,CuDef*%
%ADD18O,2.000000X7.500000*%
%TD*%
%TA.AperFunction,ComponentPad*%
%ADD19RoundRect,0.250000X0.725000X-0.600000X0.725000X0.600000X-0.725000X0.600000X-0.725000X-0.600000X0*%
%TD*%
%TA.AperFunction,ComponentPad*%
%ADD20O,1.950000X1.700000*%
%TD*%
%TA.AperFunction,ComponentPad*%
%ADD21RoundRect,0.250000X-0.725000X0.600000X-0.725000X-0.600000X0.725000X-0.600000X0.725000X0.600000X0*%
%TD*%
%TA.AperFunction,Conductor*%
%ADD22C,0.200000*%
%TD*%
G04 APERTURE END LIST*
D10*
%TO.P,SW4,1,1*%
%TO.N,BTN3*%
X140674250Y-73619950D03*
D11*
%TO.P,SW4,3,3*%
%TO.N,GND*%
X140674250Y-78119951D03*
%TO.P,SW4,4,4*%
%TO.N,unconnected-(SW4-Pad4)*%
X147176650Y-78119951D03*
%TO.P,SW4,2,2*%
%TO.N,unconnected-(SW4-Pad2)*%
X147176650Y-73619950D03*
%TD*%
D10*
%TO.P,SW3,1,1*%
%TO.N,BTN2*%
X148674250Y-81619950D03*
D11*
%TO.P,SW3,3,3*%
%TO.N,GND*%
X148674250Y-86119951D03*
%TO.P,SW3,4,4*%
%TO.N,unconnected-(SW3-Pad4)*%
X155176650Y-86119951D03*
%TO.P,SW3,2,2*%
%TO.N,unconnected-(SW3-Pad2)*%
X155176650Y-81619950D03*
%TD*%
D10*
%TO.P,SW2,1,1*%
%TO.N,BTN1*%
X133174250Y-81619950D03*
D11*
%TO.P,SW2,3,3*%
%TO.N,GND*%
X133174250Y-86119951D03*
%TO.P,SW2,4,4*%
%TO.N,unconnected-(SW2-Pad4)*%
X139676650Y-86119951D03*
%TO.P,SW2,2,2*%
%TO.N,unconnected-(SW2-Pad2)*%
X139676650Y-81619950D03*
%TD*%
D10*
%TO.P,SW1,1,1*%
%TO.N,BTN0*%
X140674250Y-89619950D03*
D11*
%TO.P,SW1,3,3*%
%TO.N,GND*%
X140674250Y-94119951D03*
%TO.P,SW1,4,4*%
%TO.N,unconnected-(SW1-Pad4)*%
X147176650Y-94119951D03*
%TO.P,SW1,2,2*%
%TO.N,unconnected-(SW1-Pad2)*%
X147176650Y-89619950D03*
%TD*%
D12*
%TO.P,D1,1,K*%
%TO.N,GND*%
X126770000Y-98000000D03*
D13*
%TO.P,D1,2,A*%
%TO.N,Net-(D1-A)*%
X124230000Y-98000000D03*
%TD*%
D14*
%TO.P,U2,1,CSn*%
%TO.N,SD_CSn*%
X146160000Y-105540000D03*
D15*
%TO.P,U2,2,MOSI/Cmd*%
%TO.N,SD_MOSI*%
X143620000Y-105540000D03*
%TO.P,U2,3,MISO/Data0*%
%TO.N,SD_MISO*%
X141080000Y-105540000D03*
%TO.P,U2,4,SCK*%
%TO.N,SD_SCK*%
X138540000Y-105540000D03*
%TO.P,U2,5,GND*%
%TO.N,GND*%
X136000000Y-105540000D03*
%TO.P,U2,6,VCC*%
%TO.N,SD_3V3*%
X133460000Y-105540000D03*
%TO.P,U2,7*%
%TO.N,N/C*%
X146160000Y-103000000D03*
%TO.P,U2,8*%
X143620000Y-103000000D03*
%TO.P,U2,9*%
X141080000Y-103000000D03*
%TO.P,U2,10*%
X138540000Y-103000000D03*
%TO.P,U2,11*%
X136000000Y-103000000D03*
%TO.P,U2,12*%
X133460000Y-103000000D03*
%TD*%
D16*
%TO.P,R1,1*%
%TO.N,3V3*%
X134500000Y-92500000D03*
D17*
%TO.P,R1,2*%
%TO.N,Net-(D1-A)*%
X122816000Y-92500000D03*
%TD*%
D12*
%TO.P,U1,1,H-*%
%TO.N,unconnected-(U1-H--Pad1)*%
X168906650Y-122619950D03*
D13*
%TO.P,U1,2,SCL*%
%TO.N,SCL*%
X171446650Y-122619950D03*
%TO.P,U1,3,SI*%
%TO.N,SI*%
X173986650Y-122619950D03*
%TO.P,U1,4,VDD*%
%TO.N,3V3*%
X176526650Y-122619950D03*
%TO.P,U1,5,A0*%
%TO.N,A0*%
X179066650Y-122619950D03*
%TO.P,U1,6,/RESET*%
%TO.N,{slash}RESET*%
X181606650Y-122619950D03*
%TO.P,U1,7,/CS*%
%TO.N,{slash}CS*%
X184146650Y-122619950D03*
%TO.P,U1,8,VSS*%
%TO.N,GND*%
X218436650Y-122819950D03*
%TO.P,U1,9,NC*%
%TO.N,unconnected-(U1-NC-Pad9)*%
X220976650Y-122819950D03*
%TO.P,U1,10,K-RED*%
%TO.N,GND*%
X223516650Y-122819950D03*
%TO.P,U1,11,K-GREED*%
X226056650Y-122819950D03*
%TO.P,U1,12,K-BLUE*%
X228596650Y-122819950D03*
%TO.P,U1,13,LED+*%
%TO.N,3V3*%
X231136650Y-122819950D03*
%TO.P,U1,14,H+*%
%TO.N,unconnected-(U1-H+-Pad14)*%
X233676650Y-122819950D03*
D18*
%TO.P,U1,15*%
%TO.N,N/C*%
X236676650Y-78619950D03*
%TO.P,U1,16*%
X162676650Y-78619950D03*
%TD*%
D19*
%TO.P,J2,1,1*%
%TO.N,3V3*%
X155525000Y-121250000D03*
D20*
%TO.P,J2,2,2*%
%TO.N,GND*%
X155525000Y-118750000D03*
%TO.P,J2,3,3*%
%TO.N,SCL*%
X155525000Y-116250000D03*
%TO.P,J2,4,4*%
%TO.N,GND*%
X155525000Y-113750000D03*
%TO.P,J2,5,5*%
%TO.N,SI*%
X155525000Y-111250000D03*
%TO.P,J2,6,6*%
%TO.N,A0*%
X155525000Y-108750000D03*
%TO.P,J2,7,7*%
%TO.N,{slash}RESET*%
X155525000Y-106250000D03*
%TO.P,J2,8,8*%
%TO.N,{slash}CS*%
X155525000Y-103750000D03*
%TD*%
D19*
%TO.P,J1,1,1*%
%TO.N,GND*%
X125500000Y-87000000D03*
D20*
%TO.P,J1,2,2*%
%TO.N,BTN0*%
X125500000Y-84500000D03*
%TO.P,J1,3,3*%
%TO.N,BTN1*%
X125500000Y-82000000D03*
%TO.P,J1,4,4*%
%TO.N,BTN2*%
X125500000Y-79500000D03*
%TO.P,J1,5,5*%
%TO.N,BTN3*%
X125500000Y-77000000D03*
%TO.P,J1,6,6*%
%TO.N,GND*%
X125500000Y-74500000D03*
%TD*%
D21*
%TO.P,J3,1,1*%
%TO.N,SD_3V3*%
X125500000Y-104000000D03*
D20*
%TO.P,J3,2,2*%
%TO.N,GND*%
X125500000Y-106500000D03*
%TO.P,J3,3,3*%
%TO.N,SD_MOSI*%
X125500000Y-109000000D03*
%TO.P,J3,4,4*%
%TO.N,GND*%
X125500000Y-111500000D03*
%TO.P,J3,5,5*%
%TO.N,SD_SCK*%
X125500000Y-114000000D03*
%TO.P,J3,6,6*%
%TO.N,SD_MISO*%
X125500000Y-116500000D03*
%TO.P,J3,7,7*%
%TO.N,SD_CSn*%
X125500000Y-119000000D03*
%TO.P,J3,8,8*%
%TO.N,GND*%
X125500000Y-121500000D03*
%TD*%
D22*
%TO.N,BTN1*%
X133174250Y-81619950D02*
X125880050Y-81619950D01*
X125880050Y-81619950D02*
X125500000Y-82000000D01*
%TO.N,BTN0*%
X140674250Y-89619950D02*
X134619950Y-89619950D01*
X134619950Y-89619950D02*
X129500000Y-84500000D01*
X129500000Y-84500000D02*
X125500000Y-84500000D01*
%TO.N,BTN2*%
X146554300Y-79500000D02*
X125500000Y-79500000D01*
X148674250Y-81619950D02*
X146554300Y-79500000D01*
%TO.N,BTN3*%
X140674250Y-73619950D02*
X128880050Y-73619950D01*
X128880050Y-73619950D02*
X125500000Y-77000000D01*
%TO.N,3V3*%
X158275000Y-124000000D02*
X175146600Y-124000000D01*
X150500000Y-100500000D02*
X150500000Y-116225000D01*
X231136650Y-122819950D02*
X229935650Y-124020950D01*
X150500000Y-116225000D02*
X155525000Y-121250000D01*
X229935650Y-124020950D02*
X177927650Y-124020950D01*
X135000000Y-92500000D02*
X140500000Y-98000000D01*
X134500000Y-92500000D02*
X135000000Y-92500000D01*
X148000000Y-98000000D02*
X150500000Y-100500000D01*
X155525000Y-121250000D02*
X158275000Y-124000000D01*
X177927650Y-124020950D02*
X176526650Y-122619950D01*
X140500000Y-98000000D02*
X148000000Y-98000000D01*
X175146600Y-124000000D02*
X176526650Y-122619950D01*
%TO.N,SI*%
X155525000Y-111250000D02*
X162616700Y-111250000D01*
X162616700Y-111250000D02*
X173986650Y-122619950D01*
%TO.N,A0*%
X155525000Y-108750000D02*
X165196700Y-108750000D01*
X165196700Y-108750000D02*
X179066650Y-122619950D01*
%TO.N,SCL*%
X165076700Y-116250000D02*
X171446650Y-122619950D01*
X155525000Y-116250000D02*
X165076700Y-116250000D01*
%TO.N,{slash}CS*%
X155525000Y-103750000D02*
X165276700Y-103750000D01*
X165276700Y-103750000D02*
X184146650Y-122619950D01*
%TO.N,{slash}RESET*%
X155525000Y-106250000D02*
X165236700Y-106250000D01*
X165236700Y-106250000D02*
X181606650Y-122619950D01*
%TO.N,Net-(D1-A)*%
X124230000Y-94230000D02*
X122816000Y-92816000D01*
X124230000Y-98000000D02*
X124230000Y-94230000D01*
X122816000Y-92816000D02*
X122816000Y-92500000D01*
%TO.N,SD_3V3*%
X131920000Y-104000000D02*
X133460000Y-105540000D01*
X125500000Y-104000000D02*
X131920000Y-104000000D01*
%TO.N,SD_CSn*%
X125500000Y-119000000D02*
X132700000Y-119000000D01*
X132700000Y-119000000D02*
X146160000Y-105540000D01*
%TO.N,SD_MOSI*%
X142333500Y-102480783D02*
X142333500Y-104253500D01*
X135480783Y-101746500D02*
X141599217Y-101746500D01*
X142333500Y-104253500D02*
X143620000Y-105540000D01*
X141599217Y-101746500D02*
X142333500Y-102480783D01*
X134746500Y-106059217D02*
X134746500Y-102480783D01*
X131805717Y-109000000D02*
X134746500Y-106059217D01*
X125500000Y-109000000D02*
X131805717Y-109000000D01*
X134746500Y-102480783D02*
X135480783Y-101746500D01*
%TO.N,SD_SCK*%
X130080000Y-114000000D02*
X138540000Y-105540000D01*
X125500000Y-114000000D02*
X130080000Y-114000000D01*
%TO.N,SD_MISO*%
X130120000Y-116500000D02*
X141080000Y-105540000D01*
X125500000Y-116500000D02*
X130120000Y-116500000D01*
%TD*%
M02*
