%TF.GenerationSoftware,KiCad,Pcbnew,9.0.6*%
%TF.CreationDate,2026-02-08T10:16:36-06:00*%
%TF.ProjectId,display-pcb,64697370-6c61-4792-9d70-63622e6b6963,rev?*%
%TF.SameCoordinates,Original*%
%TF.FileFunction,Soldermask,Top*%
%TF.FilePolarity,Negative*%
%FSLAX46Y46*%
G04 Gerber Fmt 4.6, Leading zero omitted, Abs format (unit mm)*
G04 Created by KiCad (PCBNEW 9.0.6) date 2026-02-08 10:16:36*
%MOMM*%
%LPD*%
G01*
G04 APERTURE LIST*
G04 Aperture macros list*
%AMRoundRect*
0 Rectangle with rounded corners*
0 $1 Rounding radius*
0 $2 $3 $4 $5 $6 $7 $8 $9 X,Y pos of 4 corners*
0 Add a 4 corners polygon primitive as box body*
4,1,4,$2,$3,$4,$5,$6,$7,$8,$9,$2,$3,0*
0 Add four circle primitives for the rounded corners*
1,1,$1+$1,$2,$3*
1,1,$1+$1,$4,$5*
1,1,$1+$1,$6,$7*
1,1,$1+$1,$8,$9*
0 Add four rect primitives between the rounded corners*
20,1,$1+$1,$2,$3,$4,$5,0*
20,1,$1+$1,$4,$5,$6,$7,0*
20,1,$1+$1,$6,$7,$8,$9,0*
20,1,$1+$1,$8,$9,$2,$3,0*%
G04 Aperture macros list end*
%ADD10R,1.498600X1.498600*%
%ADD11C,1.498600*%
%ADD12C,3.200000*%
%ADD13R,1.800000X1.800000*%
%ADD14C,1.800000*%
%ADD15RoundRect,0.250000X0.702500X0.702500X-0.702500X0.702500X-0.702500X-0.702500X0.702500X-0.702500X0*%
%ADD16C,1.905000*%
%ADD17R,1.371600X1.371600*%
%ADD18C,1.371600*%
%ADD19O,2.000000X7.500000*%
%ADD20RoundRect,0.250000X0.725000X-0.600000X0.725000X0.600000X-0.725000X0.600000X-0.725000X-0.600000X0*%
%ADD21O,1.950000X1.700000*%
%ADD22RoundRect,0.250000X-0.725000X0.600000X-0.725000X-0.600000X0.725000X-0.600000X0.725000X0.600000X0*%
G04 APERTURE END LIST*
D10*
%TO.C,SW4*%
X140674250Y-73619950D03*
D11*
X140674250Y-78119951D03*
X147176650Y-78119951D03*
X147176650Y-73619950D03*
%TD*%
D10*
%TO.C,SW3*%
X148674250Y-81619950D03*
D11*
X148674250Y-86119951D03*
X155176650Y-86119951D03*
X155176650Y-81619950D03*
%TD*%
D10*
%TO.C,SW2*%
X133174250Y-81619950D03*
D11*
X133174250Y-86119951D03*
X139676650Y-86119951D03*
X139676650Y-81619950D03*
%TD*%
D10*
%TO.C,SW1*%
X140674250Y-89619950D03*
D11*
X140674250Y-94119951D03*
X147176650Y-94119951D03*
X147176650Y-89619950D03*
%TD*%
D12*
%TO.C,REF\u002A\u002A*%
X237000000Y-128500000D03*
%TD*%
D13*
%TO.C,D1*%
X126770000Y-98000000D03*
D14*
X124230000Y-98000000D03*
%TD*%
D15*
%TO.C,U2*%
X146160000Y-105540000D03*
D16*
X143620000Y-105540000D03*
X141080000Y-105540000D03*
X138540000Y-105540000D03*
X136000000Y-105540000D03*
X133460000Y-105540000D03*
X146160000Y-103000000D03*
X143620000Y-103000000D03*
X141080000Y-103000000D03*
X138540000Y-103000000D03*
X136000000Y-103000000D03*
X133460000Y-103000000D03*
%TD*%
D12*
%TO.C,REF\u002A\u002A*%
X237000000Y-67000000D03*
%TD*%
D17*
%TO.C,R1*%
X134500000Y-92500000D03*
D18*
X122816000Y-92500000D03*
%TD*%
D13*
%TO.C,U1*%
X168906650Y-122619950D03*
D14*
X171446650Y-122619950D03*
X173986650Y-122619950D03*
X176526650Y-122619950D03*
X179066650Y-122619950D03*
X181606650Y-122619950D03*
X184146650Y-122619950D03*
X218436650Y-122819950D03*
X220976650Y-122819950D03*
X223516650Y-122819950D03*
X226056650Y-122819950D03*
X228596650Y-122819950D03*
X231136650Y-122819950D03*
X233676650Y-122819950D03*
D19*
X236676650Y-78619950D03*
X162676650Y-78619950D03*
%TD*%
D12*
%TO.C,REF\u002A\u002A*%
X125000000Y-128500000D03*
%TD*%
%TO.C,REF\u002A\u002A*%
X125000000Y-67000000D03*
%TD*%
D20*
%TO.C,J2*%
X155525000Y-121250000D03*
D21*
X155525000Y-118750000D03*
X155525000Y-116250000D03*
X155525000Y-113750000D03*
X155525000Y-111250000D03*
X155525000Y-108750000D03*
X155525000Y-106250000D03*
X155525000Y-103750000D03*
%TD*%
D20*
%TO.C,J1*%
X125500000Y-87000000D03*
D21*
X125500000Y-84500000D03*
X125500000Y-82000000D03*
X125500000Y-79500000D03*
X125500000Y-77000000D03*
X125500000Y-74500000D03*
%TD*%
D22*
%TO.C,J3*%
X125500000Y-104000000D03*
D21*
X125500000Y-106500000D03*
X125500000Y-109000000D03*
X125500000Y-111500000D03*
X125500000Y-114000000D03*
X125500000Y-116500000D03*
X125500000Y-119000000D03*
X125500000Y-121500000D03*
%TD*%
M02*
