%TF.GenerationSoftware,KiCad,Pcbnew,9.0.6*%
%TF.CreationDate,2026-02-08T10:16:36-06:00*%
%TF.ProjectId,display-pcb,64697370-6c61-4792-9d70-63622e6b6963,rev?*%
%TF.SameCoordinates,Original*%
%TF.FileFunction,Copper,L2,Bot*%
%TF.FilePolarity,Positive*%
%FSLAX46Y46*%
G04 Gerber Fmt 4.6, Leading zero omitted, Abs format (unit mm)*
G04 Created by KiCad (PCBNEW 9.0.6) date 2026-02-08 10:16:36*
%MOMM*%
%LPD*%
G01*
G04 APERTURE LIST*
G04 Aperture macros list*
%AMRoundRect*
0 Rectangle with rounded corners*
0 $1 Rounding radius*
0 $2 $3 $4 $5 $6 $7 $8 $9 X,Y pos of 4 corners*
0 Add a 4 corners polygon primitive as box body*
4,1,4,$2,$3,$4,$5,$6,$7,$8,$9,$2,$3,0*
0 Add four circle primitives for the rounded corners*
1,1,$1+$1,$2,$3*
1,1,$1+$1,$4,$5*
1,1,$1+$1,$6,$7*
1,1,$1+$1,$8,$9*
0 Add four rect primitives between the rounded corners*
20,1,$1+$1,$2,$3,$4,$5,0*
20,1,$1+$1,$4,$5,$6,$7,0*
20,1,$1+$1,$6,$7,$8,$9,0*
20,1,$1+$1,$8,$9,$2,$3,0*%
G04 Aperture macros list end*
%TA.AperFunction,ComponentPad*%
%ADD10R,1.498600X1.498600*%
%TD*%
%TA.AperFunction,ComponentPad*%
%ADD11C,1.498600*%
%TD*%
%TA.AperFunction,ComponentPad*%
%ADD12R,1.800000X1.800000*%
%TD*%
%TA.AperFunction,ComponentPad*%
%ADD13C,1.800000*%
%TD*%
%TA.AperFunction,ComponentPad*%
%ADD14RoundRect,0.250000X0.702500X0.702500X-0.702500X0.702500X-0.702500X-0.702500X0.702500X-0.702500X0*%
%TD*%
%TA.AperFunction,ComponentPad*%
%ADD15C,1.905000*%
%TD*%
%TA.AperFunction,ComponentPad*%
%ADD16R,1.371600X1.371600*%
%TD*%
%TA.AperFunction,ComponentPad*%
%ADD17C,1.371600*%
%TD*%
%TA.AperFunction,ComponentPad*%
%ADD18RoundRect,0.250000X0.725000X-0.600000X0.725000X0.600000X-0.725000X0.600000X-0.725000X-0.600000X0*%
%TD*%
%TA.AperFunction,ComponentPad*%
%ADD19O,1.950000X1.700000*%
%TD*%
%TA.AperFunction,ComponentPad*%
%ADD20RoundRect,0.250000X-0.725000X0.600000X-0.725000X-0.600000X0.725000X-0.600000X0.725000X0.600000X0*%
%TD*%
G04 APERTURE END LIST*
D10*
%TO.P,SW4,1,1*%
%TO.N,BTN3*%
X140674250Y-73619950D03*
D11*
%TO.P,SW4,3,3*%
%TO.N,GND*%
X140674250Y-78119951D03*
%TO.P,SW4,4,4*%
%TO.N,unconnected-(SW4-Pad4)*%
X147176650Y-78119951D03*
%TO.P,SW4,2,2*%
%TO.N,unconnected-(SW4-Pad2)*%
X147176650Y-73619950D03*
%TD*%
D10*
%TO.P,SW3,1,1*%
%TO.N,BTN2*%
X148674250Y-81619950D03*
D11*
%TO.P,SW3,3,3*%
%TO.N,GND*%
X148674250Y-86119951D03*
%TO.P,SW3,4,4*%
%TO.N,unconnected-(SW3-Pad4)*%
X155176650Y-86119951D03*
%TO.P,SW3,2,2*%
%TO.N,unconnected-(SW3-Pad2)*%
X155176650Y-81619950D03*
%TD*%
D10*
%TO.P,SW2,1,1*%
%TO.N,BTN1*%
X133174250Y-81619950D03*
D11*
%TO.P,SW2,3,3*%
%TO.N,GND*%
X133174250Y-86119951D03*
%TO.P,SW2,4,4*%
%TO.N,unconnected-(SW2-Pad4)*%
X139676650Y-86119951D03*
%TO.P,SW2,2,2*%
%TO.N,unconnected-(SW2-Pad2)*%
X139676650Y-81619950D03*
%TD*%
D10*
%TO.P,SW1,1,1*%
%TO.N,BTN0*%
X140674250Y-89619950D03*
D11*
%TO.P,SW1,3,3*%
%TO.N,GND*%
X140674250Y-94119951D03*
%TO.P,SW1,4,4*%
%TO.N,unconnected-(SW1-Pad4)*%
X147176650Y-94119951D03*
%TO.P,SW1,2,2*%
%TO.N,unconnected-(SW1-Pad2)*%
X147176650Y-89619950D03*
%TD*%
D12*
%TO.P,D1,1,K*%
%TO.N,GND*%
X126770000Y-98000000D03*
D13*
%TO.P,D1,2,A*%
%TO.N,Net-(D1-A)*%
X124230000Y-98000000D03*
%TD*%
D14*
%TO.P,U2,1,CSn*%
%TO.N,SD_CSn*%
X146160000Y-105540000D03*
D15*
%TO.P,U2,2,MOSI/Cmd*%
%TO.N,SD_MOSI*%
X143620000Y-105540000D03*
%TO.P,U2,3,MISO/Data0*%
%TO.N,SD_MISO*%
X141080000Y-105540000D03*
%TO.P,U2,4,SCK*%
%TO.N,SD_SCK*%
X138540000Y-105540000D03*
%TO.P,U2,5,GND*%
%TO.N,GND*%
X136000000Y-105540000D03*
%TO.P,U2,6,VCC*%
%TO.N,SD_3V3*%
X133460000Y-105540000D03*
%TO.P,U2,7*%
%TO.N,N/C*%
X146160000Y-103000000D03*
%TO.P,U2,8*%
X143620000Y-103000000D03*
%TO.P,U2,9*%
X141080000Y-103000000D03*
%TO.P,U2,10*%
X138540000Y-103000000D03*
%TO.P,U2,11*%
X136000000Y-103000000D03*
%TO.P,U2,12*%
X133460000Y-103000000D03*
%TD*%
D16*
%TO.P,R1,1*%
%TO.N,3V3*%
X134500000Y-92500000D03*
D17*
%TO.P,R1,2*%
%TO.N,Net-(D1-A)*%
X122816000Y-92500000D03*
%TD*%
D12*
%TO.P,U1,1,H-*%
%TO.N,unconnected-(U1-H--Pad1)*%
X168906650Y-122619950D03*
D13*
%TO.P,U1,2,SCL*%
%TO.N,SCL*%
X171446650Y-122619950D03*
%TO.P,U1,3,SI*%
%TO.N,SI*%
X173986650Y-122619950D03*
%TO.P,U1,4,VDD*%
%TO.N,3V3*%
X176526650Y-122619950D03*
%TO.P,U1,5,A0*%
%TO.N,A0*%
X179066650Y-122619950D03*
%TO.P,U1,6,/RESET*%
%TO.N,{slash}RESET*%
X181606650Y-122619950D03*
%TO.P,U1,7,/CS*%
%TO.N,{slash}CS*%
X184146650Y-122619950D03*
%TO.P,U1,8,VSS*%
%TO.N,GND*%
X218436650Y-122819950D03*
%TO.P,U1,9,NC*%
%TO.N,unconnected-(U1-NC-Pad9)*%
X220976650Y-122819950D03*
%TO.P,U1,10,K-RED*%
%TO.N,GND*%
X223516650Y-122819950D03*
%TO.P,U1,11,K-GREED*%
X226056650Y-122819950D03*
%TO.P,U1,12,K-BLUE*%
X228596650Y-122819950D03*
%TO.P,U1,13,LED+*%
%TO.N,3V3*%
X231136650Y-122819950D03*
%TO.P,U1,14,H+*%
%TO.N,unconnected-(U1-H+-Pad14)*%
X233676650Y-122819950D03*
%TD*%
D18*
%TO.P,J2,1,1*%
%TO.N,3V3*%
X155525000Y-121250000D03*
D19*
%TO.P,J2,2,2*%
%TO.N,GND*%
X155525000Y-118750000D03*
%TO.P,J2,3,3*%
%TO.N,SCL*%
X155525000Y-116250000D03*
%TO.P,J2,4,4*%
%TO.N,GND*%
X155525000Y-113750000D03*
%TO.P,J2,5,5*%
%TO.N,SI*%
X155525000Y-111250000D03*
%TO.P,J2,6,6*%
%TO.N,A0*%
X155525000Y-108750000D03*
%TO.P,J2,7,7*%
%TO.N,{slash}RESET*%
X155525000Y-106250000D03*
%TO.P,J2,8,8*%
%TO.N,{slash}CS*%
X155525000Y-103750000D03*
%TD*%
D18*
%TO.P,J1,1,1*%
%TO.N,GND*%
X125500000Y-87000000D03*
D19*
%TO.P,J1,2,2*%
%TO.N,BTN0*%
X125500000Y-84500000D03*
%TO.P,J1,3,3*%
%TO.N,BTN1*%
X125500000Y-82000000D03*
%TO.P,J1,4,4*%
%TO.N,BTN2*%
X125500000Y-79500000D03*
%TO.P,J1,5,5*%
%TO.N,BTN3*%
X125500000Y-77000000D03*
%TO.P,J1,6,6*%
%TO.N,GND*%
X125500000Y-74500000D03*
%TD*%
D20*
%TO.P,J3,1,1*%
%TO.N,SD_3V3*%
X125500000Y-104000000D03*
D19*
%TO.P,J3,2,2*%
%TO.N,GND*%
X125500000Y-106500000D03*
%TO.P,J3,3,3*%
%TO.N,SD_MOSI*%
X125500000Y-109000000D03*
%TO.P,J3,4,4*%
%TO.N,GND*%
X125500000Y-111500000D03*
%TO.P,J3,5,5*%
%TO.N,SD_SCK*%
X125500000Y-114000000D03*
%TO.P,J3,6,6*%
%TO.N,SD_MISO*%
X125500000Y-116500000D03*
%TO.P,J3,7,7*%
%TO.N,SD_CSn*%
X125500000Y-119000000D03*
%TO.P,J3,8,8*%
%TO.N,GND*%
X125500000Y-121500000D03*
%TD*%
%TA.AperFunction,Conductor*%
%TO.N,GND*%
G36*
X134816420Y-103846023D02*
G01*
X134830314Y-103862056D01*
X134891714Y-103946566D01*
X135053434Y-104108286D01*
X135053437Y-104108288D01*
X135138362Y-104169990D01*
X135181028Y-104225320D01*
X135187007Y-104294933D01*
X135166242Y-104334285D01*
X135164899Y-104351347D01*
X135931827Y-105118274D01*
X135835956Y-105143963D01*
X135739044Y-105199916D01*
X135659916Y-105279044D01*
X135603963Y-105375956D01*
X135578274Y-105471827D01*
X134811347Y-104704899D01*
X134794490Y-104706226D01*
X134775293Y-104721029D01*
X134705679Y-104727007D01*
X134643885Y-104694399D01*
X134629990Y-104678362D01*
X134609390Y-104650009D01*
X134568286Y-104593434D01*
X134406566Y-104431714D01*
X134322059Y-104370316D01*
X134279396Y-104314988D01*
X134273417Y-104245375D01*
X134306023Y-104183580D01*
X134322056Y-104169685D01*
X134406566Y-104108286D01*
X134568286Y-103946566D01*
X134629683Y-103862059D01*
X134685012Y-103819396D01*
X134754625Y-103813417D01*
X134816420Y-103846023D01*
G37*
%TD.AperFunction*%
%TA.AperFunction,Conductor*%
G36*
X137356420Y-103846023D02*
G01*
X137370314Y-103862056D01*
X137431714Y-103946566D01*
X137593434Y-104108286D01*
X137625907Y-104131879D01*
X137677938Y-104169682D01*
X137720603Y-104225013D01*
X137726582Y-104294626D01*
X137693976Y-104356421D01*
X137677938Y-104370318D01*
X137593432Y-104431715D01*
X137431716Y-104593431D01*
X137431709Y-104593440D01*
X137370007Y-104678364D01*
X137314677Y-104721030D01*
X137245063Y-104727008D01*
X137205710Y-104706242D01*
X137188651Y-104704899D01*
X136421725Y-105471826D01*
X136396037Y-105375956D01*
X136340084Y-105279044D01*
X136260956Y-105199916D01*
X136164044Y-105143963D01*
X136068171Y-105118274D01*
X136835099Y-104351347D01*
X136833772Y-104334493D01*
X136818970Y-104315297D01*
X136812991Y-104245683D01*
X136845597Y-104183888D01*
X136861633Y-104169993D01*
X136946566Y-104108286D01*
X137108286Y-103946566D01*
X137169683Y-103862059D01*
X137225012Y-103819396D01*
X137294625Y-103813417D01*
X137356420Y-103846023D01*
G37*
%TD.AperFunction*%
%TA.AperFunction,Conductor*%
G36*
X239944939Y-63770185D02*
G01*
X239990694Y-63822989D01*
X240001900Y-63874500D01*
X240001900Y-131625500D01*
X239982215Y-131692539D01*
X239929411Y-131738294D01*
X239877900Y-131749500D01*
X120374500Y-131749500D01*
X120307461Y-131729815D01*
X120261706Y-131677011D01*
X120250500Y-131625500D01*
X120250500Y-128378711D01*
X123149500Y-128378711D01*
X123149500Y-128621288D01*
X123181161Y-128861785D01*
X123243947Y-129096104D01*
X123336773Y-129320205D01*
X123336776Y-129320212D01*
X123458064Y-129530289D01*
X123458066Y-129530292D01*
X123458067Y-129530293D01*
X123605733Y-129722736D01*
X123605739Y-129722743D01*
X123777256Y-129894260D01*
X123777262Y-129894265D01*
X123969711Y-130041936D01*
X124179788Y-130163224D01*
X124403900Y-130256054D01*
X124638211Y-130318838D01*
X124818586Y-130342584D01*
X124878711Y-130350500D01*
X124878712Y-130350500D01*
X125121289Y-130350500D01*
X125169388Y-130344167D01*
X125361789Y-130318838D01*
X125596100Y-130256054D01*
X125820212Y-130163224D01*
X126030289Y-130041936D01*
X126222738Y-129894265D01*
X126394265Y-129722738D01*
X126541936Y-129530289D01*
X126663224Y-129320212D01*
X126756054Y-129096100D01*
X126818838Y-128861789D01*
X126850500Y-128621288D01*
X126850500Y-128378712D01*
X126850500Y-128378711D01*
X235149500Y-128378711D01*
X235149500Y-128621288D01*
X235181161Y-128861785D01*
X235243947Y-129096104D01*
X235336773Y-129320205D01*
X235336776Y-129320212D01*
X235458064Y-129530289D01*
X235458066Y-129530292D01*
X235458067Y-129530293D01*
X235605733Y-129722736D01*
X235605739Y-129722743D01*
X235777256Y-129894260D01*
X235777262Y-129894265D01*
X235969711Y-130041936D01*
X236179788Y-130163224D01*
X236403900Y-130256054D01*
X236638211Y-130318838D01*
X236818586Y-130342584D01*
X236878711Y-130350500D01*
X236878712Y-130350500D01*
X237121289Y-130350500D01*
X237169388Y-130344167D01*
X237361789Y-130318838D01*
X237596100Y-130256054D01*
X237820212Y-130163224D01*
X238030289Y-130041936D01*
X238222738Y-129894265D01*
X238394265Y-129722738D01*
X238541936Y-129530289D01*
X238663224Y-129320212D01*
X238756054Y-129096100D01*
X238818838Y-128861789D01*
X238850500Y-128621288D01*
X238850500Y-128378712D01*
X238818838Y-128138211D01*
X238756054Y-127903900D01*
X238663224Y-127679788D01*
X238541936Y-127469711D01*
X238394265Y-127277262D01*
X238394260Y-127277256D01*
X238222743Y-127105739D01*
X238222736Y-127105733D01*
X238030293Y-126958067D01*
X238030292Y-126958066D01*
X238030289Y-126958064D01*
X237820212Y-126836776D01*
X237820205Y-126836773D01*
X237596104Y-126743947D01*
X237361785Y-126681161D01*
X237121289Y-126649500D01*
X237121288Y-126649500D01*
X236878712Y-126649500D01*
X236878711Y-126649500D01*
X236638214Y-126681161D01*
X236403895Y-126743947D01*
X236179794Y-126836773D01*
X236179785Y-126836777D01*
X235969706Y-126958067D01*
X235777263Y-127105733D01*
X235777256Y-127105739D01*
X235605739Y-127277256D01*
X235605733Y-127277263D01*
X235458067Y-127469706D01*
X235336777Y-127679785D01*
X235336773Y-127679794D01*
X235243947Y-127903895D01*
X235181161Y-128138214D01*
X235149500Y-128378711D01*
X126850500Y-128378711D01*
X126818838Y-128138211D01*
X126756054Y-127903900D01*
X126663224Y-127679788D01*
X126541936Y-127469711D01*
X126394265Y-127277262D01*
X126394260Y-127277256D01*
X126222743Y-127105739D01*
X126222736Y-127105733D01*
X126030293Y-126958067D01*
X126030292Y-126958066D01*
X126030289Y-126958064D01*
X125820212Y-126836776D01*
X125820205Y-126836773D01*
X125596104Y-126743947D01*
X125361785Y-126681161D01*
X125121289Y-126649500D01*
X125121288Y-126649500D01*
X124878712Y-126649500D01*
X124878711Y-126649500D01*
X124638214Y-126681161D01*
X124403895Y-126743947D01*
X124179794Y-126836773D01*
X124179785Y-126836777D01*
X123969706Y-126958067D01*
X123777263Y-127105733D01*
X123777256Y-127105739D01*
X123605739Y-127277256D01*
X123605733Y-127277263D01*
X123458067Y-127469706D01*
X123336777Y-127679785D01*
X123336773Y-127679794D01*
X123243947Y-127903895D01*
X123181161Y-128138214D01*
X123149500Y-128378711D01*
X120250500Y-128378711D01*
X120250500Y-103349983D01*
X124024500Y-103349983D01*
X124024500Y-104650001D01*
X124024501Y-104650018D01*
X124035000Y-104752796D01*
X124035001Y-104752799D01*
X124083674Y-104899681D01*
X124090186Y-104919334D01*
X124182288Y-105068656D01*
X124306344Y-105192712D01*
X124446311Y-105279044D01*
X124461558Y-105288448D01*
X124508283Y-105340396D01*
X124519506Y-105409358D01*
X124491663Y-105473441D01*
X124484144Y-105481668D01*
X124345271Y-105620541D01*
X124220379Y-105792442D01*
X124123904Y-105981782D01*
X124058242Y-106183870D01*
X124058242Y-106183873D01*
X124047769Y-106250000D01*
X125095854Y-106250000D01*
X125057370Y-106316657D01*
X125025000Y-106437465D01*
X125025000Y-106562535D01*
X125057370Y-106683343D01*
X125095854Y-106750000D01*
X124047769Y-106750000D01*
X124058242Y-106816126D01*
X124058242Y-106816129D01*
X124123904Y-107018217D01*
X124220379Y-107207557D01*
X124345272Y-107379459D01*
X124345276Y-107379464D01*
X124495535Y-107529723D01*
X124495540Y-107529727D01*
X124660218Y-107649372D01*
X124702884Y-107704701D01*
X124708863Y-107774315D01*
X124676258Y-107836110D01*
X124660218Y-107850008D01*
X124495214Y-107969890D01*
X124495209Y-107969894D01*
X124344890Y-108120213D01*
X124219951Y-108292179D01*
X124123444Y-108481585D01*
X124057753Y-108683760D01*
X124024500Y-108893713D01*
X124024500Y-109106286D01*
X124050178Y-109268414D01*
X124057754Y-109316243D01*
X124103755Y-109457820D01*
X124123444Y-109518414D01*
X124219951Y-109707820D01*
X124344890Y-109879786D01*
X124495209Y-110030105D01*
X124495214Y-110030109D01*
X124660218Y-110149991D01*
X124702884Y-110205320D01*
X124708863Y-110274934D01*
X124676258Y-110336729D01*
X124660218Y-110350627D01*
X124495540Y-110470272D01*
X124495535Y-110470276D01*
X124345276Y-110620535D01*
X124345272Y-110620540D01*
X124220379Y-110792442D01*
X124123904Y-110981782D01*
X124058242Y-111183870D01*
X124058242Y-111183873D01*
X124047769Y-111250000D01*
X125095854Y-111250000D01*
X125057370Y-111316657D01*
X125025000Y-111437465D01*
X125025000Y-111562535D01*
X125057370Y-111683343D01*
X125095854Y-111750000D01*
X124047769Y-111750000D01*
X124058242Y-111816126D01*
X124058242Y-111816129D01*
X124123904Y-112018217D01*
X124220379Y-112207557D01*
X124345272Y-112379459D01*
X124345276Y-112379464D01*
X124495535Y-112529723D01*
X124495540Y-112529727D01*
X124660218Y-112649372D01*
X124702884Y-112704701D01*
X124708863Y-112774315D01*
X124676258Y-112836110D01*
X124660218Y-112850008D01*
X124495214Y-112969890D01*
X124495209Y-112969894D01*
X124344890Y-113120213D01*
X124219951Y-113292179D01*
X124123444Y-113481585D01*
X124057753Y-113683760D01*
X124024500Y-113893713D01*
X124024500Y-114106286D01*
X124057753Y-114316239D01*
X124123444Y-114518414D01*
X124219951Y-114707820D01*
X124344890Y-114879786D01*
X124495209Y-115030105D01*
X124495214Y-115030109D01*
X124659793Y-115149682D01*
X124702459Y-115205011D01*
X124708438Y-115274625D01*
X124675833Y-115336420D01*
X124659793Y-115350318D01*
X124495214Y-115469890D01*
X124495209Y-115469894D01*
X124344890Y-115620213D01*
X124219951Y-115792179D01*
X124123444Y-115981585D01*
X124057753Y-116183760D01*
X124024500Y-116393713D01*
X124024500Y-116606286D01*
X124050178Y-116768414D01*
X124057754Y-116816243D01*
X124103755Y-116957820D01*
X124123444Y-117018414D01*
X124219951Y-117207820D01*
X124344890Y-117379786D01*
X124495209Y-117530105D01*
X124495214Y-117530109D01*
X124659793Y-117649682D01*
X124702459Y-117705011D01*
X124708438Y-117774625D01*
X124675833Y-117836420D01*
X124659793Y-117850318D01*
X124495214Y-117969890D01*
X124495209Y-117969894D01*
X124344890Y-118120213D01*
X124219951Y-118292179D01*
X124123444Y-118481585D01*
X124057753Y-118683760D01*
X124024500Y-118893713D01*
X124024500Y-119106286D01*
X124057753Y-119316239D01*
X124123444Y-119518414D01*
X124219951Y-119707820D01*
X124344890Y-119879786D01*
X124495209Y-120030105D01*
X124495214Y-120030109D01*
X124660218Y-120149991D01*
X124702884Y-120205320D01*
X124708863Y-120274934D01*
X124676258Y-120336729D01*
X124660218Y-120350627D01*
X124495540Y-120470272D01*
X124495535Y-120470276D01*
X124345276Y-120620535D01*
X124345272Y-120620540D01*
X124220379Y-120792442D01*
X124123904Y-120981782D01*
X124058242Y-121183870D01*
X124058242Y-121183873D01*
X124047769Y-121250000D01*
X125095854Y-121250000D01*
X125057370Y-121316657D01*
X125025000Y-121437465D01*
X125025000Y-121562535D01*
X125057370Y-121683343D01*
X125095854Y-121750000D01*
X124047769Y-121750000D01*
X124058242Y-121816126D01*
X124058242Y-121816129D01*
X124123904Y-122018217D01*
X124220379Y-122207557D01*
X124345272Y-122379459D01*
X124345276Y-122379464D01*
X124495535Y-122529723D01*
X124495540Y-122529727D01*
X124667442Y-122654620D01*
X124856782Y-122751095D01*
X125058872Y-122816757D01*
X125250000Y-122847029D01*
X125250000Y-121904145D01*
X125316657Y-121942630D01*
X125437465Y-121975000D01*
X125562535Y-121975000D01*
X125683343Y-121942630D01*
X125750000Y-121904145D01*
X125750000Y-122847028D01*
X125941127Y-122816757D01*
X126143217Y-122751095D01*
X126332557Y-122654620D01*
X126504459Y-122529727D01*
X126504464Y-122529723D01*
X126654723Y-122379464D01*
X126654727Y-122379459D01*
X126779620Y-122207557D01*
X126876095Y-122018217D01*
X126941757Y-121816129D01*
X126941757Y-121816126D01*
X126952231Y-121750000D01*
X125904146Y-121750000D01*
X125942630Y-121683343D01*
X125975000Y-121562535D01*
X125975000Y-121437465D01*
X125942630Y-121316657D01*
X125904146Y-121250000D01*
X126952231Y-121250000D01*
X126941757Y-121183873D01*
X126941757Y-121183870D01*
X126876095Y-120981782D01*
X126779620Y-120792442D01*
X126690458Y-120669719D01*
X126654727Y-120620540D01*
X126654723Y-120620535D01*
X126504464Y-120470276D01*
X126504459Y-120470272D01*
X126339781Y-120350627D01*
X126297115Y-120295297D01*
X126291136Y-120225684D01*
X126323741Y-120163889D01*
X126339776Y-120149994D01*
X126504792Y-120030104D01*
X126655104Y-119879792D01*
X126655106Y-119879788D01*
X126655109Y-119879786D01*
X126780048Y-119707820D01*
X126780047Y-119707820D01*
X126780051Y-119707816D01*
X126876557Y-119518412D01*
X126942246Y-119316243D01*
X126975500Y-119106287D01*
X126975500Y-118893713D01*
X126942246Y-118683757D01*
X126876557Y-118481588D01*
X126780051Y-118292184D01*
X126780049Y-118292181D01*
X126780048Y-118292179D01*
X126655109Y-118120213D01*
X126504792Y-117969896D01*
X126504784Y-117969890D01*
X126340204Y-117850316D01*
X126297540Y-117794989D01*
X126291561Y-117725376D01*
X126324166Y-117663580D01*
X126340199Y-117649686D01*
X126504792Y-117530104D01*
X126655104Y-117379792D01*
X126655106Y-117379788D01*
X126655109Y-117379786D01*
X126780048Y-117207820D01*
X126780047Y-117207820D01*
X126780051Y-117207816D01*
X126876557Y-117018412D01*
X126942246Y-116816243D01*
X126975500Y-116606287D01*
X126975500Y-116393713D01*
X126942246Y-116183757D01*
X126876557Y-115981588D01*
X126780051Y-115792184D01*
X126780049Y-115792181D01*
X126780048Y-115792179D01*
X126655109Y-115620213D01*
X126504792Y-115469896D01*
X126504784Y-115469890D01*
X126340204Y-115350316D01*
X126297540Y-115294989D01*
X126291561Y-115225376D01*
X126324166Y-115163580D01*
X126340199Y-115149686D01*
X126504792Y-115030104D01*
X126655104Y-114879792D01*
X126655106Y-114879788D01*
X126655109Y-114879786D01*
X126780048Y-114707820D01*
X126780047Y-114707820D01*
X126780051Y-114707816D01*
X126876557Y-114518412D01*
X126942246Y-114316243D01*
X126975500Y-114106287D01*
X126975500Y-113893713D01*
X126942246Y-113683757D01*
X126876557Y-113481588D01*
X126780051Y-113292184D01*
X126780049Y-113292181D01*
X126780048Y-113292179D01*
X126655109Y-113120213D01*
X126504790Y-112969894D01*
X126504785Y-112969890D01*
X126339781Y-112850008D01*
X126297115Y-112794678D01*
X126291136Y-112725065D01*
X126323741Y-112663270D01*
X126339781Y-112649371D01*
X126504466Y-112529721D01*
X126654723Y-112379464D01*
X126654727Y-112379459D01*
X126779620Y-112207557D01*
X126876095Y-112018217D01*
X126941757Y-111816129D01*
X126941757Y-111816126D01*
X126952231Y-111750000D01*
X125904146Y-111750000D01*
X125942630Y-111683343D01*
X125975000Y-111562535D01*
X125975000Y-111437465D01*
X125942630Y-111316657D01*
X125904146Y-111250000D01*
X126952231Y-111250000D01*
X126941757Y-111183873D01*
X126941757Y-111183870D01*
X126876095Y-110981782D01*
X126779620Y-110792442D01*
X126654727Y-110620540D01*
X126654723Y-110620535D01*
X126504464Y-110470276D01*
X126504459Y-110470272D01*
X126339781Y-110350627D01*
X126297115Y-110295297D01*
X126291136Y-110225684D01*
X126323741Y-110163889D01*
X126339776Y-110149994D01*
X126504792Y-110030104D01*
X126655104Y-109879792D01*
X126655106Y-109879788D01*
X126655109Y-109879786D01*
X126780048Y-109707820D01*
X126780047Y-109707820D01*
X126780051Y-109707816D01*
X126876557Y-109518412D01*
X126942246Y-109316243D01*
X126975500Y-109106287D01*
X126975500Y-108893713D01*
X126942246Y-108683757D01*
X126876557Y-108481588D01*
X126780051Y-108292184D01*
X126780049Y-108292181D01*
X126780048Y-108292179D01*
X126655109Y-108120213D01*
X126504790Y-107969894D01*
X126504785Y-107969890D01*
X126339781Y-107850008D01*
X126297115Y-107794678D01*
X126291136Y-107725065D01*
X126323741Y-107663270D01*
X126339781Y-107649371D01*
X126504466Y-107529721D01*
X126654723Y-107379464D01*
X126654727Y-107379459D01*
X126779620Y-107207557D01*
X126876095Y-107018217D01*
X126941757Y-106816129D01*
X126941757Y-106816126D01*
X126952231Y-106750000D01*
X125904146Y-106750000D01*
X125942630Y-106683343D01*
X125975000Y-106562535D01*
X125975000Y-106437465D01*
X125942630Y-106316657D01*
X125904146Y-106250000D01*
X126952231Y-106250000D01*
X126941757Y-106183873D01*
X126941757Y-106183870D01*
X126876095Y-105981782D01*
X126779620Y-105792442D01*
X126654727Y-105620540D01*
X126654723Y-105620535D01*
X126515856Y-105481668D01*
X126482371Y-105420345D01*
X126487355Y-105350653D01*
X126529227Y-105294720D01*
X126538441Y-105288448D01*
X126544331Y-105284814D01*
X126544334Y-105284814D01*
X126693656Y-105192712D01*
X126817712Y-105068656D01*
X126909814Y-104919334D01*
X126964999Y-104752797D01*
X126975500Y-104650009D01*
X126975499Y-103349992D01*
X126974503Y-103340246D01*
X126964999Y-103247203D01*
X126964998Y-103247200D01*
X126920977Y-103114354D01*
X126909814Y-103080666D01*
X126909810Y-103080659D01*
X126826672Y-102945870D01*
X126826671Y-102945868D01*
X126817714Y-102931347D01*
X126817711Y-102931343D01*
X126772014Y-102885646D01*
X132007000Y-102885646D01*
X132007000Y-103114353D01*
X132042778Y-103340246D01*
X132042778Y-103340249D01*
X132113450Y-103557755D01*
X132113452Y-103557758D01*
X132217283Y-103761538D01*
X132351714Y-103946566D01*
X132513434Y-104108286D01*
X132545907Y-104131879D01*
X132597938Y-104169682D01*
X132640603Y-104225013D01*
X132646582Y-104294626D01*
X132613976Y-104356421D01*
X132597938Y-104370318D01*
X132513432Y-104431715D01*
X132351716Y-104593431D01*
X132351716Y-104593432D01*
X132351714Y-104593434D01*
X132310610Y-104650009D01*
X132217283Y-104778461D01*
X132113450Y-104982244D01*
X132042778Y-105199750D01*
X132042778Y-105199753D01*
X132007000Y-105425646D01*
X132007000Y-105654353D01*
X132042778Y-105880246D01*
X132042778Y-105880249D01*
X132113450Y-106097755D01*
X132169798Y-106208343D01*
X132217283Y-106301538D01*
X132351714Y-106486566D01*
X132513434Y-106648286D01*
X132698462Y-106782717D01*
X132889577Y-106880095D01*
X132902244Y-106886549D01*
X133119751Y-106957221D01*
X133119752Y-106957221D01*
X133119755Y-106957222D01*
X133345646Y-106993000D01*
X133345647Y-106993000D01*
X133574353Y-106993000D01*
X133574354Y-106993000D01*
X133800245Y-106957222D01*
X133800248Y-106957221D01*
X133800249Y-106957221D01*
X134017755Y-106886549D01*
X134017755Y-106886548D01*
X134017758Y-106886548D01*
X134221538Y-106782717D01*
X134406566Y-106648286D01*
X134568286Y-106486566D01*
X134629991Y-106401635D01*
X134685321Y-106358970D01*
X134754934Y-106352991D01*
X134794290Y-106373756D01*
X134811347Y-106375099D01*
X135578274Y-105608172D01*
X135603963Y-105704044D01*
X135659916Y-105800956D01*
X135739044Y-105880084D01*
X135835956Y-105936037D01*
X135931827Y-105961725D01*
X135164899Y-106728651D01*
X135238725Y-106782288D01*
X135238731Y-106782292D01*
X135442431Y-106886082D01*
X135659875Y-106956734D01*
X135885687Y-106992500D01*
X136114313Y-106992500D01*
X136340124Y-106956734D01*
X136340125Y-106956734D01*
X136557568Y-106886082D01*
X136761276Y-106782288D01*
X136835098Y-106728651D01*
X136068172Y-105961725D01*
X136164044Y-105936037D01*
X136260956Y-105880084D01*
X136340084Y-105800956D01*
X136396037Y-105704044D01*
X136421725Y-105608173D01*
X137188651Y-106375099D01*
X137205503Y-106373772D01*
X137224699Y-106358970D01*
X137294312Y-106352989D01*
X137356107Y-106385594D01*
X137370007Y-106401634D01*
X137370317Y-106402061D01*
X137431714Y-106486566D01*
X137593434Y-106648286D01*
X137778462Y-106782717D01*
X137969577Y-106880095D01*
X137982244Y-106886549D01*
X138199751Y-106957221D01*
X138199752Y-106957221D01*
X138199755Y-106957222D01*
X138425646Y-106993000D01*
X138425647Y-106993000D01*
X138654353Y-106993000D01*
X138654354Y-106993000D01*
X138880245Y-106957222D01*
X138880248Y-106957221D01*
X138880249Y-106957221D01*
X139097755Y-106886549D01*
X139097755Y-106886548D01*
X139097758Y-106886548D01*
X139301538Y-106782717D01*
X139486566Y-106648286D01*
X139648286Y-106486566D01*
X139709683Y-106402059D01*
X139765012Y-106359396D01*
X139834625Y-106353417D01*
X139896420Y-106386023D01*
X139910314Y-106402056D01*
X139971714Y-106486566D01*
X140133434Y-106648286D01*
X140318462Y-106782717D01*
X140509577Y-106880095D01*
X140522244Y-106886549D01*
X140739751Y-106957221D01*
X140739752Y-106957221D01*
X140739755Y-106957222D01*
X140965646Y-106993000D01*
X140965647Y-106993000D01*
X141194353Y-106993000D01*
X141194354Y-106993000D01*
X141420245Y-106957222D01*
X141420248Y-106957221D01*
X141420249Y-106957221D01*
X141637755Y-106886549D01*
X141637755Y-106886548D01*
X141637758Y-106886548D01*
X141841538Y-106782717D01*
X142026566Y-106648286D01*
X142188286Y-106486566D01*
X142249683Y-106402059D01*
X142305012Y-106359396D01*
X142374625Y-106353417D01*
X142436420Y-106386023D01*
X142450314Y-106402056D01*
X142511714Y-106486566D01*
X142673434Y-106648286D01*
X142858462Y-106782717D01*
X143049577Y-106880095D01*
X143062244Y-106886549D01*
X143279751Y-106957221D01*
X143279752Y-106957221D01*
X143279755Y-106957222D01*
X143505646Y-106993000D01*
X143505647Y-106993000D01*
X143734353Y-106993000D01*
X143734354Y-106993000D01*
X143960245Y-106957222D01*
X143960248Y-106957221D01*
X143960249Y-106957221D01*
X144177755Y-106886549D01*
X144177755Y-106886548D01*
X144177758Y-106886548D01*
X144381538Y-106782717D01*
X144566566Y-106648286D01*
X144616142Y-106598709D01*
X144677463Y-106565225D01*
X144747154Y-106570209D01*
X144803088Y-106612080D01*
X144809361Y-106621294D01*
X144864788Y-106711156D01*
X144988844Y-106835212D01*
X145138166Y-106927314D01*
X145304703Y-106982499D01*
X145407491Y-106993000D01*
X146912508Y-106992999D01*
X147015297Y-106982499D01*
X147181834Y-106927314D01*
X147331156Y-106835212D01*
X147455212Y-106711156D01*
X147547314Y-106561834D01*
X147602499Y-106395297D01*
X147613000Y-106292509D01*
X147612999Y-104787492D01*
X147612244Y-104780105D01*
X147602499Y-104684703D01*
X147602498Y-104684700D01*
X147600257Y-104677938D01*
X147547314Y-104518166D01*
X147455212Y-104368844D01*
X147331156Y-104244788D01*
X147241294Y-104189361D01*
X147194570Y-104137413D01*
X147183347Y-104068450D01*
X147211191Y-104004368D01*
X147218700Y-103996151D01*
X147268286Y-103946566D01*
X147402717Y-103761538D01*
X147462752Y-103643713D01*
X154049500Y-103643713D01*
X154049500Y-103856286D01*
X154081363Y-104057464D01*
X154082754Y-104066243D01*
X154140767Y-104244789D01*
X154148444Y-104268414D01*
X154244951Y-104457820D01*
X154369890Y-104629786D01*
X154520209Y-104780105D01*
X154520214Y-104780109D01*
X154684793Y-104899682D01*
X154727459Y-104955011D01*
X154733438Y-105024625D01*
X154700833Y-105086420D01*
X154684793Y-105100318D01*
X154520214Y-105219890D01*
X154520209Y-105219894D01*
X154369890Y-105370213D01*
X154244951Y-105542179D01*
X154148444Y-105731585D01*
X154082753Y-105933760D01*
X154053271Y-106119905D01*
X154049500Y-106143713D01*
X154049500Y-106356287D01*
X154052267Y-106373756D01*
X154082592Y-106565225D01*
X154082754Y-106566243D01*
X154129839Y-106711156D01*
X154148444Y-106768414D01*
X154244951Y-106957820D01*
X154369890Y-107129786D01*
X154520209Y-107280105D01*
X154520214Y-107280109D01*
X154684793Y-107399682D01*
X154727459Y-107455011D01*
X154733438Y-107524625D01*
X154700833Y-107586420D01*
X154684793Y-107600318D01*
X154520214Y-107719890D01*
X154520209Y-107719894D01*
X154369890Y-107870213D01*
X154244951Y-108042179D01*
X154148444Y-108231585D01*
X154082753Y-108433760D01*
X154049500Y-108643713D01*
X154049500Y-108856286D01*
X154082753Y-109066239D01*
X154148444Y-109268414D01*
X154244951Y-109457820D01*
X154369890Y-109629786D01*
X154520209Y-109780105D01*
X154520214Y-109780109D01*
X154684793Y-109899682D01*
X154727459Y-109955011D01*
X154733438Y-110024625D01*
X154700833Y-110086420D01*
X154684793Y-110100318D01*
X154520214Y-110219890D01*
X154520209Y-110219894D01*
X154369890Y-110370213D01*
X154244951Y-110542179D01*
X154148444Y-110731585D01*
X154082753Y-110933760D01*
X154049500Y-111143713D01*
X154049500Y-111356286D01*
X154082166Y-111562535D01*
X154082754Y-111566243D01*
X154120802Y-111683343D01*
X154148444Y-111768414D01*
X154244951Y-111957820D01*
X154369890Y-112129786D01*
X154520209Y-112280105D01*
X154520214Y-112280109D01*
X154685218Y-112399991D01*
X154727884Y-112455320D01*
X154733863Y-112524934D01*
X154701258Y-112586729D01*
X154685218Y-112600627D01*
X154520540Y-112720272D01*
X154520535Y-112720276D01*
X154370276Y-112870535D01*
X154370272Y-112870540D01*
X154245379Y-113042442D01*
X154148904Y-113231782D01*
X154083242Y-113433870D01*
X154083242Y-113433873D01*
X154072769Y-113500000D01*
X155120854Y-113500000D01*
X155082370Y-113566657D01*
X155050000Y-113687465D01*
X155050000Y-113812535D01*
X155082370Y-113933343D01*
X155120854Y-114000000D01*
X154072769Y-114000000D01*
X154083242Y-114066126D01*
X154083242Y-114066129D01*
X154148904Y-114268217D01*
X154245379Y-114457557D01*
X154370272Y-114629459D01*
X154370276Y-114629464D01*
X154520535Y-114779723D01*
X154520540Y-114779727D01*
X154685218Y-114899372D01*
X154727884Y-114954701D01*
X154733863Y-115024315D01*
X154701258Y-115086110D01*
X154685218Y-115100008D01*
X154520214Y-115219890D01*
X154520209Y-115219894D01*
X154369890Y-115370213D01*
X154244951Y-115542179D01*
X154148444Y-115731585D01*
X154082753Y-115933760D01*
X154049500Y-116143713D01*
X154049500Y-116356286D01*
X154082753Y-116566239D01*
X154148444Y-116768414D01*
X154244951Y-116957820D01*
X154369890Y-117129786D01*
X154520209Y-117280105D01*
X154520214Y-117280109D01*
X154685218Y-117399991D01*
X154727884Y-117455320D01*
X154733863Y-117524934D01*
X154701258Y-117586729D01*
X154685218Y-117600627D01*
X154520540Y-117720272D01*
X154520535Y-117720276D01*
X154370276Y-117870535D01*
X154370272Y-117870540D01*
X154245379Y-118042442D01*
X154148904Y-118231782D01*
X154083242Y-118433870D01*
X154083242Y-118433873D01*
X154072769Y-118500000D01*
X155120854Y-118500000D01*
X155082370Y-118566657D01*
X155050000Y-118687465D01*
X155050000Y-118812535D01*
X155082370Y-118933343D01*
X155120854Y-119000000D01*
X154072769Y-119000000D01*
X154083242Y-119066126D01*
X154083242Y-119066129D01*
X154148904Y-119268217D01*
X154245379Y-119457557D01*
X154370272Y-119629459D01*
X154370276Y-119629464D01*
X154509143Y-119768331D01*
X154542628Y-119829654D01*
X154537644Y-119899346D01*
X154495772Y-119955279D01*
X154486559Y-119961551D01*
X154331342Y-120057289D01*
X154207289Y-120181342D01*
X154115187Y-120330663D01*
X154115185Y-120330668D01*
X154087349Y-120414670D01*
X154060001Y-120497203D01*
X154060001Y-120497204D01*
X154060000Y-120497204D01*
X154049500Y-120599983D01*
X154049500Y-121900001D01*
X154049501Y-121900018D01*
X154060000Y-122002796D01*
X154060001Y-122002799D01*
X154091117Y-122096700D01*
X154115186Y-122169334D01*
X154207288Y-122318656D01*
X154331344Y-122442712D01*
X154480666Y-122534814D01*
X154647203Y-122589999D01*
X154749991Y-122600500D01*
X156300008Y-122600499D01*
X156402797Y-122589999D01*
X156569334Y-122534814D01*
X156718656Y-122442712D01*
X156842712Y-122318656D01*
X156934814Y-122169334D01*
X156989999Y-122002797D01*
X157000500Y-121900009D01*
X157000500Y-121672085D01*
X167506150Y-121672085D01*
X167506150Y-123567820D01*
X167506151Y-123567826D01*
X167512558Y-123627433D01*
X167562852Y-123762278D01*
X167562856Y-123762285D01*
X167649102Y-123877494D01*
X167649105Y-123877497D01*
X167764314Y-123963743D01*
X167764321Y-123963747D01*
X167899167Y-124014041D01*
X167899166Y-124014041D01*
X167906094Y-124014785D01*
X167958777Y-124020450D01*
X169854522Y-124020449D01*
X169914133Y-124014041D01*
X170048981Y-123963746D01*
X170164196Y-123877496D01*
X170250446Y-123762281D01*
X170278079Y-123688193D01*
X170280251Y-123682370D01*
X170322121Y-123626436D01*
X170387586Y-123602018D01*
X170455859Y-123616869D01*
X170484114Y-123638021D01*
X170534286Y-123688193D01*
X170534291Y-123688197D01*
X170595015Y-123732315D01*
X170712628Y-123817765D01*
X170841025Y-123883187D01*
X170909043Y-123917845D01*
X170909046Y-123917846D01*
X171013871Y-123951905D01*
X171118699Y-123985965D01*
X171336428Y-124020450D01*
X171336429Y-124020450D01*
X171556871Y-124020450D01*
X171556872Y-124020450D01*
X171774601Y-123985965D01*
X171984256Y-123917845D01*
X172180672Y-123817765D01*
X172359015Y-123688192D01*
X172514892Y-123532315D01*
X172525454Y-123517776D01*
X172616332Y-123392695D01*
X172671661Y-123350029D01*
X172741275Y-123344050D01*
X172803070Y-123376655D01*
X172816968Y-123392695D01*
X172918402Y-123532308D01*
X172918406Y-123532313D01*
X173074286Y-123688193D01*
X173074291Y-123688197D01*
X173135015Y-123732315D01*
X173252628Y-123817765D01*
X173381025Y-123883187D01*
X173449043Y-123917845D01*
X173449046Y-123917846D01*
X173553871Y-123951905D01*
X173658699Y-123985965D01*
X173876428Y-124020450D01*
X173876429Y-124020450D01*
X174096871Y-124020450D01*
X174096872Y-124020450D01*
X174314601Y-123985965D01*
X174524256Y-123917845D01*
X174720672Y-123817765D01*
X174899015Y-123688192D01*
X175054892Y-123532315D01*
X175065454Y-123517776D01*
X175156332Y-123392695D01*
X175211661Y-123350029D01*
X175281275Y-123344050D01*
X175343070Y-123376655D01*
X175356968Y-123392695D01*
X175458402Y-123532308D01*
X175458406Y-123532313D01*
X175614286Y-123688193D01*
X175614291Y-123688197D01*
X175675015Y-123732315D01*
X175792628Y-123817765D01*
X175921025Y-123883187D01*
X175989043Y-123917845D01*
X175989046Y-123917846D01*
X176093871Y-123951905D01*
X176198699Y-123985965D01*
X176416428Y-124020450D01*
X176416429Y-124020450D01*
X176636871Y-124020450D01*
X176636872Y-124020450D01*
X176854601Y-123985965D01*
X177064256Y-123917845D01*
X177260672Y-123817765D01*
X177439015Y-123688192D01*
X177594892Y-123532315D01*
X177605454Y-123517776D01*
X177696332Y-123392695D01*
X177751661Y-123350029D01*
X177821275Y-123344050D01*
X177883070Y-123376655D01*
X177896968Y-123392695D01*
X177998402Y-123532308D01*
X177998406Y-123532313D01*
X178154286Y-123688193D01*
X178154291Y-123688197D01*
X178215015Y-123732315D01*
X178332628Y-123817765D01*
X178461025Y-123883187D01*
X178529043Y-123917845D01*
X178529046Y-123917846D01*
X178633871Y-123951905D01*
X178738699Y-123985965D01*
X178956428Y-124020450D01*
X178956429Y-124020450D01*
X179176871Y-124020450D01*
X179176872Y-124020450D01*
X179394601Y-123985965D01*
X179604256Y-123917845D01*
X179800672Y-123817765D01*
X179979015Y-123688192D01*
X180134892Y-123532315D01*
X180145454Y-123517776D01*
X180236332Y-123392695D01*
X180291661Y-123350029D01*
X180361275Y-123344050D01*
X180423070Y-123376655D01*
X180436968Y-123392695D01*
X180538402Y-123532308D01*
X180538406Y-123532313D01*
X180694286Y-123688193D01*
X180694291Y-123688197D01*
X180755015Y-123732315D01*
X180872628Y-123817765D01*
X181001025Y-123883187D01*
X181069043Y-123917845D01*
X181069046Y-123917846D01*
X181173871Y-123951905D01*
X181278699Y-123985965D01*
X181496428Y-124020450D01*
X181496429Y-124020450D01*
X181716871Y-124020450D01*
X181716872Y-124020450D01*
X181934601Y-123985965D01*
X182144256Y-123917845D01*
X182340672Y-123817765D01*
X182519015Y-123688192D01*
X182674892Y-123532315D01*
X182685454Y-123517776D01*
X182776332Y-123392695D01*
X182831661Y-123350029D01*
X182901275Y-123344050D01*
X182963070Y-123376655D01*
X182976968Y-123392695D01*
X183078402Y-123532308D01*
X183078406Y-123532313D01*
X183234286Y-123688193D01*
X183234291Y-123688197D01*
X183295015Y-123732315D01*
X183412628Y-123817765D01*
X183541025Y-123883187D01*
X183609043Y-123917845D01*
X183609046Y-123917846D01*
X183713871Y-123951905D01*
X183818699Y-123985965D01*
X184036428Y-124020450D01*
X184036429Y-124020450D01*
X184256871Y-124020450D01*
X184256872Y-124020450D01*
X184474601Y-123985965D01*
X184684256Y-123917845D01*
X184880672Y-123817765D01*
X185059015Y-123688192D01*
X185214892Y-123532315D01*
X185344465Y-123353972D01*
X185444545Y-123157556D01*
X185512665Y-122947901D01*
X185547150Y-122730172D01*
X185547150Y-122709768D01*
X217036650Y-122709768D01*
X217036650Y-122930131D01*
X217071123Y-123147785D01*
X217139217Y-123357360D01*
X217239261Y-123553706D01*
X217285582Y-123617463D01*
X218036650Y-122866395D01*
X218036650Y-122872611D01*
X218063909Y-122974344D01*
X218116570Y-123065556D01*
X218191044Y-123140030D01*
X218282256Y-123192691D01*
X218383989Y-123219950D01*
X218390203Y-123219950D01*
X217639135Y-123971015D01*
X217639135Y-123971016D01*
X217702893Y-124017338D01*
X217899239Y-124117382D01*
X218108814Y-124185476D01*
X218326469Y-124219950D01*
X218546831Y-124219950D01*
X218764485Y-124185476D01*
X218974060Y-124117382D01*
X219170410Y-124017336D01*
X219234163Y-123971016D01*
X219234164Y-123971016D01*
X218483097Y-123219950D01*
X218489311Y-123219950D01*
X218591044Y-123192691D01*
X218682256Y-123140030D01*
X218756730Y-123065556D01*
X218809391Y-122974344D01*
X218836650Y-122872611D01*
X218836650Y-122866398D01*
X219587716Y-123617464D01*
X219587716Y-123617463D01*
X219606022Y-123592269D01*
X219661351Y-123549603D01*
X219730965Y-123543624D01*
X219792760Y-123576229D01*
X219806658Y-123592269D01*
X219908402Y-123732308D01*
X219908406Y-123732313D01*
X220064286Y-123888193D01*
X220064291Y-123888197D01*
X220168278Y-123963747D01*
X220242628Y-124017765D01*
X220371025Y-124083187D01*
X220439043Y-124117845D01*
X220439046Y-124117846D01*
X220543871Y-124151905D01*
X220648699Y-124185965D01*
X220866428Y-124220450D01*
X220866429Y-124220450D01*
X221086871Y-124220450D01*
X221086872Y-124220450D01*
X221304601Y-124185965D01*
X221514256Y-124117845D01*
X221710672Y-124017765D01*
X221889015Y-123888192D01*
X222044892Y-123732315D01*
X222146641Y-123592267D01*
X222201970Y-123549603D01*
X222271583Y-123543624D01*
X222333379Y-123576229D01*
X222347278Y-123592269D01*
X222365582Y-123617463D01*
X223116650Y-122866395D01*
X223116650Y-122872611D01*
X223143909Y-122974344D01*
X223196570Y-123065556D01*
X223271044Y-123140030D01*
X223362256Y-123192691D01*
X223463989Y-123219950D01*
X223470203Y-123219950D01*
X222719135Y-123971015D01*
X222719135Y-123971016D01*
X222782893Y-124017338D01*
X222979239Y-124117382D01*
X223188814Y-124185476D01*
X223406469Y-124219950D01*
X223626831Y-124219950D01*
X223844485Y-124185476D01*
X224054060Y-124117382D01*
X224250410Y-124017336D01*
X224314163Y-123971016D01*
X224314164Y-123971016D01*
X223563097Y-123219950D01*
X223569311Y-123219950D01*
X223671044Y-123192691D01*
X223762256Y-123140030D01*
X223836730Y-123065556D01*
X223889391Y-122974344D01*
X223916650Y-122872611D01*
X223916650Y-122866398D01*
X224667715Y-123617463D01*
X224686330Y-123591843D01*
X224741660Y-123549177D01*
X224811273Y-123543198D01*
X224873069Y-123575803D01*
X224886967Y-123591843D01*
X224905581Y-123617463D01*
X224905582Y-123617463D01*
X225656650Y-122866395D01*
X225656650Y-122872611D01*
X225683909Y-122974344D01*
X225736570Y-123065556D01*
X225811044Y-123140030D01*
X225902256Y-123192691D01*
X226003989Y-123219950D01*
X226010203Y-123219950D01*
X225259135Y-123971015D01*
X225259135Y-123971016D01*
X225322893Y-124017338D01*
X225519239Y-124117382D01*
X225728814Y-124185476D01*
X225946469Y-124219950D01*
X226166831Y-124219950D01*
X226384485Y-124185476D01*
X226594060Y-124117382D01*
X226790410Y-124017336D01*
X226854163Y-123971016D01*
X226854164Y-123971016D01*
X226103097Y-123219950D01*
X226109311Y-123219950D01*
X226211044Y-123192691D01*
X226302256Y-123140030D01*
X226376730Y-123065556D01*
X226429391Y-122974344D01*
X226456650Y-122872611D01*
X226456650Y-122866398D01*
X227207715Y-123617463D01*
X227226330Y-123591843D01*
X227281660Y-123549177D01*
X227351273Y-123543198D01*
X227413069Y-123575803D01*
X227426967Y-123591843D01*
X227445581Y-123617463D01*
X227445582Y-123617463D01*
X228196650Y-122866395D01*
X228196650Y-122872611D01*
X228223909Y-122974344D01*
X228276570Y-123065556D01*
X228351044Y-123140030D01*
X228442256Y-123192691D01*
X228543989Y-123219950D01*
X228550203Y-123219950D01*
X227799135Y-123971015D01*
X227799135Y-123971016D01*
X227862893Y-124017338D01*
X228059239Y-124117382D01*
X228268814Y-124185476D01*
X228486469Y-124219950D01*
X228706831Y-124219950D01*
X228924485Y-124185476D01*
X229134060Y-124117382D01*
X229330410Y-124017336D01*
X229394163Y-123971016D01*
X229394164Y-123971016D01*
X228643097Y-123219950D01*
X228649311Y-123219950D01*
X228751044Y-123192691D01*
X228842256Y-123140030D01*
X228916730Y-123065556D01*
X228969391Y-122974344D01*
X228996650Y-122872611D01*
X228996650Y-122866398D01*
X229747716Y-123617464D01*
X229747716Y-123617463D01*
X229766022Y-123592269D01*
X229821351Y-123549603D01*
X229890965Y-123543624D01*
X229952760Y-123576229D01*
X229966658Y-123592269D01*
X230068402Y-123732308D01*
X230068406Y-123732313D01*
X230224286Y-123888193D01*
X230224291Y-123888197D01*
X230328278Y-123963747D01*
X230402628Y-124017765D01*
X230531025Y-124083187D01*
X230599043Y-124117845D01*
X230599046Y-124117846D01*
X230703871Y-124151905D01*
X230808699Y-124185965D01*
X231026428Y-124220450D01*
X231026429Y-124220450D01*
X231246871Y-124220450D01*
X231246872Y-124220450D01*
X231464601Y-124185965D01*
X231674256Y-124117845D01*
X231870672Y-124017765D01*
X232049015Y-123888192D01*
X232204892Y-123732315D01*
X232215454Y-123717776D01*
X232306332Y-123592695D01*
X232361661Y-123550029D01*
X232431275Y-123544050D01*
X232493070Y-123576655D01*
X232506968Y-123592695D01*
X232608402Y-123732308D01*
X232608406Y-123732313D01*
X232764286Y-123888193D01*
X232764291Y-123888197D01*
X232868278Y-123963747D01*
X232942628Y-124017765D01*
X233071025Y-124083187D01*
X233139043Y-124117845D01*
X233139046Y-124117846D01*
X233243871Y-124151905D01*
X233348699Y-124185965D01*
X233566428Y-124220450D01*
X233566429Y-124220450D01*
X233786871Y-124220450D01*
X233786872Y-124220450D01*
X234004601Y-124185965D01*
X234214256Y-124117845D01*
X234410672Y-124017765D01*
X234589015Y-123888192D01*
X234744892Y-123732315D01*
X234874465Y-123553972D01*
X234974545Y-123357556D01*
X234975710Y-123353972D01*
X235028112Y-123192691D01*
X235042665Y-123147901D01*
X235077150Y-122930172D01*
X235077150Y-122709728D01*
X235042665Y-122491999D01*
X234986344Y-122318657D01*
X234974546Y-122282346D01*
X234974545Y-122282343D01*
X234916961Y-122169331D01*
X234874465Y-122085928D01*
X234828335Y-122022435D01*
X234744897Y-121907591D01*
X234744893Y-121907586D01*
X234589013Y-121751706D01*
X234589008Y-121751702D01*
X234410675Y-121622137D01*
X234410674Y-121622136D01*
X234410672Y-121622135D01*
X234293702Y-121562535D01*
X234214256Y-121522054D01*
X234214253Y-121522053D01*
X234004602Y-121453935D01*
X233895736Y-121436692D01*
X233786872Y-121419450D01*
X233566428Y-121419450D01*
X233493851Y-121430945D01*
X233348697Y-121453935D01*
X233139046Y-121522053D01*
X233139043Y-121522054D01*
X232942624Y-121622137D01*
X232764291Y-121751702D01*
X232764286Y-121751706D01*
X232608406Y-121907586D01*
X232608402Y-121907591D01*
X232506968Y-122047204D01*
X232451638Y-122089870D01*
X232382025Y-122095849D01*
X232320230Y-122063243D01*
X232306332Y-122047204D01*
X232204897Y-121907591D01*
X232204893Y-121907586D01*
X232049013Y-121751706D01*
X232049008Y-121751702D01*
X231870675Y-121622137D01*
X231870674Y-121622136D01*
X231870672Y-121622135D01*
X231753702Y-121562535D01*
X231674256Y-121522054D01*
X231674253Y-121522053D01*
X231464602Y-121453935D01*
X231355736Y-121436692D01*
X231246872Y-121419450D01*
X231026428Y-121419450D01*
X230953851Y-121430945D01*
X230808697Y-121453935D01*
X230599046Y-121522053D01*
X230599043Y-121522054D01*
X230402624Y-121622137D01*
X230224291Y-121751702D01*
X230224286Y-121751706D01*
X230068406Y-121907586D01*
X229966658Y-122047631D01*
X229911328Y-122090296D01*
X229841715Y-122096275D01*
X229779920Y-122063669D01*
X229766021Y-122047630D01*
X229747716Y-122022435D01*
X229747715Y-122022435D01*
X228996650Y-122773501D01*
X228996650Y-122767289D01*
X228969391Y-122665556D01*
X228916730Y-122574344D01*
X228842256Y-122499870D01*
X228751044Y-122447209D01*
X228649311Y-122419950D01*
X228643095Y-122419950D01*
X229394163Y-121668882D01*
X229330406Y-121622561D01*
X229134060Y-121522517D01*
X228924485Y-121454423D01*
X228706831Y-121419950D01*
X228486469Y-121419950D01*
X228268814Y-121454423D01*
X228059239Y-121522517D01*
X227862883Y-121622566D01*
X227799135Y-121668881D01*
X227799135Y-121668882D01*
X228550203Y-122419950D01*
X228543989Y-122419950D01*
X228442256Y-122447209D01*
X228351044Y-122499870D01*
X228276570Y-122574344D01*
X228223909Y-122665556D01*
X228196650Y-122767289D01*
X228196650Y-122773503D01*
X227445582Y-122022435D01*
X227445580Y-122022435D01*
X227426967Y-122048055D01*
X227371638Y-122090721D01*
X227302024Y-122096700D01*
X227240229Y-122064095D01*
X227226331Y-122048055D01*
X227207717Y-122022435D01*
X227207715Y-122022435D01*
X226456650Y-122773501D01*
X226456650Y-122767289D01*
X226429391Y-122665556D01*
X226376730Y-122574344D01*
X226302256Y-122499870D01*
X226211044Y-122447209D01*
X226109311Y-122419950D01*
X226103095Y-122419950D01*
X226854163Y-121668882D01*
X226790406Y-121622561D01*
X226594060Y-121522517D01*
X226384485Y-121454423D01*
X226166831Y-121419950D01*
X225946469Y-121419950D01*
X225728814Y-121454423D01*
X225519239Y-121522517D01*
X225322883Y-121622566D01*
X225259135Y-121668881D01*
X225259135Y-121668882D01*
X226010203Y-122419950D01*
X226003989Y-122419950D01*
X225902256Y-122447209D01*
X225811044Y-122499870D01*
X225736570Y-122574344D01*
X225683909Y-122665556D01*
X225656650Y-122767289D01*
X225656650Y-122773503D01*
X224905582Y-122022435D01*
X224905580Y-122022435D01*
X224886967Y-122048055D01*
X224831638Y-122090721D01*
X224762024Y-122096700D01*
X224700229Y-122064095D01*
X224686331Y-122048055D01*
X224667717Y-122022435D01*
X224667715Y-122022435D01*
X223916650Y-122773501D01*
X223916650Y-122767289D01*
X223889391Y-122665556D01*
X223836730Y-122574344D01*
X223762256Y-122499870D01*
X223671044Y-122447209D01*
X223569311Y-122419950D01*
X223563095Y-122419950D01*
X224314163Y-121668882D01*
X224250406Y-121622561D01*
X224054060Y-121522517D01*
X223844485Y-121454423D01*
X223626831Y-121419950D01*
X223406469Y-121419950D01*
X223188814Y-121454423D01*
X222979239Y-121522517D01*
X222782883Y-121622566D01*
X222719135Y-121668881D01*
X222719135Y-121668882D01*
X223470203Y-122419950D01*
X223463989Y-122419950D01*
X223362256Y-122447209D01*
X223271044Y-122499870D01*
X223196570Y-122574344D01*
X223143909Y-122665556D01*
X223116650Y-122767289D01*
X223116650Y-122773503D01*
X222365582Y-122022435D01*
X222365580Y-122022435D01*
X222347276Y-122047629D01*
X222291946Y-122090295D01*
X222222333Y-122096274D01*
X222160538Y-122063668D01*
X222146640Y-122047629D01*
X222044897Y-121907590D01*
X221889013Y-121751706D01*
X221889008Y-121751702D01*
X221710675Y-121622137D01*
X221710674Y-121622136D01*
X221710672Y-121622135D01*
X221593702Y-121562535D01*
X221514256Y-121522054D01*
X221514253Y-121522053D01*
X221304602Y-121453935D01*
X221195736Y-121436692D01*
X221086872Y-121419450D01*
X220866428Y-121419450D01*
X220793851Y-121430945D01*
X220648697Y-121453935D01*
X220439046Y-121522053D01*
X220439043Y-121522054D01*
X220242624Y-121622137D01*
X220064291Y-121751702D01*
X220064286Y-121751706D01*
X219908406Y-121907586D01*
X219806658Y-122047631D01*
X219751328Y-122090296D01*
X219681715Y-122096275D01*
X219619920Y-122063669D01*
X219606021Y-122047630D01*
X219587716Y-122022435D01*
X219587715Y-122022435D01*
X218836650Y-122773501D01*
X218836650Y-122767289D01*
X218809391Y-122665556D01*
X218756730Y-122574344D01*
X218682256Y-122499870D01*
X218591044Y-122447209D01*
X218489311Y-122419950D01*
X218483095Y-122419950D01*
X219234163Y-121668882D01*
X219170406Y-121622561D01*
X218974060Y-121522517D01*
X218764485Y-121454423D01*
X218546831Y-121419950D01*
X218326469Y-121419950D01*
X218108814Y-121454423D01*
X217899239Y-121522517D01*
X217702883Y-121622566D01*
X217639135Y-121668881D01*
X217639135Y-121668882D01*
X218390203Y-122419950D01*
X218383989Y-122419950D01*
X218282256Y-122447209D01*
X218191044Y-122499870D01*
X218116570Y-122574344D01*
X218063909Y-122665556D01*
X218036650Y-122767289D01*
X218036650Y-122773503D01*
X217285582Y-122022435D01*
X217285581Y-122022435D01*
X217239266Y-122086183D01*
X217139217Y-122282539D01*
X217071123Y-122492114D01*
X217036650Y-122709768D01*
X185547150Y-122709768D01*
X185547150Y-122509728D01*
X185512665Y-122291999D01*
X185472808Y-122169331D01*
X185444546Y-122082346D01*
X185444545Y-122082343D01*
X185373356Y-121942630D01*
X185344465Y-121885928D01*
X185338441Y-121877636D01*
X185274063Y-121789026D01*
X185214897Y-121707591D01*
X185214893Y-121707586D01*
X185059013Y-121551706D01*
X185059008Y-121551702D01*
X184880675Y-121422137D01*
X184880674Y-121422136D01*
X184880672Y-121422135D01*
X184763441Y-121362402D01*
X184684256Y-121322054D01*
X184684253Y-121322053D01*
X184474602Y-121253935D01*
X184365736Y-121236692D01*
X184256872Y-121219450D01*
X184036428Y-121219450D01*
X183963851Y-121230945D01*
X183818697Y-121253935D01*
X183609046Y-121322053D01*
X183609043Y-121322054D01*
X183412624Y-121422137D01*
X183234291Y-121551702D01*
X183234286Y-121551706D01*
X183078406Y-121707586D01*
X183078402Y-121707591D01*
X182976968Y-121847204D01*
X182921638Y-121889870D01*
X182852025Y-121895849D01*
X182790230Y-121863243D01*
X182776332Y-121847204D01*
X182674897Y-121707591D01*
X182674893Y-121707586D01*
X182519013Y-121551706D01*
X182519008Y-121551702D01*
X182340675Y-121422137D01*
X182340674Y-121422136D01*
X182340672Y-121422135D01*
X182223441Y-121362402D01*
X182144256Y-121322054D01*
X182144253Y-121322053D01*
X181934602Y-121253935D01*
X181825736Y-121236692D01*
X181716872Y-121219450D01*
X181496428Y-121219450D01*
X181423851Y-121230945D01*
X181278697Y-121253935D01*
X181069046Y-121322053D01*
X181069043Y-121322054D01*
X180872624Y-121422137D01*
X180694291Y-121551702D01*
X180694286Y-121551706D01*
X180538406Y-121707586D01*
X180538402Y-121707591D01*
X180436968Y-121847204D01*
X180381638Y-121889870D01*
X180312025Y-121895849D01*
X180250230Y-121863243D01*
X180236332Y-121847204D01*
X180134897Y-121707591D01*
X180134893Y-121707586D01*
X179979013Y-121551706D01*
X179979008Y-121551702D01*
X179800675Y-121422137D01*
X179800674Y-121422136D01*
X179800672Y-121422135D01*
X179683441Y-121362402D01*
X179604256Y-121322054D01*
X179604253Y-121322053D01*
X179394602Y-121253935D01*
X179285736Y-121236692D01*
X179176872Y-121219450D01*
X178956428Y-121219450D01*
X178883851Y-121230945D01*
X178738697Y-121253935D01*
X178529046Y-121322053D01*
X178529043Y-121322054D01*
X178332624Y-121422137D01*
X178154291Y-121551702D01*
X178154286Y-121551706D01*
X177998406Y-121707586D01*
X177998402Y-121707591D01*
X177896968Y-121847204D01*
X177841638Y-121889870D01*
X177772025Y-121895849D01*
X177710230Y-121863243D01*
X177696332Y-121847204D01*
X177594897Y-121707591D01*
X177594893Y-121707586D01*
X177439013Y-121551706D01*
X177439008Y-121551702D01*
X177260675Y-121422137D01*
X177260674Y-121422136D01*
X177260672Y-121422135D01*
X177143441Y-121362402D01*
X177064256Y-121322054D01*
X177064253Y-121322053D01*
X176854602Y-121253935D01*
X176745736Y-121236692D01*
X176636872Y-121219450D01*
X176416428Y-121219450D01*
X176343851Y-121230945D01*
X176198697Y-121253935D01*
X175989046Y-121322053D01*
X175989043Y-121322054D01*
X175792624Y-121422137D01*
X175614291Y-121551702D01*
X175614286Y-121551706D01*
X175458406Y-121707586D01*
X175458402Y-121707591D01*
X175356968Y-121847204D01*
X175301638Y-121889870D01*
X175232025Y-121895849D01*
X175170230Y-121863243D01*
X175156332Y-121847204D01*
X175054897Y-121707591D01*
X175054893Y-121707586D01*
X174899013Y-121551706D01*
X174899008Y-121551702D01*
X174720675Y-121422137D01*
X174720674Y-121422136D01*
X174720672Y-121422135D01*
X174603441Y-121362402D01*
X174524256Y-121322054D01*
X174524253Y-121322053D01*
X174314602Y-121253935D01*
X174205736Y-121236692D01*
X174096872Y-121219450D01*
X173876428Y-121219450D01*
X173803851Y-121230945D01*
X173658697Y-121253935D01*
X173449046Y-121322053D01*
X173449043Y-121322054D01*
X173252624Y-121422137D01*
X173074291Y-121551702D01*
X173074286Y-121551706D01*
X172918406Y-121707586D01*
X172918402Y-121707591D01*
X172816968Y-121847204D01*
X172761638Y-121889870D01*
X172692025Y-121895849D01*
X172630230Y-121863243D01*
X172616332Y-121847204D01*
X172514897Y-121707591D01*
X172514893Y-121707586D01*
X172359013Y-121551706D01*
X172359008Y-121551702D01*
X172180675Y-121422137D01*
X172180674Y-121422136D01*
X172180672Y-121422135D01*
X172063441Y-121362402D01*
X171984256Y-121322054D01*
X171984253Y-121322053D01*
X171774602Y-121253935D01*
X171665736Y-121236692D01*
X171556872Y-121219450D01*
X171336428Y-121219450D01*
X171263851Y-121230945D01*
X171118697Y-121253935D01*
X170909046Y-121322053D01*
X170909043Y-121322054D01*
X170712624Y-121422137D01*
X170534291Y-121551702D01*
X170534286Y-121551706D01*
X170484113Y-121601879D01*
X170422790Y-121635363D01*
X170353098Y-121630378D01*
X170297165Y-121588507D01*
X170280251Y-121557530D01*
X170250447Y-121477621D01*
X170250443Y-121477614D01*
X170164197Y-121362405D01*
X170164194Y-121362402D01*
X170048985Y-121276156D01*
X170048978Y-121276152D01*
X169914132Y-121225858D01*
X169914133Y-121225858D01*
X169854533Y-121219451D01*
X169854531Y-121219450D01*
X169854523Y-121219450D01*
X169854514Y-121219450D01*
X167958779Y-121219450D01*
X167958773Y-121219451D01*
X167899166Y-121225858D01*
X167764321Y-121276152D01*
X167764314Y-121276156D01*
X167649105Y-121362402D01*
X167649102Y-121362405D01*
X167562856Y-121477614D01*
X167562852Y-121477621D01*
X167512558Y-121612467D01*
X167506151Y-121672066D01*
X167506150Y-121672085D01*
X157000500Y-121672085D01*
X157000499Y-121250000D01*
X157000499Y-120599998D01*
X157000498Y-120599981D01*
X156989999Y-120497203D01*
X156989998Y-120497200D01*
X156941386Y-120350500D01*
X156934814Y-120330666D01*
X156842712Y-120181344D01*
X156718656Y-120057288D01*
X156569334Y-119965186D01*
X156569332Y-119965185D01*
X156563440Y-119961551D01*
X156516716Y-119909603D01*
X156505493Y-119840641D01*
X156533337Y-119776558D01*
X156540856Y-119768330D01*
X156679728Y-119629458D01*
X156804620Y-119457557D01*
X156901095Y-119268217D01*
X156966757Y-119066129D01*
X156966757Y-119066126D01*
X156977231Y-119000000D01*
X155929146Y-119000000D01*
X155967630Y-118933343D01*
X156000000Y-118812535D01*
X156000000Y-118687465D01*
X155967630Y-118566657D01*
X155929146Y-118500000D01*
X156977231Y-118500000D01*
X156966757Y-118433873D01*
X156966757Y-118433870D01*
X156901095Y-118231782D01*
X156804620Y-118042442D01*
X156679727Y-117870540D01*
X156679723Y-117870535D01*
X156529464Y-117720276D01*
X156529459Y-117720272D01*
X156364781Y-117600627D01*
X156322115Y-117545297D01*
X156316136Y-117475684D01*
X156348741Y-117413889D01*
X156364776Y-117399994D01*
X156529792Y-117280104D01*
X156680104Y-117129792D01*
X156680106Y-117129788D01*
X156680109Y-117129786D01*
X156805048Y-116957820D01*
X156805047Y-116957820D01*
X156805051Y-116957816D01*
X156901557Y-116768412D01*
X156967246Y-116566243D01*
X157000500Y-116356287D01*
X157000500Y-116143713D01*
X156967246Y-115933757D01*
X156901557Y-115731588D01*
X156805051Y-115542184D01*
X156805049Y-115542181D01*
X156805048Y-115542179D01*
X156680109Y-115370213D01*
X156529790Y-115219894D01*
X156529785Y-115219890D01*
X156364781Y-115100008D01*
X156322115Y-115044678D01*
X156316136Y-114975065D01*
X156348741Y-114913270D01*
X156364781Y-114899371D01*
X156529466Y-114779721D01*
X156679723Y-114629464D01*
X156679727Y-114629459D01*
X156804620Y-114457557D01*
X156901095Y-114268217D01*
X156966757Y-114066129D01*
X156966757Y-114066126D01*
X156977231Y-114000000D01*
X155929146Y-114000000D01*
X155967630Y-113933343D01*
X156000000Y-113812535D01*
X156000000Y-113687465D01*
X155967630Y-113566657D01*
X155929146Y-113500000D01*
X156977231Y-113500000D01*
X156966757Y-113433873D01*
X156966757Y-113433870D01*
X156901095Y-113231782D01*
X156804620Y-113042442D01*
X156679727Y-112870540D01*
X156679723Y-112870535D01*
X156529464Y-112720276D01*
X156529459Y-112720272D01*
X156364781Y-112600627D01*
X156322115Y-112545297D01*
X156316136Y-112475684D01*
X156348741Y-112413889D01*
X156364776Y-112399994D01*
X156529792Y-112280104D01*
X156680104Y-112129792D01*
X156680106Y-112129788D01*
X156680109Y-112129786D01*
X156805048Y-111957820D01*
X156805047Y-111957820D01*
X156805051Y-111957816D01*
X156901557Y-111768412D01*
X156967246Y-111566243D01*
X157000500Y-111356287D01*
X157000500Y-111143713D01*
X156967246Y-110933757D01*
X156901557Y-110731588D01*
X156805051Y-110542184D01*
X156805049Y-110542181D01*
X156805048Y-110542179D01*
X156680109Y-110370213D01*
X156529792Y-110219896D01*
X156452704Y-110163889D01*
X156365204Y-110100316D01*
X156322540Y-110044989D01*
X156316561Y-109975376D01*
X156349166Y-109913580D01*
X156365199Y-109899686D01*
X156529792Y-109780104D01*
X156680104Y-109629792D01*
X156680106Y-109629788D01*
X156680109Y-109629786D01*
X156805048Y-109457820D01*
X156805047Y-109457820D01*
X156805051Y-109457816D01*
X156901557Y-109268412D01*
X156967246Y-109066243D01*
X157000500Y-108856287D01*
X157000500Y-108643713D01*
X156967246Y-108433757D01*
X156901557Y-108231588D01*
X156805051Y-108042184D01*
X156805049Y-108042181D01*
X156805048Y-108042179D01*
X156680109Y-107870213D01*
X156529792Y-107719896D01*
X156451852Y-107663270D01*
X156365204Y-107600316D01*
X156322540Y-107544989D01*
X156316561Y-107475376D01*
X156349166Y-107413580D01*
X156365199Y-107399686D01*
X156529792Y-107280104D01*
X156680104Y-107129792D01*
X156680106Y-107129788D01*
X156680109Y-107129786D01*
X156805048Y-106957820D01*
X156805047Y-106957820D01*
X156805051Y-106957816D01*
X156901557Y-106768412D01*
X156967246Y-106566243D01*
X157000500Y-106356287D01*
X157000500Y-106143713D01*
X156967246Y-105933757D01*
X156901557Y-105731588D01*
X156805051Y-105542184D01*
X156805049Y-105542181D01*
X156805048Y-105542179D01*
X156680109Y-105370213D01*
X156529792Y-105219896D01*
X156529784Y-105219890D01*
X156365204Y-105100316D01*
X156322540Y-105044989D01*
X156316561Y-104975376D01*
X156349166Y-104913580D01*
X156365199Y-104899686D01*
X156529792Y-104780104D01*
X156680104Y-104629792D01*
X156680106Y-104629788D01*
X156680109Y-104629786D01*
X156805048Y-104457820D01*
X156805047Y-104457820D01*
X156805051Y-104457816D01*
X156901557Y-104268412D01*
X156967246Y-104066243D01*
X157000500Y-103856287D01*
X157000500Y-103643713D01*
X156967246Y-103433757D01*
X156901557Y-103231588D01*
X156805051Y-103042184D01*
X156805049Y-103042181D01*
X156805048Y-103042179D01*
X156680109Y-102870213D01*
X156529786Y-102719890D01*
X156357820Y-102594951D01*
X156168414Y-102498444D01*
X156168413Y-102498443D01*
X156168412Y-102498443D01*
X155966243Y-102432754D01*
X155966241Y-102432753D01*
X155966240Y-102432753D01*
X155804957Y-102407208D01*
X155756287Y-102399500D01*
X155293713Y-102399500D01*
X155245042Y-102407208D01*
X155083760Y-102432753D01*
X154881585Y-102498444D01*
X154692179Y-102594951D01*
X154520213Y-102719890D01*
X154369890Y-102870213D01*
X154244951Y-103042179D01*
X154148444Y-103231585D01*
X154082753Y-103433760D01*
X154049500Y-103643713D01*
X147462752Y-103643713D01*
X147506548Y-103557758D01*
X147574055Y-103349992D01*
X147577221Y-103340249D01*
X147577221Y-103340248D01*
X147577222Y-103340245D01*
X147613000Y-103114354D01*
X147613000Y-102885646D01*
X147577222Y-102659755D01*
X147577221Y-102659751D01*
X147577221Y-102659750D01*
X147506549Y-102442244D01*
X147484770Y-102399500D01*
X147402717Y-102238462D01*
X147268286Y-102053434D01*
X147106566Y-101891714D01*
X146921538Y-101757283D01*
X146717755Y-101653450D01*
X146500248Y-101582778D01*
X146330826Y-101555944D01*
X146274354Y-101547000D01*
X146045646Y-101547000D01*
X145970349Y-101558926D01*
X145819753Y-101582778D01*
X145819750Y-101582778D01*
X145602244Y-101653450D01*
X145398461Y-101757283D01*
X145292896Y-101833980D01*
X145213434Y-101891714D01*
X145213432Y-101891716D01*
X145213431Y-101891716D01*
X145051715Y-102053432D01*
X144990318Y-102137938D01*
X144934987Y-102180603D01*
X144865374Y-102186582D01*
X144803579Y-102153976D01*
X144789682Y-102137938D01*
X144778773Y-102122923D01*
X144728286Y-102053434D01*
X144566566Y-101891714D01*
X144381538Y-101757283D01*
X144177755Y-101653450D01*
X143960248Y-101582778D01*
X143790826Y-101555944D01*
X143734354Y-101547000D01*
X143505646Y-101547000D01*
X143430349Y-101558926D01*
X143279753Y-101582778D01*
X143279750Y-101582778D01*
X143062244Y-101653450D01*
X142858461Y-101757283D01*
X142752896Y-101833980D01*
X142673434Y-101891714D01*
X142673432Y-101891716D01*
X142673431Y-101891716D01*
X142511715Y-102053432D01*
X142450318Y-102137938D01*
X142394987Y-102180603D01*
X142325374Y-102186582D01*
X142263579Y-102153976D01*
X142249682Y-102137938D01*
X142238773Y-102122923D01*
X142188286Y-102053434D01*
X142026566Y-101891714D01*
X141841538Y-101757283D01*
X141637755Y-101653450D01*
X141420248Y-101582778D01*
X141250826Y-101555944D01*
X141194354Y-101547000D01*
X140965646Y-101547000D01*
X140890349Y-101558926D01*
X140739753Y-101582778D01*
X140739750Y-101582778D01*
X140522244Y-101653450D01*
X140318461Y-101757283D01*
X140212896Y-101833980D01*
X140133434Y-101891714D01*
X140133432Y-101891716D01*
X140133431Y-101891716D01*
X139971715Y-102053432D01*
X139910318Y-102137938D01*
X139854987Y-102180603D01*
X139785374Y-102186582D01*
X139723579Y-102153976D01*
X139709682Y-102137938D01*
X139698773Y-102122923D01*
X139648286Y-102053434D01*
X139486566Y-101891714D01*
X139301538Y-101757283D01*
X139097755Y-101653450D01*
X138880248Y-101582778D01*
X138710826Y-101555944D01*
X138654354Y-101547000D01*
X138425646Y-101547000D01*
X138350349Y-101558926D01*
X138199753Y-101582778D01*
X138199750Y-101582778D01*
X137982244Y-101653450D01*
X137778461Y-101757283D01*
X137672896Y-101833980D01*
X137593434Y-101891714D01*
X137593432Y-101891716D01*
X137593431Y-101891716D01*
X137431715Y-102053432D01*
X137370318Y-102137938D01*
X137314987Y-102180603D01*
X137245374Y-102186582D01*
X137183579Y-102153976D01*
X137169682Y-102137938D01*
X137158773Y-102122923D01*
X137108286Y-102053434D01*
X136946566Y-101891714D01*
X136761538Y-101757283D01*
X136557755Y-101653450D01*
X136340248Y-101582778D01*
X136170826Y-101555944D01*
X136114354Y-101547000D01*
X135885646Y-101547000D01*
X135810349Y-101558926D01*
X135659753Y-101582778D01*
X135659750Y-101582778D01*
X135442244Y-101653450D01*
X135238461Y-101757283D01*
X135132896Y-101833980D01*
X135053434Y-101891714D01*
X135053432Y-101891716D01*
X135053431Y-101891716D01*
X134891715Y-102053432D01*
X134830318Y-102137938D01*
X134774987Y-102180603D01*
X134705374Y-102186582D01*
X134643579Y-102153976D01*
X134629682Y-102137938D01*
X134618773Y-102122923D01*
X134568286Y-102053434D01*
X134406566Y-101891714D01*
X134221538Y-101757283D01*
X134017755Y-101653450D01*
X133800248Y-101582778D01*
X133630826Y-101555944D01*
X133574354Y-101547000D01*
X133345646Y-101547000D01*
X133270349Y-101558926D01*
X133119753Y-101582778D01*
X133119750Y-101582778D01*
X132902244Y-101653450D01*
X132698461Y-101757283D01*
X132592896Y-101833980D01*
X132513434Y-101891714D01*
X132513432Y-101891716D01*
X132513431Y-101891716D01*
X132351716Y-102053431D01*
X132351716Y-102053432D01*
X132351714Y-102053434D01*
X132293980Y-102132896D01*
X132217283Y-102238461D01*
X132113450Y-102442244D01*
X132042778Y-102659750D01*
X132042778Y-102659753D01*
X132007000Y-102885646D01*
X126772014Y-102885646D01*
X126693657Y-102807289D01*
X126693656Y-102807288D01*
X126551970Y-102719896D01*
X126544336Y-102715187D01*
X126544331Y-102715185D01*
X126542862Y-102714698D01*
X126377797Y-102660001D01*
X126377795Y-102660000D01*
X126275010Y-102649500D01*
X124724998Y-102649500D01*
X124724981Y-102649501D01*
X124622203Y-102660000D01*
X124622200Y-102660001D01*
X124455668Y-102715185D01*
X124455663Y-102715187D01*
X124306342Y-102807289D01*
X124182289Y-102931342D01*
X124090187Y-103080663D01*
X124090186Y-103080666D01*
X124035001Y-103247203D01*
X124035001Y-103247204D01*
X124035000Y-103247204D01*
X124024500Y-103349983D01*
X120250500Y-103349983D01*
X120250500Y-97889778D01*
X122829500Y-97889778D01*
X122829500Y-98110221D01*
X122863985Y-98327952D01*
X122932103Y-98537603D01*
X122932104Y-98537606D01*
X123032187Y-98734025D01*
X123161752Y-98912358D01*
X123161756Y-98912363D01*
X123317636Y-99068243D01*
X123317641Y-99068247D01*
X123473192Y-99181260D01*
X123495978Y-99197815D01*
X123612501Y-99257187D01*
X123692393Y-99297895D01*
X123692396Y-99297896D01*
X123797221Y-99331955D01*
X123902049Y-99366015D01*
X124119778Y-99400500D01*
X124119779Y-99400500D01*
X124340221Y-99400500D01*
X124340222Y-99400500D01*
X124557951Y-99366015D01*
X124767606Y-99297895D01*
X124964022Y-99197815D01*
X125142365Y-99068242D01*
X125192924Y-99017682D01*
X125254245Y-98984198D01*
X125323936Y-98989182D01*
X125379870Y-99031053D01*
X125396786Y-99062030D01*
X125426646Y-99142087D01*
X125426649Y-99142093D01*
X125512809Y-99257187D01*
X125512812Y-99257190D01*
X125627906Y-99343350D01*
X125627913Y-99343354D01*
X125762620Y-99393596D01*
X125762627Y-99393598D01*
X125822155Y-99399999D01*
X125822172Y-99400000D01*
X126520000Y-99400000D01*
X126520000Y-98375277D01*
X126596306Y-98419333D01*
X126710756Y-98450000D01*
X126829244Y-98450000D01*
X126943694Y-98419333D01*
X127020000Y-98375277D01*
X127020000Y-99400000D01*
X127717828Y-99400000D01*
X127717844Y-99399999D01*
X127777372Y-99393598D01*
X127777379Y-99393596D01*
X127912086Y-99343354D01*
X127912093Y-99343350D01*
X128027187Y-99257190D01*
X128027190Y-99257187D01*
X128113350Y-99142093D01*
X128113354Y-99142086D01*
X128163596Y-99007379D01*
X128163598Y-99007372D01*
X128169999Y-98947844D01*
X128170000Y-98947827D01*
X128170000Y-98250000D01*
X127145278Y-98250000D01*
X127189333Y-98173694D01*
X127220000Y-98059244D01*
X127220000Y-97940756D01*
X127189333Y-97826306D01*
X127145278Y-97750000D01*
X128170000Y-97750000D01*
X128170000Y-97052172D01*
X128169999Y-97052155D01*
X128163598Y-96992627D01*
X128163596Y-96992620D01*
X128113354Y-96857913D01*
X128113350Y-96857906D01*
X128027190Y-96742812D01*
X128027187Y-96742809D01*
X127912093Y-96656649D01*
X127912086Y-96656645D01*
X127777379Y-96606403D01*
X127777372Y-96606401D01*
X127717844Y-96600000D01*
X127020000Y-96600000D01*
X127020000Y-97624722D01*
X126943694Y-97580667D01*
X126829244Y-97550000D01*
X126710756Y-97550000D01*
X126596306Y-97580667D01*
X126520000Y-97624722D01*
X126520000Y-96600000D01*
X125822155Y-96600000D01*
X125762627Y-96606401D01*
X125762620Y-96606403D01*
X125627913Y-96656645D01*
X125627906Y-96656649D01*
X125512812Y-96742809D01*
X125512809Y-96742812D01*
X125426649Y-96857906D01*
X125426643Y-96857918D01*
X125396785Y-96937969D01*
X125354914Y-96993903D01*
X125289449Y-97018319D01*
X125221176Y-97003467D01*
X125192923Y-96982316D01*
X125142363Y-96931756D01*
X125142358Y-96931752D01*
X124964025Y-96802187D01*
X124964024Y-96802186D01*
X124964022Y-96802185D01*
X124901096Y-96770122D01*
X124767606Y-96702104D01*
X124767603Y-96702103D01*
X124557952Y-96633985D01*
X124449086Y-96616742D01*
X124340222Y-96599500D01*
X124119778Y-96599500D01*
X124047201Y-96610995D01*
X123902047Y-96633985D01*
X123692396Y-96702103D01*
X123692393Y-96702104D01*
X123495974Y-96802187D01*
X123317641Y-96931752D01*
X123317636Y-96931756D01*
X123161756Y-97087636D01*
X123161752Y-97087641D01*
X123032187Y-97265974D01*
X122932104Y-97462393D01*
X122932103Y-97462396D01*
X122863985Y-97672047D01*
X122829500Y-97889778D01*
X120250500Y-97889778D01*
X120250500Y-94021629D01*
X139424950Y-94021629D01*
X139424950Y-94218272D01*
X139455712Y-94412497D01*
X139516476Y-94599513D01*
X139516477Y-94599516D01*
X139605752Y-94774726D01*
X139631072Y-94809574D01*
X139631072Y-94809575D01*
X140195124Y-94245523D01*
X140212704Y-94311130D01*
X140277911Y-94424072D01*
X140370129Y-94516290D01*
X140483071Y-94581497D01*
X140548677Y-94599076D01*
X139984625Y-95163127D01*
X139984625Y-95163128D01*
X140019473Y-95188447D01*
X140194684Y-95277723D01*
X140194687Y-95277724D01*
X140381703Y-95338488D01*
X140575929Y-95369251D01*
X140772571Y-95369251D01*
X140966796Y-95338488D01*
X141153812Y-95277724D01*
X141153825Y-95277718D01*
X141329019Y-95188451D01*
X141329024Y-95188448D01*
X141363874Y-95163127D01*
X140799823Y-94599076D01*
X140865429Y-94581497D01*
X140978371Y-94516290D01*
X141070589Y-94424072D01*
X141135796Y-94311130D01*
X141153375Y-94245523D01*
X141717426Y-94809574D01*
X141742747Y-94774725D01*
X141742750Y-94774720D01*
X141832017Y-94599526D01*
X141832023Y-94599513D01*
X141892787Y-94412497D01*
X141923550Y-94218272D01*
X141923550Y-94021629D01*
X141923543Y-94021584D01*
X145926850Y-94021584D01*
X145926850Y-94218317D01*
X145957623Y-94412613D01*
X146018416Y-94599712D01*
X146107588Y-94774720D01*
X146107725Y-94774989D01*
X146223356Y-94934141D01*
X146362460Y-95073245D01*
X146521612Y-95188876D01*
X146604424Y-95231071D01*
X146696888Y-95278184D01*
X146696890Y-95278184D01*
X146696893Y-95278186D01*
X146797180Y-95310771D01*
X146883987Y-95338977D01*
X147078284Y-95369751D01*
X147078289Y-95369751D01*
X147275016Y-95369751D01*
X147469312Y-95338977D01*
X147470817Y-95338488D01*
X147656407Y-95278186D01*
X147831688Y-95188876D01*
X147990840Y-95073245D01*
X148129944Y-94934141D01*
X148245575Y-94774989D01*
X148334885Y-94599708D01*
X148395676Y-94412613D01*
X148395694Y-94412497D01*
X148426450Y-94218317D01*
X148426450Y-94021584D01*
X148395676Y-93827288D01*
X148340802Y-93658405D01*
X148334885Y-93640194D01*
X148334883Y-93640191D01*
X148334883Y-93640189D01*
X148270899Y-93514614D01*
X148245575Y-93464913D01*
X148129944Y-93305761D01*
X147990840Y-93166657D01*
X147831688Y-93051026D01*
X147656411Y-92961717D01*
X147469312Y-92900924D01*
X147275016Y-92870151D01*
X147275011Y-92870151D01*
X147078289Y-92870151D01*
X147078284Y-92870151D01*
X146883987Y-92900924D01*
X146696888Y-92961717D01*
X146521611Y-93051026D01*
X146430809Y-93116998D01*
X146362460Y-93166657D01*
X146362458Y-93166659D01*
X146362457Y-93166659D01*
X146223358Y-93305758D01*
X146223358Y-93305759D01*
X146223356Y-93305761D01*
X146173697Y-93374110D01*
X146107725Y-93464912D01*
X146018416Y-93640189D01*
X145957623Y-93827288D01*
X145926850Y-94021584D01*
X141923543Y-94021584D01*
X141892787Y-93827404D01*
X141832023Y-93640388D01*
X141832022Y-93640385D01*
X141742746Y-93465174D01*
X141717426Y-93430326D01*
X141153374Y-93994377D01*
X141135796Y-93928772D01*
X141070589Y-93815830D01*
X140978371Y-93723612D01*
X140865429Y-93658405D01*
X140799822Y-93640825D01*
X141363874Y-93076773D01*
X141329025Y-93051453D01*
X141153815Y-92962178D01*
X141153812Y-92962177D01*
X140966796Y-92901413D01*
X140772571Y-92870651D01*
X140575929Y-92870651D01*
X140381703Y-92901413D01*
X140194687Y-92962177D01*
X140194684Y-92962178D01*
X140019470Y-93051456D01*
X139984625Y-93076772D01*
X139984625Y-93076774D01*
X140548678Y-93640825D01*
X140483071Y-93658405D01*
X140370129Y-93723612D01*
X140277911Y-93815830D01*
X140212704Y-93928772D01*
X140195124Y-93994378D01*
X139631073Y-93430326D01*
X139631071Y-93430326D01*
X139605755Y-93465171D01*
X139516477Y-93640385D01*
X139516476Y-93640388D01*
X139455712Y-93827404D01*
X139424950Y-94021629D01*
X120250500Y-94021629D01*
X120250500Y-92406636D01*
X121629700Y-92406636D01*
X121629700Y-92593364D01*
X121658911Y-92777793D01*
X121716613Y-92955381D01*
X121801385Y-93121757D01*
X121911141Y-93272822D01*
X122043178Y-93404859D01*
X122194243Y-93514615D01*
X122360619Y-93599387D01*
X122538207Y-93657089D01*
X122722636Y-93686300D01*
X122722637Y-93686300D01*
X122909363Y-93686300D01*
X122909364Y-93686300D01*
X123093793Y-93657089D01*
X123271381Y-93599387D01*
X123437757Y-93514615D01*
X123588822Y-93404859D01*
X123720859Y-93272822D01*
X123830615Y-93121757D01*
X123915387Y-92955381D01*
X123973089Y-92777793D01*
X124002300Y-92593364D01*
X124002300Y-92406636D01*
X123973089Y-92222207D01*
X123915387Y-92044619D01*
X123830615Y-91878243D01*
X123749308Y-91766335D01*
X133313700Y-91766335D01*
X133313700Y-93233670D01*
X133313701Y-93233676D01*
X133320108Y-93293283D01*
X133370402Y-93428128D01*
X133370406Y-93428135D01*
X133456652Y-93543344D01*
X133456655Y-93543347D01*
X133571864Y-93629593D01*
X133571871Y-93629597D01*
X133706717Y-93679891D01*
X133706716Y-93679891D01*
X133713644Y-93680635D01*
X133766327Y-93686300D01*
X135233672Y-93686299D01*
X135293283Y-93679891D01*
X135428131Y-93629596D01*
X135543346Y-93543346D01*
X135629596Y-93428131D01*
X135679891Y-93293283D01*
X135686300Y-93233673D01*
X135686299Y-91766328D01*
X135679891Y-91706717D01*
X135638276Y-91595142D01*
X135629597Y-91571871D01*
X135629593Y-91571864D01*
X135543347Y-91456655D01*
X135543344Y-91456652D01*
X135428135Y-91370406D01*
X135428128Y-91370402D01*
X135293282Y-91320108D01*
X135293283Y-91320108D01*
X135233683Y-91313701D01*
X135233681Y-91313700D01*
X135233673Y-91313700D01*
X135233664Y-91313700D01*
X133766329Y-91313700D01*
X133766323Y-91313701D01*
X133706716Y-91320108D01*
X133571871Y-91370402D01*
X133571864Y-91370406D01*
X133456655Y-91456652D01*
X133456652Y-91456655D01*
X133370406Y-91571864D01*
X133370402Y-91571871D01*
X133320108Y-91706717D01*
X133313701Y-91766316D01*
X133313701Y-91766323D01*
X133313700Y-91766335D01*
X123749308Y-91766335D01*
X123720859Y-91727178D01*
X123588822Y-91595141D01*
X123437757Y-91485385D01*
X123271381Y-91400613D01*
X123093793Y-91342911D01*
X123093791Y-91342910D01*
X123093789Y-91342910D01*
X122949822Y-91320108D01*
X122909364Y-91313700D01*
X122722636Y-91313700D01*
X122682178Y-91320108D01*
X122538210Y-91342910D01*
X122360616Y-91400614D01*
X122194242Y-91485385D01*
X122043176Y-91595142D01*
X121911142Y-91727176D01*
X121801385Y-91878242D01*
X121716614Y-92044616D01*
X121658910Y-92222210D01*
X121629700Y-92406636D01*
X120250500Y-92406636D01*
X120250500Y-88822785D01*
X139424450Y-88822785D01*
X139424450Y-90417120D01*
X139424451Y-90417126D01*
X139430858Y-90476733D01*
X139481152Y-90611578D01*
X139481156Y-90611585D01*
X139567402Y-90726794D01*
X139567405Y-90726797D01*
X139682614Y-90813043D01*
X139682621Y-90813047D01*
X139817467Y-90863341D01*
X139817466Y-90863341D01*
X139824394Y-90864085D01*
X139877077Y-90869750D01*
X141471422Y-90869749D01*
X141531033Y-90863341D01*
X141665881Y-90813046D01*
X141781096Y-90726796D01*
X141867346Y-90611581D01*
X141917641Y-90476733D01*
X141924050Y-90417123D01*
X141924049Y-89521583D01*
X145926850Y-89521583D01*
X145926850Y-89718316D01*
X145957623Y-89912612D01*
X146018416Y-90099711D01*
X146107725Y-90274988D01*
X146223356Y-90434140D01*
X146362460Y-90573244D01*
X146521612Y-90688875D01*
X146596032Y-90726794D01*
X146696888Y-90778183D01*
X146696890Y-90778183D01*
X146696893Y-90778185D01*
X146797180Y-90810770D01*
X146883987Y-90838976D01*
X147078284Y-90869750D01*
X147078289Y-90869750D01*
X147275016Y-90869750D01*
X147469312Y-90838976D01*
X147656407Y-90778185D01*
X147831688Y-90688875D01*
X147990840Y-90573244D01*
X148129944Y-90434140D01*
X148245575Y-90274988D01*
X148334885Y-90099707D01*
X148395676Y-89912612D01*
X148426450Y-89718316D01*
X148426450Y-89521583D01*
X148395676Y-89327287D01*
X148334883Y-89140188D01*
X148245574Y-88964911D01*
X148129944Y-88805760D01*
X147990840Y-88666656D01*
X147831688Y-88551025D01*
X147656411Y-88461716D01*
X147469312Y-88400923D01*
X147275016Y-88370150D01*
X147275011Y-88370150D01*
X147078289Y-88370150D01*
X147078284Y-88370150D01*
X146883987Y-88400923D01*
X146696888Y-88461716D01*
X146521611Y-88551025D01*
X146430809Y-88616997D01*
X146362460Y-88666656D01*
X146362458Y-88666658D01*
X146362457Y-88666658D01*
X146223358Y-88805757D01*
X146223358Y-88805758D01*
X146223356Y-88805760D01*
X146210992Y-88822778D01*
X146107725Y-88964911D01*
X146018416Y-89140188D01*
X145957623Y-89327287D01*
X145926850Y-89521583D01*
X141924049Y-89521583D01*
X141924049Y-88822778D01*
X141917641Y-88763167D01*
X141867346Y-88628319D01*
X141867345Y-88628318D01*
X141867343Y-88628314D01*
X141781097Y-88513105D01*
X141781094Y-88513102D01*
X141665885Y-88426856D01*
X141665878Y-88426852D01*
X141531032Y-88376558D01*
X141531033Y-88376558D01*
X141471433Y-88370151D01*
X141471431Y-88370150D01*
X141471423Y-88370150D01*
X141471414Y-88370150D01*
X139877079Y-88370150D01*
X139877073Y-88370151D01*
X139817466Y-88376558D01*
X139682621Y-88426852D01*
X139682614Y-88426856D01*
X139567405Y-88513102D01*
X139567402Y-88513105D01*
X139481156Y-88628314D01*
X139481152Y-88628321D01*
X139430858Y-88763167D01*
X139424451Y-88822766D01*
X139424451Y-88822773D01*
X139424450Y-88822785D01*
X120250500Y-88822785D01*
X120250500Y-76893713D01*
X124024500Y-76893713D01*
X124024500Y-77106287D01*
X124034062Y-77166657D01*
X124057753Y-77316239D01*
X124123444Y-77518414D01*
X124219951Y-77707820D01*
X124344890Y-77879786D01*
X124495209Y-78030105D01*
X124495214Y-78030109D01*
X124659793Y-78149682D01*
X124702459Y-78205011D01*
X124708438Y-78274625D01*
X124675833Y-78336420D01*
X124659793Y-78350318D01*
X124495214Y-78469890D01*
X124495209Y-78469894D01*
X124344890Y-78620213D01*
X124219951Y-78792179D01*
X124123444Y-78981585D01*
X124057753Y-79183760D01*
X124024500Y-79393713D01*
X124024500Y-79606286D01*
X124057753Y-79816239D01*
X124123444Y-80018414D01*
X124219951Y-80207820D01*
X124344890Y-80379786D01*
X124495209Y-80530105D01*
X124495214Y-80530109D01*
X124659793Y-80649682D01*
X124702459Y-80705011D01*
X124708438Y-80774625D01*
X124675833Y-80836420D01*
X124659793Y-80850318D01*
X124495214Y-80969890D01*
X124495209Y-80969894D01*
X124344890Y-81120213D01*
X124219951Y-81292179D01*
X124123444Y-81481585D01*
X124057753Y-81683760D01*
X124052281Y-81718311D01*
X124024500Y-81893713D01*
X124024500Y-82106287D01*
X124057754Y-82316243D01*
X124109900Y-82476732D01*
X124123444Y-82518414D01*
X124219951Y-82707820D01*
X124344890Y-82879786D01*
X124495209Y-83030105D01*
X124495214Y-83030109D01*
X124659793Y-83149682D01*
X124702459Y-83205011D01*
X124708438Y-83274625D01*
X124675833Y-83336420D01*
X124659793Y-83350318D01*
X124495214Y-83469890D01*
X124495209Y-83469894D01*
X124344890Y-83620213D01*
X124219951Y-83792179D01*
X124123444Y-83981585D01*
X124057753Y-84183760D01*
X124024500Y-84393713D01*
X124024500Y-84606287D01*
X124057754Y-84816243D01*
X124105171Y-84962178D01*
X124123444Y-85018414D01*
X124219951Y-85207820D01*
X124344890Y-85379786D01*
X124484068Y-85518964D01*
X124517553Y-85580287D01*
X124512569Y-85649979D01*
X124470697Y-85705912D01*
X124461484Y-85712183D01*
X124306659Y-85807680D01*
X124306655Y-85807683D01*
X124182684Y-85931654D01*
X124090643Y-86080875D01*
X124090641Y-86080880D01*
X124035494Y-86247302D01*
X124035493Y-86247309D01*
X124025000Y-86350013D01*
X124025000Y-86750000D01*
X125095854Y-86750000D01*
X125057370Y-86816657D01*
X125025000Y-86937465D01*
X125025000Y-87062535D01*
X125057370Y-87183343D01*
X125095854Y-87250000D01*
X124025001Y-87250000D01*
X124025001Y-87649986D01*
X124035494Y-87752697D01*
X124090641Y-87919119D01*
X124090643Y-87919124D01*
X124182684Y-88068345D01*
X124306654Y-88192315D01*
X124455875Y-88284356D01*
X124455880Y-88284358D01*
X124622302Y-88339505D01*
X124622309Y-88339506D01*
X124725019Y-88349999D01*
X125249999Y-88349999D01*
X125250000Y-88349998D01*
X125250000Y-87404145D01*
X125316657Y-87442630D01*
X125437465Y-87475000D01*
X125562535Y-87475000D01*
X125683343Y-87442630D01*
X125750000Y-87404145D01*
X125750000Y-88349999D01*
X126274972Y-88349999D01*
X126274986Y-88349998D01*
X126377697Y-88339505D01*
X126544119Y-88284358D01*
X126544124Y-88284356D01*
X126693345Y-88192315D01*
X126817315Y-88068345D01*
X126909356Y-87919124D01*
X126909358Y-87919119D01*
X126964505Y-87752697D01*
X126964506Y-87752690D01*
X126974999Y-87649986D01*
X126975000Y-87649973D01*
X126975000Y-87250000D01*
X125904146Y-87250000D01*
X125942630Y-87183343D01*
X125975000Y-87062535D01*
X125975000Y-86937465D01*
X125942630Y-86816657D01*
X125904146Y-86750000D01*
X126974999Y-86750000D01*
X126974999Y-86350028D01*
X126974998Y-86350013D01*
X126964505Y-86247302D01*
X126909358Y-86080880D01*
X126909357Y-86080879D01*
X126872812Y-86021629D01*
X131924950Y-86021629D01*
X131924950Y-86218272D01*
X131955712Y-86412497D01*
X132016476Y-86599513D01*
X132016477Y-86599516D01*
X132105752Y-86774726D01*
X132131072Y-86809574D01*
X132131072Y-86809575D01*
X132695124Y-86245523D01*
X132712704Y-86311130D01*
X132777911Y-86424072D01*
X132870129Y-86516290D01*
X132983071Y-86581497D01*
X133048677Y-86599076D01*
X132484625Y-87163127D01*
X132484625Y-87163128D01*
X132519473Y-87188447D01*
X132694684Y-87277723D01*
X132694687Y-87277724D01*
X132881703Y-87338488D01*
X133075929Y-87369251D01*
X133272571Y-87369251D01*
X133466796Y-87338488D01*
X133653812Y-87277724D01*
X133653825Y-87277718D01*
X133829019Y-87188451D01*
X133829024Y-87188448D01*
X133863874Y-87163127D01*
X133299823Y-86599076D01*
X133365429Y-86581497D01*
X133478371Y-86516290D01*
X133570589Y-86424072D01*
X133635796Y-86311130D01*
X133653375Y-86245523D01*
X134217426Y-86809574D01*
X134242747Y-86774725D01*
X134242750Y-86774720D01*
X134332017Y-86599526D01*
X134332023Y-86599513D01*
X134392787Y-86412497D01*
X134423550Y-86218272D01*
X134423550Y-86021629D01*
X134423543Y-86021584D01*
X138426850Y-86021584D01*
X138426850Y-86218317D01*
X138457623Y-86412613D01*
X138518416Y-86599712D01*
X138573767Y-86708343D01*
X138607725Y-86774989D01*
X138723356Y-86934141D01*
X138862460Y-87073245D01*
X139021612Y-87188876D01*
X139104424Y-87231071D01*
X139196888Y-87278184D01*
X139196890Y-87278184D01*
X139196893Y-87278186D01*
X139297180Y-87310771D01*
X139383987Y-87338977D01*
X139578284Y-87369751D01*
X139578289Y-87369751D01*
X139775016Y-87369751D01*
X139969312Y-87338977D01*
X139970817Y-87338488D01*
X140156407Y-87278186D01*
X140331688Y-87188876D01*
X140490840Y-87073245D01*
X140629944Y-86934141D01*
X140745575Y-86774989D01*
X140834885Y-86599708D01*
X140895676Y-86412613D01*
X140895694Y-86412497D01*
X140926450Y-86218317D01*
X140926450Y-86021629D01*
X147424950Y-86021629D01*
X147424950Y-86218272D01*
X147455712Y-86412497D01*
X147516476Y-86599513D01*
X147516477Y-86599516D01*
X147605752Y-86774726D01*
X147631072Y-86809574D01*
X147631072Y-86809575D01*
X148195124Y-86245523D01*
X148212704Y-86311130D01*
X148277911Y-86424072D01*
X148370129Y-86516290D01*
X148483071Y-86581497D01*
X148548677Y-86599076D01*
X147984625Y-87163127D01*
X147984625Y-87163128D01*
X148019473Y-87188447D01*
X148194684Y-87277723D01*
X148194687Y-87277724D01*
X148381703Y-87338488D01*
X148575929Y-87369251D01*
X148772571Y-87369251D01*
X148966796Y-87338488D01*
X149153812Y-87277724D01*
X149153825Y-87277718D01*
X149329019Y-87188451D01*
X149329024Y-87188448D01*
X149363874Y-87163127D01*
X148799823Y-86599076D01*
X148865429Y-86581497D01*
X148978371Y-86516290D01*
X149070589Y-86424072D01*
X149135796Y-86311130D01*
X149153375Y-86245523D01*
X149717426Y-86809574D01*
X149742747Y-86774725D01*
X149742750Y-86774720D01*
X149832017Y-86599526D01*
X149832023Y-86599513D01*
X149892787Y-86412497D01*
X149923550Y-86218272D01*
X149923550Y-86021629D01*
X149923543Y-86021584D01*
X153926850Y-86021584D01*
X153926850Y-86218317D01*
X153957623Y-86412613D01*
X154018416Y-86599712D01*
X154073767Y-86708343D01*
X154107725Y-86774989D01*
X154223356Y-86934141D01*
X154362460Y-87073245D01*
X154521612Y-87188876D01*
X154604424Y-87231071D01*
X154696888Y-87278184D01*
X154696890Y-87278184D01*
X154696893Y-87278186D01*
X154797180Y-87310771D01*
X154883987Y-87338977D01*
X155078284Y-87369751D01*
X155078289Y-87369751D01*
X155275016Y-87369751D01*
X155469312Y-87338977D01*
X155470817Y-87338488D01*
X155656407Y-87278186D01*
X155831688Y-87188876D01*
X155990840Y-87073245D01*
X156129944Y-86934141D01*
X156245575Y-86774989D01*
X156334885Y-86599708D01*
X156395676Y-86412613D01*
X156395694Y-86412497D01*
X156426450Y-86218317D01*
X156426450Y-86021584D01*
X156395676Y-85827288D01*
X156334883Y-85640189D01*
X156273115Y-85518963D01*
X156245575Y-85464913D01*
X156129944Y-85305761D01*
X155990840Y-85166657D01*
X155831688Y-85051026D01*
X155656411Y-84961717D01*
X155469312Y-84900924D01*
X155275016Y-84870151D01*
X155275011Y-84870151D01*
X155078289Y-84870151D01*
X155078284Y-84870151D01*
X154883987Y-84900924D01*
X154696888Y-84961717D01*
X154521611Y-85051026D01*
X154430809Y-85116998D01*
X154362460Y-85166657D01*
X154362458Y-85166659D01*
X154362457Y-85166659D01*
X154223358Y-85305758D01*
X154223358Y-85305759D01*
X154223356Y-85305761D01*
X154173697Y-85374110D01*
X154107725Y-85464912D01*
X154018416Y-85640189D01*
X153957623Y-85827288D01*
X153926850Y-86021584D01*
X149923543Y-86021584D01*
X149892787Y-85827404D01*
X149832023Y-85640388D01*
X149832022Y-85640385D01*
X149742746Y-85465174D01*
X149717426Y-85430326D01*
X149153374Y-85994377D01*
X149135796Y-85928772D01*
X149070589Y-85815830D01*
X148978371Y-85723612D01*
X148865429Y-85658405D01*
X148799822Y-85640825D01*
X149363874Y-85076773D01*
X149329025Y-85051453D01*
X149153815Y-84962178D01*
X149153812Y-84962177D01*
X148966796Y-84901413D01*
X148772571Y-84870651D01*
X148575929Y-84870651D01*
X148381703Y-84901413D01*
X148194687Y-84962177D01*
X148194684Y-84962178D01*
X148019470Y-85051456D01*
X147984625Y-85076772D01*
X147984625Y-85076774D01*
X148548678Y-85640825D01*
X148483071Y-85658405D01*
X148370129Y-85723612D01*
X148277911Y-85815830D01*
X148212704Y-85928772D01*
X148195124Y-85994378D01*
X147631073Y-85430326D01*
X147631071Y-85430326D01*
X147605755Y-85465171D01*
X147516477Y-85640385D01*
X147516476Y-85640388D01*
X147455712Y-85827404D01*
X147424950Y-86021629D01*
X140926450Y-86021629D01*
X140926450Y-86021584D01*
X140895676Y-85827288D01*
X140834883Y-85640189D01*
X140773115Y-85518963D01*
X140745575Y-85464913D01*
X140629944Y-85305761D01*
X140490840Y-85166657D01*
X140331688Y-85051026D01*
X140156411Y-84961717D01*
X139969312Y-84900924D01*
X139775016Y-84870151D01*
X139775011Y-84870151D01*
X139578289Y-84870151D01*
X139578284Y-84870151D01*
X139383987Y-84900924D01*
X139196888Y-84961717D01*
X139021611Y-85051026D01*
X138930809Y-85116998D01*
X138862460Y-85166657D01*
X138862458Y-85166659D01*
X138862457Y-85166659D01*
X138723358Y-85305758D01*
X138723358Y-85305759D01*
X138723356Y-85305761D01*
X138673697Y-85374110D01*
X138607725Y-85464912D01*
X138518416Y-85640189D01*
X138457623Y-85827288D01*
X138426850Y-86021584D01*
X134423543Y-86021584D01*
X134392787Y-85827404D01*
X134332023Y-85640388D01*
X134332022Y-85640385D01*
X134242746Y-85465174D01*
X134217426Y-85430326D01*
X133653374Y-85994377D01*
X133635796Y-85928772D01*
X133570589Y-85815830D01*
X133478371Y-85723612D01*
X133365429Y-85658405D01*
X133299822Y-85640825D01*
X133863874Y-85076773D01*
X133829025Y-85051453D01*
X133653815Y-84962178D01*
X133653812Y-84962177D01*
X133466796Y-84901413D01*
X133272571Y-84870651D01*
X133075929Y-84870651D01*
X132881703Y-84901413D01*
X132694687Y-84962177D01*
X132694684Y-84962178D01*
X132519470Y-85051456D01*
X132484625Y-85076772D01*
X132484625Y-85076774D01*
X133048678Y-85640825D01*
X132983071Y-85658405D01*
X132870129Y-85723612D01*
X132777911Y-85815830D01*
X132712704Y-85928772D01*
X132695124Y-85994378D01*
X132131073Y-85430326D01*
X132131071Y-85430326D01*
X132105755Y-85465171D01*
X132016477Y-85640385D01*
X132016476Y-85640388D01*
X131955712Y-85827404D01*
X131924950Y-86021629D01*
X126872812Y-86021629D01*
X126817315Y-85931654D01*
X126693345Y-85807684D01*
X126538515Y-85712184D01*
X126491791Y-85660236D01*
X126480568Y-85591273D01*
X126508412Y-85527191D01*
X126515909Y-85518986D01*
X126655104Y-85379792D01*
X126708893Y-85305758D01*
X126780048Y-85207820D01*
X126780047Y-85207820D01*
X126780051Y-85207816D01*
X126876557Y-85018412D01*
X126942246Y-84816243D01*
X126975500Y-84606287D01*
X126975500Y-84393713D01*
X126942246Y-84183757D01*
X126876557Y-83981588D01*
X126780051Y-83792184D01*
X126780049Y-83792181D01*
X126780048Y-83792179D01*
X126655109Y-83620213D01*
X126504792Y-83469896D01*
X126504784Y-83469890D01*
X126340204Y-83350316D01*
X126297540Y-83294989D01*
X126291561Y-83225376D01*
X126324166Y-83163580D01*
X126340199Y-83149686D01*
X126504792Y-83030104D01*
X126655104Y-82879792D01*
X126655106Y-82879788D01*
X126655109Y-82879786D01*
X126780048Y-82707820D01*
X126780047Y-82707820D01*
X126780051Y-82707816D01*
X126876557Y-82518412D01*
X126942246Y-82316243D01*
X126975500Y-82106287D01*
X126975500Y-81893713D01*
X126942246Y-81683757D01*
X126876557Y-81481588D01*
X126780051Y-81292184D01*
X126780049Y-81292181D01*
X126780048Y-81292179D01*
X126655109Y-81120213D01*
X126504788Y-80969892D01*
X126435806Y-80919775D01*
X126435805Y-80919774D01*
X126340206Y-80850318D01*
X126318974Y-80822785D01*
X131924450Y-80822785D01*
X131924450Y-82417120D01*
X131924451Y-82417126D01*
X131930858Y-82476733D01*
X131981152Y-82611578D01*
X131981156Y-82611585D01*
X132067402Y-82726794D01*
X132067405Y-82726797D01*
X132182614Y-82813043D01*
X132182621Y-82813047D01*
X132317467Y-82863341D01*
X132317466Y-82863341D01*
X132324394Y-82864085D01*
X132377077Y-82869750D01*
X133971422Y-82869749D01*
X134031033Y-82863341D01*
X134165881Y-82813046D01*
X134281096Y-82726796D01*
X134367346Y-82611581D01*
X134417641Y-82476733D01*
X134424050Y-82417123D01*
X134424049Y-81521583D01*
X138426850Y-81521583D01*
X138426850Y-81718316D01*
X138457623Y-81912612D01*
X138518416Y-82099711D01*
X138607725Y-82274988D01*
X138723356Y-82434140D01*
X138862460Y-82573244D01*
X139021612Y-82688875D01*
X139058786Y-82707816D01*
X139196888Y-82778183D01*
X139196890Y-82778183D01*
X139196893Y-82778185D01*
X139297180Y-82810770D01*
X139383987Y-82838976D01*
X139578284Y-82869750D01*
X139578289Y-82869750D01*
X139775016Y-82869750D01*
X139969312Y-82838976D01*
X140156407Y-82778185D01*
X140331688Y-82688875D01*
X140490840Y-82573244D01*
X140629944Y-82434140D01*
X140745575Y-82274988D01*
X140834885Y-82099707D01*
X140895676Y-81912612D01*
X140898669Y-81893713D01*
X140926450Y-81718316D01*
X140926450Y-81521583D01*
X140895676Y-81327287D01*
X140834883Y-81140188D01*
X140745574Y-80964911D01*
X140642313Y-80822785D01*
X147424450Y-80822785D01*
X147424450Y-82417120D01*
X147424451Y-82417126D01*
X147430858Y-82476733D01*
X147481152Y-82611578D01*
X147481156Y-82611585D01*
X147567402Y-82726794D01*
X147567405Y-82726797D01*
X147682614Y-82813043D01*
X147682621Y-82813047D01*
X147817467Y-82863341D01*
X147817466Y-82863341D01*
X147824394Y-82864085D01*
X147877077Y-82869750D01*
X149471422Y-82869749D01*
X149531033Y-82863341D01*
X149665881Y-82813046D01*
X149781096Y-82726796D01*
X149867346Y-82611581D01*
X149917641Y-82476733D01*
X149924050Y-82417123D01*
X149924049Y-81521583D01*
X153926850Y-81521583D01*
X153926850Y-81718316D01*
X153957623Y-81912612D01*
X154018416Y-82099711D01*
X154107725Y-82274988D01*
X154223356Y-82434140D01*
X154362460Y-82573244D01*
X154521612Y-82688875D01*
X154558786Y-82707816D01*
X154696888Y-82778183D01*
X154696890Y-82778183D01*
X154696893Y-82778185D01*
X154797180Y-82810770D01*
X154883987Y-82838976D01*
X155078284Y-82869750D01*
X155078289Y-82869750D01*
X155275016Y-82869750D01*
X155469312Y-82838976D01*
X155656407Y-82778185D01*
X155831688Y-82688875D01*
X155990840Y-82573244D01*
X156129944Y-82434140D01*
X156245575Y-82274988D01*
X156334885Y-82099707D01*
X156395676Y-81912612D01*
X156398669Y-81893713D01*
X156426450Y-81718316D01*
X156426450Y-81521583D01*
X156395676Y-81327287D01*
X156334883Y-81140188D01*
X156245574Y-80964911D01*
X156129944Y-80805760D01*
X155990840Y-80666656D01*
X155831688Y-80551025D01*
X155790638Y-80530109D01*
X155656411Y-80461716D01*
X155469312Y-80400923D01*
X155275016Y-80370150D01*
X155275011Y-80370150D01*
X155078289Y-80370150D01*
X155078284Y-80370150D01*
X154883987Y-80400923D01*
X154696888Y-80461716D01*
X154521611Y-80551025D01*
X154430809Y-80616997D01*
X154362460Y-80666656D01*
X154362458Y-80666658D01*
X154362457Y-80666658D01*
X154223358Y-80805757D01*
X154223358Y-80805758D01*
X154223356Y-80805760D01*
X154190983Y-80850318D01*
X154107725Y-80964911D01*
X154018416Y-81140188D01*
X153957623Y-81327287D01*
X153926850Y-81521583D01*
X149924049Y-81521583D01*
X149924049Y-80822778D01*
X149917641Y-80763167D01*
X149895950Y-80705011D01*
X149867347Y-80628321D01*
X149867343Y-80628314D01*
X149781097Y-80513105D01*
X149781094Y-80513102D01*
X149665885Y-80426856D01*
X149665878Y-80426852D01*
X149531032Y-80376558D01*
X149531033Y-80376558D01*
X149471433Y-80370151D01*
X149471431Y-80370150D01*
X149471423Y-80370150D01*
X149471414Y-80370150D01*
X147877079Y-80370150D01*
X147877073Y-80370151D01*
X147817466Y-80376558D01*
X147682621Y-80426852D01*
X147682614Y-80426856D01*
X147567405Y-80513102D01*
X147567402Y-80513105D01*
X147481156Y-80628314D01*
X147481152Y-80628321D01*
X147430858Y-80763167D01*
X147424451Y-80822766D01*
X147424451Y-80822773D01*
X147424450Y-80822785D01*
X140642313Y-80822785D01*
X140629944Y-80805760D01*
X140490840Y-80666656D01*
X140331688Y-80551025D01*
X140290638Y-80530109D01*
X140156411Y-80461716D01*
X139969312Y-80400923D01*
X139775016Y-80370150D01*
X139775011Y-80370150D01*
X139578289Y-80370150D01*
X139578284Y-80370150D01*
X139383987Y-80400923D01*
X139196888Y-80461716D01*
X139021611Y-80551025D01*
X138930809Y-80616997D01*
X138862460Y-80666656D01*
X138862458Y-80666658D01*
X138862457Y-80666658D01*
X138723358Y-80805757D01*
X138723358Y-80805758D01*
X138723356Y-80805760D01*
X138690983Y-80850318D01*
X138607725Y-80964911D01*
X138518416Y-81140188D01*
X138457623Y-81327287D01*
X138426850Y-81521583D01*
X134424049Y-81521583D01*
X134424049Y-80822778D01*
X134417641Y-80763167D01*
X134395950Y-80705011D01*
X134367347Y-80628321D01*
X134367343Y-80628314D01*
X134281097Y-80513105D01*
X134281094Y-80513102D01*
X134165885Y-80426856D01*
X134165878Y-80426852D01*
X134031032Y-80376558D01*
X134031033Y-80376558D01*
X133971433Y-80370151D01*
X133971431Y-80370150D01*
X133971423Y-80370150D01*
X133971414Y-80370150D01*
X132377079Y-80370150D01*
X132377073Y-80370151D01*
X132317466Y-80376558D01*
X132182621Y-80426852D01*
X132182614Y-80426856D01*
X132067405Y-80513102D01*
X132067402Y-80513105D01*
X131981156Y-80628314D01*
X131981152Y-80628321D01*
X131930858Y-80763167D01*
X131924451Y-80822766D01*
X131924451Y-80822773D01*
X131924450Y-80822785D01*
X126318974Y-80822785D01*
X126297540Y-80794989D01*
X126291561Y-80725375D01*
X126324166Y-80663580D01*
X126340199Y-80649686D01*
X126504792Y-80530104D01*
X126655104Y-80379792D01*
X126655106Y-80379788D01*
X126655109Y-80379786D01*
X126780048Y-80207820D01*
X126780047Y-80207820D01*
X126780051Y-80207816D01*
X126876557Y-80018412D01*
X126942246Y-79816243D01*
X126975500Y-79606287D01*
X126975500Y-79393713D01*
X126942246Y-79183757D01*
X126876557Y-78981588D01*
X126780051Y-78792184D01*
X126780049Y-78792181D01*
X126780048Y-78792179D01*
X126655109Y-78620213D01*
X126504792Y-78469896D01*
X126425788Y-78412497D01*
X126340204Y-78350316D01*
X126297540Y-78294989D01*
X126291561Y-78225376D01*
X126324166Y-78163580D01*
X126340199Y-78149686D01*
X126504792Y-78030104D01*
X126513267Y-78021629D01*
X139424950Y-78021629D01*
X139424950Y-78218272D01*
X139455712Y-78412497D01*
X139516476Y-78599513D01*
X139516477Y-78599516D01*
X139605752Y-78774726D01*
X139631072Y-78809574D01*
X139631072Y-78809575D01*
X140195124Y-78245523D01*
X140212704Y-78311130D01*
X140277911Y-78424072D01*
X140370129Y-78516290D01*
X140483071Y-78581497D01*
X140548677Y-78599076D01*
X139984625Y-79163127D01*
X139984625Y-79163128D01*
X140019473Y-79188447D01*
X140194684Y-79277723D01*
X140194687Y-79277724D01*
X140381703Y-79338488D01*
X140575929Y-79369251D01*
X140772571Y-79369251D01*
X140966796Y-79338488D01*
X141153812Y-79277724D01*
X141153825Y-79277718D01*
X141329019Y-79188451D01*
X141329024Y-79188448D01*
X141363874Y-79163127D01*
X140799823Y-78599076D01*
X140865429Y-78581497D01*
X140978371Y-78516290D01*
X141070589Y-78424072D01*
X141135796Y-78311130D01*
X141153375Y-78245523D01*
X141717426Y-78809574D01*
X141742747Y-78774725D01*
X141742750Y-78774720D01*
X141832017Y-78599526D01*
X141832023Y-78599513D01*
X141892787Y-78412497D01*
X141923550Y-78218272D01*
X141923550Y-78021629D01*
X141923543Y-78021584D01*
X145926850Y-78021584D01*
X145926850Y-78218317D01*
X145957623Y-78412613D01*
X146018416Y-78599712D01*
X146107588Y-78774720D01*
X146107725Y-78774989D01*
X146223356Y-78934141D01*
X146362460Y-79073245D01*
X146521612Y-79188876D01*
X146604424Y-79231071D01*
X146696888Y-79278184D01*
X146696890Y-79278184D01*
X146696893Y-79278186D01*
X146797180Y-79310771D01*
X146883987Y-79338977D01*
X147078284Y-79369751D01*
X147078289Y-79369751D01*
X147275016Y-79369751D01*
X147469312Y-79338977D01*
X147470817Y-79338488D01*
X147656407Y-79278186D01*
X147831688Y-79188876D01*
X147990840Y-79073245D01*
X148129944Y-78934141D01*
X148245575Y-78774989D01*
X148334885Y-78599708D01*
X148395676Y-78412613D01*
X148395694Y-78412497D01*
X148426450Y-78218317D01*
X148426450Y-78021584D01*
X148395676Y-77827288D01*
X148334883Y-77640189D01*
X148272834Y-77518412D01*
X148245575Y-77464913D01*
X148129944Y-77305761D01*
X147990840Y-77166657D01*
X147831688Y-77051026D01*
X147656411Y-76961717D01*
X147469312Y-76900924D01*
X147275016Y-76870151D01*
X147275011Y-76870151D01*
X147078289Y-76870151D01*
X147078284Y-76870151D01*
X146883987Y-76900924D01*
X146696888Y-76961717D01*
X146521611Y-77051026D01*
X146445553Y-77106286D01*
X146362460Y-77166657D01*
X146362458Y-77166659D01*
X146362457Y-77166659D01*
X146223358Y-77305758D01*
X146223358Y-77305759D01*
X146223356Y-77305761D01*
X146173697Y-77374110D01*
X146107725Y-77464912D01*
X146018416Y-77640189D01*
X145957623Y-77827288D01*
X145926850Y-78021584D01*
X141923543Y-78021584D01*
X141892787Y-77827404D01*
X141832023Y-77640388D01*
X141832022Y-77640385D01*
X141742746Y-77465174D01*
X141717426Y-77430326D01*
X141153374Y-77994377D01*
X141135796Y-77928772D01*
X141070589Y-77815830D01*
X140978371Y-77723612D01*
X140865429Y-77658405D01*
X140799822Y-77640825D01*
X141363874Y-77076773D01*
X141329025Y-77051453D01*
X141153815Y-76962178D01*
X141153812Y-76962177D01*
X140966796Y-76901413D01*
X140772571Y-76870651D01*
X140575929Y-76870651D01*
X140381703Y-76901413D01*
X140194687Y-76962177D01*
X140194684Y-76962178D01*
X140019470Y-77051456D01*
X139984625Y-77076772D01*
X139984625Y-77076774D01*
X140548678Y-77640825D01*
X140483071Y-77658405D01*
X140370129Y-77723612D01*
X140277911Y-77815830D01*
X140212704Y-77928772D01*
X140195124Y-77994378D01*
X139631073Y-77430326D01*
X139631071Y-77430326D01*
X139605755Y-77465171D01*
X139516477Y-77640385D01*
X139516476Y-77640388D01*
X139455712Y-77827404D01*
X139424950Y-78021629D01*
X126513267Y-78021629D01*
X126655104Y-77879792D01*
X126655106Y-77879788D01*
X126655109Y-77879786D01*
X126780048Y-77707820D01*
X126780047Y-77707820D01*
X126780051Y-77707816D01*
X126876557Y-77518412D01*
X126942246Y-77316243D01*
X126975500Y-77106287D01*
X126975500Y-76893713D01*
X126942246Y-76683757D01*
X126876557Y-76481588D01*
X126780051Y-76292184D01*
X126780049Y-76292181D01*
X126780048Y-76292179D01*
X126655109Y-76120213D01*
X126504790Y-75969894D01*
X126504785Y-75969890D01*
X126339781Y-75850008D01*
X126297115Y-75794678D01*
X126291136Y-75725065D01*
X126323741Y-75663270D01*
X126339781Y-75649371D01*
X126504466Y-75529721D01*
X126654723Y-75379464D01*
X126654727Y-75379459D01*
X126779620Y-75207557D01*
X126876095Y-75018217D01*
X126941757Y-74816129D01*
X126941757Y-74816126D01*
X126952231Y-74750000D01*
X125904146Y-74750000D01*
X125942630Y-74683343D01*
X125975000Y-74562535D01*
X125975000Y-74437465D01*
X125942630Y-74316657D01*
X125904146Y-74250000D01*
X126952231Y-74250000D01*
X126941757Y-74183873D01*
X126941757Y-74183870D01*
X126876095Y-73981782D01*
X126779620Y-73792442D01*
X126654727Y-73620540D01*
X126654723Y-73620535D01*
X126504464Y-73470276D01*
X126504459Y-73470272D01*
X126332557Y-73345379D01*
X126143217Y-73248904D01*
X125941128Y-73183242D01*
X125750000Y-73152969D01*
X125750000Y-74095854D01*
X125683343Y-74057370D01*
X125562535Y-74025000D01*
X125437465Y-74025000D01*
X125316657Y-74057370D01*
X125250000Y-74095854D01*
X125250000Y-73152969D01*
X125058872Y-73183242D01*
X125058869Y-73183242D01*
X124856782Y-73248904D01*
X124667442Y-73345379D01*
X124495540Y-73470272D01*
X124495535Y-73470276D01*
X124345276Y-73620535D01*
X124345272Y-73620540D01*
X124220379Y-73792442D01*
X124123904Y-73981782D01*
X124058242Y-74183870D01*
X124058242Y-74183873D01*
X124047769Y-74250000D01*
X125095854Y-74250000D01*
X125057370Y-74316657D01*
X125025000Y-74437465D01*
X125025000Y-74562535D01*
X125057370Y-74683343D01*
X125095854Y-74750000D01*
X124047769Y-74750000D01*
X124058242Y-74816126D01*
X124058242Y-74816129D01*
X124123904Y-75018217D01*
X124220379Y-75207557D01*
X124345272Y-75379459D01*
X124345276Y-75379464D01*
X124495535Y-75529723D01*
X124495540Y-75529727D01*
X124660218Y-75649372D01*
X124702884Y-75704701D01*
X124708863Y-75774315D01*
X124676258Y-75836110D01*
X124660218Y-75850008D01*
X124495214Y-75969890D01*
X124495209Y-75969894D01*
X124344890Y-76120213D01*
X124219951Y-76292179D01*
X124123444Y-76481585D01*
X124057753Y-76683760D01*
X124028232Y-76870151D01*
X124024500Y-76893713D01*
X120250500Y-76893713D01*
X120250500Y-72822785D01*
X139424450Y-72822785D01*
X139424450Y-74417120D01*
X139424451Y-74417126D01*
X139430858Y-74476733D01*
X139481152Y-74611578D01*
X139481156Y-74611585D01*
X139567402Y-74726794D01*
X139567405Y-74726797D01*
X139682614Y-74813043D01*
X139682621Y-74813047D01*
X139817467Y-74863341D01*
X139817466Y-74863341D01*
X139824394Y-74864085D01*
X139877077Y-74869750D01*
X141471422Y-74869749D01*
X141531033Y-74863341D01*
X141665881Y-74813046D01*
X141781096Y-74726796D01*
X141867346Y-74611581D01*
X141917641Y-74476733D01*
X141924050Y-74417123D01*
X141924049Y-73521583D01*
X145926850Y-73521583D01*
X145926850Y-73718316D01*
X145957623Y-73912612D01*
X146018416Y-74099711D01*
X146094993Y-74250000D01*
X146107725Y-74274988D01*
X146223356Y-74434140D01*
X146362460Y-74573244D01*
X146521612Y-74688875D01*
X146596032Y-74726794D01*
X146696888Y-74778183D01*
X146696890Y-74778183D01*
X146696893Y-74778185D01*
X146797180Y-74810770D01*
X146883987Y-74838976D01*
X147078284Y-74869750D01*
X147078289Y-74869750D01*
X147275016Y-74869750D01*
X147469312Y-74838976D01*
X147656407Y-74778185D01*
X147831688Y-74688875D01*
X147990840Y-74573244D01*
X148129944Y-74434140D01*
X148245575Y-74274988D01*
X148334885Y-74099707D01*
X148395676Y-73912612D01*
X148414709Y-73792442D01*
X148426450Y-73718316D01*
X148426450Y-73521583D01*
X148395676Y-73327287D01*
X148367470Y-73240480D01*
X148334885Y-73140193D01*
X148334883Y-73140190D01*
X148334883Y-73140188D01*
X148245574Y-72964911D01*
X148129944Y-72805760D01*
X147990840Y-72666656D01*
X147831688Y-72551025D01*
X147656411Y-72461716D01*
X147469312Y-72400923D01*
X147275016Y-72370150D01*
X147275011Y-72370150D01*
X147078289Y-72370150D01*
X147078284Y-72370150D01*
X146883987Y-72400923D01*
X146696888Y-72461716D01*
X146521611Y-72551025D01*
X146430809Y-72616997D01*
X146362460Y-72666656D01*
X146362458Y-72666658D01*
X146362457Y-72666658D01*
X146223358Y-72805757D01*
X146223358Y-72805758D01*
X146223356Y-72805760D01*
X146210992Y-72822778D01*
X146107725Y-72964911D01*
X146018416Y-73140188D01*
X145957623Y-73327287D01*
X145926850Y-73521583D01*
X141924049Y-73521583D01*
X141924049Y-72822778D01*
X141917641Y-72763167D01*
X141867346Y-72628319D01*
X141867345Y-72628318D01*
X141867343Y-72628314D01*
X141781097Y-72513105D01*
X141781094Y-72513102D01*
X141665885Y-72426856D01*
X141665878Y-72426852D01*
X141531032Y-72376558D01*
X141531033Y-72376558D01*
X141471433Y-72370151D01*
X141471431Y-72370150D01*
X141471423Y-72370150D01*
X141471414Y-72370150D01*
X139877079Y-72370150D01*
X139877073Y-72370151D01*
X139817466Y-72376558D01*
X139682621Y-72426852D01*
X139682614Y-72426856D01*
X139567405Y-72513102D01*
X139567402Y-72513105D01*
X139481156Y-72628314D01*
X139481152Y-72628321D01*
X139430858Y-72763167D01*
X139424451Y-72822766D01*
X139424451Y-72822773D01*
X139424450Y-72822785D01*
X120250500Y-72822785D01*
X120250500Y-66878711D01*
X123149500Y-66878711D01*
X123149500Y-67121288D01*
X123181161Y-67361785D01*
X123243947Y-67596104D01*
X123336773Y-67820205D01*
X123336776Y-67820212D01*
X123458064Y-68030289D01*
X123458066Y-68030292D01*
X123458067Y-68030293D01*
X123605733Y-68222736D01*
X123605739Y-68222743D01*
X123777256Y-68394260D01*
X123777262Y-68394265D01*
X123969711Y-68541936D01*
X124179788Y-68663224D01*
X124403900Y-68756054D01*
X124638211Y-68818838D01*
X124818586Y-68842584D01*
X124878711Y-68850500D01*
X124878712Y-68850500D01*
X125121289Y-68850500D01*
X125169388Y-68844167D01*
X125361789Y-68818838D01*
X125596100Y-68756054D01*
X125820212Y-68663224D01*
X126030289Y-68541936D01*
X126222738Y-68394265D01*
X126394265Y-68222738D01*
X126541936Y-68030289D01*
X126663224Y-67820212D01*
X126756054Y-67596100D01*
X126818838Y-67361789D01*
X126850500Y-67121288D01*
X126850500Y-66878712D01*
X126850500Y-66878711D01*
X235149500Y-66878711D01*
X235149500Y-67121288D01*
X235181161Y-67361785D01*
X235243947Y-67596104D01*
X235336773Y-67820205D01*
X235336776Y-67820212D01*
X235458064Y-68030289D01*
X235458066Y-68030292D01*
X235458067Y-68030293D01*
X235605733Y-68222736D01*
X235605739Y-68222743D01*
X235777256Y-68394260D01*
X235777262Y-68394265D01*
X235969711Y-68541936D01*
X236179788Y-68663224D01*
X236403900Y-68756054D01*
X236638211Y-68818838D01*
X236818586Y-68842584D01*
X236878711Y-68850500D01*
X236878712Y-68850500D01*
X237121289Y-68850500D01*
X237169388Y-68844167D01*
X237361789Y-68818838D01*
X237596100Y-68756054D01*
X237820212Y-68663224D01*
X238030289Y-68541936D01*
X238222738Y-68394265D01*
X238394265Y-68222738D01*
X238541936Y-68030289D01*
X238663224Y-67820212D01*
X238756054Y-67596100D01*
X238818838Y-67361789D01*
X238850500Y-67121288D01*
X238850500Y-66878712D01*
X238818838Y-66638211D01*
X238756054Y-66403900D01*
X238663224Y-66179788D01*
X238541936Y-65969711D01*
X238394265Y-65777262D01*
X238394260Y-65777256D01*
X238222743Y-65605739D01*
X238222736Y-65605733D01*
X238030293Y-65458067D01*
X238030292Y-65458066D01*
X238030289Y-65458064D01*
X237820212Y-65336776D01*
X237820205Y-65336773D01*
X237596104Y-65243947D01*
X237361785Y-65181161D01*
X237121289Y-65149500D01*
X237121288Y-65149500D01*
X236878712Y-65149500D01*
X236878711Y-65149500D01*
X236638214Y-65181161D01*
X236403895Y-65243947D01*
X236179794Y-65336773D01*
X236179785Y-65336777D01*
X235969706Y-65458067D01*
X235777263Y-65605733D01*
X235777256Y-65605739D01*
X235605739Y-65777256D01*
X235605733Y-65777263D01*
X235458067Y-65969706D01*
X235336777Y-66179785D01*
X235336773Y-66179794D01*
X235243947Y-66403895D01*
X235181161Y-66638214D01*
X235149500Y-66878711D01*
X126850500Y-66878711D01*
X126818838Y-66638211D01*
X126756054Y-66403900D01*
X126663224Y-66179788D01*
X126541936Y-65969711D01*
X126394265Y-65777262D01*
X126394260Y-65777256D01*
X126222743Y-65605739D01*
X126222736Y-65605733D01*
X126030293Y-65458067D01*
X126030292Y-65458066D01*
X126030289Y-65458064D01*
X125820212Y-65336776D01*
X125820205Y-65336773D01*
X125596104Y-65243947D01*
X125361785Y-65181161D01*
X125121289Y-65149500D01*
X125121288Y-65149500D01*
X124878712Y-65149500D01*
X124878711Y-65149500D01*
X124638214Y-65181161D01*
X124403895Y-65243947D01*
X124179794Y-65336773D01*
X124179785Y-65336777D01*
X123969706Y-65458067D01*
X123777263Y-65605733D01*
X123777256Y-65605739D01*
X123605739Y-65777256D01*
X123605733Y-65777263D01*
X123458067Y-65969706D01*
X123336777Y-66179785D01*
X123336773Y-66179794D01*
X123243947Y-66403895D01*
X123181161Y-66638214D01*
X123149500Y-66878711D01*
X120250500Y-66878711D01*
X120250500Y-63874500D01*
X120270185Y-63807461D01*
X120322989Y-63761706D01*
X120374500Y-63750500D01*
X239877900Y-63750500D01*
X239944939Y-63770185D01*
G37*
%TD.AperFunction*%
%TD*%
M02*
